<svg width="46" height="46" viewBox="0 0 46 46" fill="none" xmlns="http://www.w3.org/2000/svg">
<path d="M23.1923 35.5542L23.0007 35.7458L22.7898 35.5542C13.6857 27.2933 7.66732 21.8308 7.66732 16.2917C7.66732 12.4583 10.5423 9.58333 14.3757 9.58333C17.3273 9.58333 20.2023 11.5 21.2182 14.1067H24.7832C25.799 11.5 28.674 9.58333 31.6257 9.58333C35.459 9.58333 38.334 12.4583 38.334 16.2917C38.334 21.8308 32.3157 27.2933 23.1923 35.5542ZM31.6257 5.75C28.2907 5.75 25.0898 7.3025 23.0007 9.73667C20.9115 7.3025 17.7107 5.75 14.3757 5.75C8.47232 5.75 3.83398 10.3692 3.83398 16.2917C3.83398 23.5175 10.3507 29.44 20.2215 38.3908L23.0007 40.9208L25.7798 38.3908C35.6507 29.44 42.1673 23.5175 42.1673 16.2917C42.1673 10.3692 37.529 5.75 31.6257 5.75Z" fill="url(#paint0_linear_755_72)"/>
<defs>
<linearGradient id="paint0_linear_755_72" x1="3.83398" y1="23.3354" x2="42.1673" y2="23.3354" gradientUnits="userSpaceOnUse">
<stop stop-color="#E020F1"/>
<stop offset="1" stop-color="#30C2E2"/>
</linearGradient>
</defs>
</svg>
