<svg width="46" height="46" viewBox="0 0 46 46" fill="none" xmlns="http://www.w3.org/2000/svg">
<path d="M40.2506 5.75V29.7083C40.2506 31.4875 39.5439 33.1938 38.2858 34.4518C37.0278 35.7099 35.3215 36.4167 33.5423 36.4167C31.7632 36.4167 30.0569 35.7099 28.7988 34.4518C27.5408 33.1938 26.834 31.4875 26.834 29.7083C26.834 27.9292 27.5408 26.2229 28.7988 24.9648C30.0569 23.7068 31.7632 23 33.5423 23C34.5773 23 35.5548 23.23 36.4173 23.6517V12.4008L17.2506 16.4833V33.5417C17.2506 35.3208 16.5439 37.0271 15.2858 38.2852C14.0278 39.5432 12.3215 40.25 10.5423 40.25C8.76316 40.25 7.05687 39.5432 5.79881 38.2852C4.54075 37.0271 3.83398 35.3208 3.83398 33.5417C3.83398 31.7625 4.54075 30.0562 5.79881 28.7982C7.05687 27.5401 8.76316 26.8333 10.5423 26.8333C11.5773 26.8333 12.5548 27.0633 13.4173 27.485V11.5L40.2506 5.75Z" fill="url(#paint0_linear_756_94)"/>
<defs>
<linearGradient id="paint0_linear_756_94" x1="3.83398" y1="23" x2="40.2506" y2="23" gradientUnits="userSpaceOnUse">
<stop stop-color="#E020F1"/>
<stop offset="1" stop-color="#30C2E2"/>
</linearGradient>
</defs>
</svg>
