<svg width="913" height="175" viewBox="0 0 913 175" fill="none" xmlns="http://www.w3.org/2000/svg">
<mask id="path-1-outside-1_868_139" maskUnits="userSpaceOnUse" x="0.411133" y="0.620605" width="913" height="174" fill="black">
<rect fill="white" x="0.411133" y="0.620605" width="913" height="174"/>
<path d="M57.6911 173.541C40.0911 173.541 26.3311 168.661 16.4111 158.901C6.49113 148.981 1.53113 135.221 1.53113 117.621H34.1711C34.1711 125.941 36.2511 132.501 40.4111 137.301C44.7311 141.941 50.6511 144.261 58.1711 144.261H84.8111C91.8511 144.261 97.5311 142.821 101.851 139.941C106.331 136.901 108.571 132.901 108.571 127.941V119.781C108.571 111.941 102.811 107.061 91.2911 105.141L47.1311 97.7006C32.7311 95.3006 21.7711 90.7406 14.2511 84.0206C6.89113 77.1406 3.21113 68.4206 3.21113 57.8606V44.4206C3.21113 35.9406 5.45113 28.5006 9.93113 22.1006C14.5711 15.5406 21.0511 10.5006 29.3711 6.98059C37.8511 3.4606 47.6111 1.7006 58.6511 1.7006H85.7711C96.1711 1.7006 105.371 3.8606 113.371 8.18059C121.371 12.5006 127.531 18.5806 131.851 26.4206C136.331 34.1006 138.571 43.0606 138.571 53.3006H105.931C105.931 46.5806 104.091 41.2206 100.411 37.2206C96.7311 33.0606 91.8511 30.9806 85.7711 30.9806H58.6511C51.9311 30.9806 46.4911 32.4206 42.3311 35.3006C38.3311 38.1806 36.3311 42.0206 36.3311 46.8206V53.3006C36.3311 61.3006 41.8511 66.2606 52.8911 68.1806L96.8111 75.8606C111.371 78.4206 122.491 82.9806 130.171 89.5406C137.851 95.9406 141.691 104.261 141.691 114.501V130.341C141.691 138.821 139.291 146.341 134.491 152.901C129.851 159.461 123.291 164.581 114.811 168.261C106.331 171.781 96.4911 173.541 85.2911 173.541H57.6911ZM223.351 173.541C211.511 173.541 201.111 171.061 192.151 166.101C183.191 160.981 176.231 153.861 171.271 144.741C166.311 135.621 163.831 125.061 163.831 113.061V3.62059H196.951V112.101C196.951 121.701 199.351 129.461 204.151 135.381C209.111 141.301 215.511 144.261 223.351 144.261H248.791C256.791 144.261 263.271 141.301 268.231 135.381C273.191 129.461 275.671 121.701 275.671 112.101V3.62059H308.791V113.061C308.791 125.061 306.311 135.621 301.351 144.741C296.391 153.861 289.351 160.981 280.231 166.101C271.111 171.061 260.631 173.541 248.791 173.541H223.351ZM337.526 3.62059H426.086C435.846 3.62059 444.486 5.54059 452.006 9.38059C459.526 13.0606 465.366 18.4206 469.526 25.4606C473.686 32.3406 475.766 40.2606 475.766 49.2206V71.5406C475.766 80.8206 473.606 89.0606 469.286 96.2606C464.966 103.301 458.886 108.821 451.046 112.821C443.366 116.661 434.406 118.581 424.166 118.581H370.646V171.621H337.526V3.62059ZM423.686 89.7806C429.286 89.7806 433.846 88.0206 437.366 84.5006C440.886 80.8206 442.646 76.0206 442.646 70.1006V50.6606C442.646 45.0606 441.046 40.6606 437.846 37.4606C434.806 34.1006 430.726 32.4206 425.606 32.4206H370.646V89.7806H423.686ZM494.088 3.62059H582.648C592.408 3.62059 601.048 5.54059 608.568 9.38059C616.088 13.0606 621.928 18.4206 626.088 25.4606C630.248 32.3406 632.328 40.2606 632.328 49.2206V71.5406C632.328 80.8206 630.168 89.0606 625.848 96.2606C621.528 103.301 615.448 108.821 607.608 112.821C599.928 116.661 590.968 118.581 580.728 118.581H527.208V171.621H494.088V3.62059ZM580.248 89.7806C585.848 89.7806 590.408 88.0206 593.928 84.5006C597.448 80.8206 599.208 76.0206 599.208 70.1006V50.6606C599.208 45.0606 597.608 40.6606 594.408 37.4606C591.368 34.1006 587.288 32.4206 582.168 32.4206H527.208V89.7806H580.248ZM673.931 171.621C666.891 171.621 661.211 169.621 656.891 165.621C652.731 161.461 650.651 156.021 650.651 149.301V3.62059H683.771V142.821H774.971V171.621H673.931ZM815.576 106.341L753.416 3.62059H789.416L832.136 75.8606L874.856 3.62059H910.856L848.696 106.341V171.621H815.576V106.341Z"/>
</mask>
<path d="M16.4111 158.901L15.704 159.608L15.7098 159.613L16.4111 158.901ZM1.53113 117.621V116.621H0.531134V117.621H1.53113ZM34.1711 117.621H35.1711V116.621H34.1711V117.621ZM40.4111 137.301L39.6554 137.956L39.6671 137.969L39.6792 137.982L40.4111 137.301ZM101.851 139.941L102.406 140.773L102.413 140.768L101.851 139.941ZM91.2911 105.141L91.125 106.127L91.1267 106.127L91.2911 105.141ZM47.1311 97.7006L47.2973 96.7145L47.2955 96.7142L47.1311 97.7006ZM14.2511 84.0206L13.5683 84.7511L13.5764 84.7588L13.5848 84.7663L14.2511 84.0206ZM9.93114 22.1006L9.11471 21.5231L9.1119 21.5271L9.93114 22.1006ZM29.3711 6.98059L28.9878 6.05698L28.9815 6.05962L29.3711 6.98059ZM113.371 8.1806L113.846 7.30069L113.371 8.1806ZM131.851 26.4206L130.975 26.9032L130.981 26.9139L130.987 26.9245L131.851 26.4206ZM138.571 53.3006V54.3006H139.571V53.3006H138.571ZM105.931 53.3006H104.931V54.3006H105.931V53.3006ZM100.411 37.2206L99.6621 37.8832L99.6686 37.8905L99.6752 37.8977L100.411 37.2206ZM42.3311 35.3006L41.7619 34.4784L41.7543 34.4837L41.7468 34.4891L42.3311 35.3006ZM52.8911 68.1806L53.0634 67.1955L53.0625 67.1954L52.8911 68.1806ZM96.8111 75.8606L96.9843 74.8757L96.9834 74.8755L96.8111 75.8606ZM130.171 89.5406L129.522 90.301L129.531 90.3088L130.171 89.5406ZM134.491 152.901L133.684 152.31L133.679 152.317L133.675 152.323L134.491 152.901ZM114.811 168.261L115.195 169.184L115.202 169.181L115.209 169.178L114.811 168.261ZM57.6911 172.541C40.2806 172.541 26.7992 167.718 17.1125 158.188L15.7098 159.613C25.8631 169.603 39.9016 174.541 57.6911 174.541V172.541ZM17.1182 158.193C7.43076 148.506 2.53113 135.027 2.53113 117.621H0.531134C0.531134 135.415 5.55151 149.455 15.704 159.608L17.1182 158.193ZM1.53113 118.621H34.1711V116.621H1.53113V118.621ZM33.1711 117.621C33.1711 126.105 35.2944 132.924 39.6554 137.956L41.1668 136.646C37.2079 132.078 35.1711 125.776 35.1711 117.621H33.1711ZM39.6792 137.982C44.2236 142.863 50.4297 145.261 58.1711 145.261V143.261C50.8726 143.261 45.2387 141.018 41.143 136.619L39.6792 137.982ZM58.1711 145.261H84.8111V143.261H58.1711V145.261ZM84.8111 145.261C91.9801 145.261 97.8726 143.795 102.406 140.773L101.296 139.109C97.1897 141.846 91.7222 143.261 84.8111 143.261V145.261ZM102.413 140.768C107.137 137.562 109.571 133.266 109.571 127.941H107.571C107.571 132.535 105.525 136.239 101.29 139.113L102.413 140.768ZM109.571 127.941V119.781H107.571V127.941H109.571ZM109.571 119.781C109.571 115.58 108.012 112.116 104.898 109.478C101.824 106.874 97.3042 105.129 91.4555 104.154L91.1267 106.127C96.7981 107.072 100.918 108.727 103.605 111.004C106.251 113.245 107.571 116.142 107.571 119.781H109.571ZM91.4573 104.154L47.2973 96.7145L46.965 98.6867L91.125 106.127L91.4573 104.154ZM47.2955 96.7142C33.0032 94.3322 22.2465 89.8243 14.9175 83.2749L13.5848 84.7663C21.2957 91.6569 32.4591 96.2691 46.9667 98.687L47.2955 96.7142ZM14.934 83.2901C7.78702 76.6092 4.21113 68.1587 4.21113 57.8606H2.21113C2.21113 68.6825 5.99525 77.672 13.5683 84.7511L14.934 83.2901ZM4.21113 57.8606V44.4206H2.21113V57.8606H4.21113ZM4.21113 44.4206C4.21113 36.1273 6.39817 28.8915 10.7504 22.6741L9.1119 21.5271C4.5041 28.1097 2.21113 35.7539 2.21113 44.4206H4.21113ZM10.7476 22.6781C15.2671 16.2884 21.5903 11.3583 29.7608 7.90156L28.9815 6.05962C20.5119 9.64291 13.8752 14.7928 9.11472 21.5231L10.7476 22.6781ZM29.7545 7.90418C38.0911 4.44374 47.7167 2.70061 58.6511 2.70061V0.700607C47.5056 0.700607 37.6112 2.47746 28.9878 6.057L29.7545 7.90418ZM58.6511 2.70061H85.7711V0.700607H58.6511V2.70061ZM85.7711 2.70061C96.0294 2.70061 105.062 4.83004 112.896 9.0605L113.846 7.30069C105.68 2.89116 96.3129 0.700607 85.7711 0.700607V2.70061ZM112.896 9.0605C120.73 13.2908 126.749 19.2341 130.975 26.9032L132.727 25.938C128.313 17.9271 122.012 11.7104 113.846 7.30069L112.896 9.0605ZM130.987 26.9245C135.365 34.4296 137.571 43.2104 137.571 53.3006H139.571C139.571 42.9108 137.297 33.7716 132.715 25.9167L130.987 26.9245ZM138.571 52.3006H105.931V54.3006H138.571V52.3006ZM106.931 53.3006C106.931 46.3918 105.035 40.7692 101.147 36.5435L99.6752 37.8977C103.148 41.672 104.931 46.7694 104.931 53.3006H106.931ZM101.16 36.558C97.271 32.1617 92.1072 29.9806 85.7711 29.9806V31.9806C91.5951 31.9806 96.1912 33.9595 99.6621 37.8832L101.16 36.558ZM85.7711 29.9806H58.6511V31.9806H85.7711V29.9806ZM58.6511 29.9806C51.7935 29.9806 46.1361 31.4501 41.7619 34.4784L42.9003 36.1228C46.8461 33.3911 52.0688 31.9806 58.6511 31.9806V29.9806ZM41.7468 34.4891C37.4941 37.551 35.3311 41.6889 35.3311 46.8206H37.3311C37.3311 42.3523 39.1681 38.8102 42.9154 36.1121L41.7468 34.4891ZM35.3311 46.8206V53.3006H37.3311V46.8206H35.3311ZM35.3311 53.3006C35.3311 57.5595 36.8139 61.0788 39.8028 63.7644C42.7565 66.4185 47.1025 68.1889 52.7198 69.1658L53.0625 67.1954C47.6397 66.2523 43.7057 64.5826 41.1395 62.2768C38.6084 60.0025 37.3311 57.0417 37.3311 53.3006H35.3311ZM52.7189 69.1656L96.6389 76.8457L96.9834 74.8755L53.0634 67.1955L52.7189 69.1656ZM96.638 76.8455C111.098 79.388 122.026 83.8987 129.522 90.301L130.821 88.7802C122.956 82.0625 111.644 77.4532 96.9843 74.8757L96.638 76.8455ZM129.531 90.3088C136.977 96.5136 140.691 104.549 140.691 114.501H142.691C142.691 103.972 138.726 95.3676 130.811 88.7724L129.531 90.3088ZM140.691 114.501V130.341H142.691V114.501H140.691ZM140.691 130.341C140.691 138.618 138.353 145.929 133.684 152.31L135.298 153.491C140.229 146.752 142.691 139.023 142.691 130.341H140.691ZM133.675 152.323C129.156 158.712 122.751 163.725 114.413 167.343L115.209 169.178C123.831 165.436 130.547 160.209 135.308 153.478L133.675 152.323ZM114.428 167.337C106.093 170.797 96.3877 172.541 85.2911 172.541V174.541C96.5946 174.541 106.569 172.764 115.195 169.184L114.428 167.337ZM85.2911 172.541H57.6911V174.541H85.2911V172.541ZM192.151 166.101L191.655 166.969L191.667 166.975L192.151 166.101ZM171.271 144.741L170.393 145.218L171.271 144.741ZM163.831 3.62059V2.62059H162.831V3.62059H163.831ZM196.951 3.62059H197.951V2.62059H196.951V3.62059ZM204.151 135.381L203.374 136.01L203.379 136.017L203.385 136.023L204.151 135.381ZM268.231 135.381L267.465 134.738L268.231 135.381ZM275.671 3.62059V2.62059H274.671V3.62059H275.671ZM308.791 3.62059H309.791V2.62059H308.791V3.62059ZM301.351 144.741L302.23 145.218L301.351 144.741ZM280.231 166.101L280.709 166.979L280.721 166.973L280.231 166.101ZM223.351 172.541C211.654 172.541 201.426 170.092 192.635 165.226L191.667 166.975C200.797 172.03 211.368 174.541 223.351 174.541V172.541ZM192.647 165.232C183.85 160.205 177.021 153.221 172.15 144.263L170.393 145.218C175.441 154.5 182.533 161.756 191.655 166.969L192.647 165.232ZM172.15 144.263C167.281 135.311 164.831 124.92 164.831 113.061H162.831C162.831 125.201 165.341 135.93 170.393 145.218L172.15 144.263ZM164.831 113.061V3.62059H162.831V113.061H164.831ZM163.831 4.62059H196.951V2.62059H163.831V4.62059ZM195.951 3.62059V112.101H197.951V3.62059H195.951ZM195.951 112.101C195.951 121.869 198.396 129.87 203.374 136.01L204.928 134.751C200.306 129.051 197.951 121.532 197.951 112.101H195.951ZM203.385 136.023C208.538 142.174 215.22 145.261 223.351 145.261V143.261C215.802 143.261 209.684 140.428 204.918 134.738L203.385 136.023ZM223.351 145.261H248.791V143.261H223.351V145.261ZM248.791 145.261C257.075 145.261 263.84 142.179 268.998 136.023L267.465 134.738C262.702 140.422 256.507 143.261 248.791 143.261V145.261ZM268.998 136.023C274.142 129.882 276.671 121.877 276.671 112.101H274.671C274.671 121.525 272.24 129.039 267.465 134.738L268.998 136.023ZM276.671 112.101V3.62059H274.671V112.101H276.671ZM275.671 4.62059H308.791V2.62059H275.671V4.62059ZM307.791 3.62059V113.061H309.791V3.62059H307.791ZM307.791 113.061C307.791 124.92 305.341 135.311 300.473 144.263L302.23 145.218C307.281 135.93 309.791 125.201 309.791 113.061H307.791ZM300.473 144.263C295.603 153.216 288.699 160.2 279.742 165.229L280.721 166.973C290.004 161.761 297.179 154.505 302.23 145.218L300.473 144.263ZM279.753 165.222C270.799 170.092 260.488 172.541 248.791 172.541V174.541C260.774 174.541 271.423 172.029 280.709 166.979L279.753 165.222ZM248.791 172.541H223.351V174.541H248.791V172.541ZM337.526 3.62059V2.62059H336.526V3.62059H337.526ZM452.006 9.38059L451.551 10.2712L451.558 10.2751L451.566 10.2788L452.006 9.38059ZM469.526 25.4606L468.665 25.9694L468.67 25.978L469.526 25.4606ZM469.286 96.2606L470.138 96.7836L470.143 96.7751L469.286 96.2606ZM451.046 112.821L451.493 113.715L451.5 113.711L451.046 112.821ZM370.646 118.581V117.581H369.646V118.581H370.646ZM370.646 171.621V172.621H371.646V171.621H370.646ZM337.526 171.621H336.526V172.621H337.526V171.621ZM437.366 84.5006L438.073 85.2077L438.08 85.1999L438.088 85.1918L437.366 84.5006ZM437.846 37.4606L437.104 38.1315L437.121 38.15L437.138 38.1677L437.846 37.4606ZM370.646 32.4206V31.4206H369.646V32.4206H370.646ZM370.646 89.7806H369.646V90.7806H370.646V89.7806ZM337.526 4.62059H426.086V2.62059H337.526V4.62059ZM426.086 4.62059C435.712 4.62059 444.192 6.51356 451.551 10.2712L452.46 8.48998C444.779 4.56763 435.979 2.62059 426.086 2.62059V4.62059ZM451.566 10.2788C458.915 13.8751 464.606 19.1017 468.665 25.9693L470.386 24.9519C466.125 17.7395 460.136 12.2461 452.445 8.48238L451.566 10.2788ZM468.67 25.978C472.725 32.6845 474.766 40.4215 474.766 49.2206H476.766C476.766 40.0996 474.646 31.9967 470.381 24.9432L468.67 25.978ZM474.766 49.2206V71.5406H476.766V49.2206H474.766ZM474.766 71.5406C474.766 80.659 472.645 88.7175 468.428 95.7461L470.143 96.7751C474.566 89.4037 476.766 80.9822 476.766 71.5406H474.766ZM468.433 95.7376C464.216 102.61 458.278 108.008 450.591 111.93L451.5 113.711C459.493 109.633 465.715 103.991 470.138 96.7836L468.433 95.7376ZM450.598 111.926C443.081 115.685 434.28 117.581 424.165 117.581V119.581C434.531 119.581 443.65 117.637 451.493 113.715L450.598 111.926ZM424.165 117.581H370.646V119.581H424.165V117.581ZM369.646 118.581V171.621H371.646V118.581H369.646ZM370.646 170.621H337.526V172.621H370.646V170.621ZM338.526 171.621V3.62059H336.526V171.621H338.526ZM423.686 90.7806C429.515 90.7806 434.341 88.9394 438.073 85.2077L436.658 83.7935C433.35 87.1018 429.056 88.7806 423.686 88.7806V90.7806ZM438.088 85.1918C441.815 81.2956 443.646 76.2332 443.646 70.1006H441.646C441.646 75.808 439.956 80.3456 436.643 83.8094L438.088 85.1918ZM443.646 70.1006V50.6606H441.646V70.1006H443.646ZM443.646 50.6606C443.646 44.8621 441.983 40.1835 438.553 36.7535L437.138 38.1677C440.108 41.1377 441.646 45.2591 441.646 50.6606H443.646ZM438.587 36.7897C435.332 33.1918 430.967 31.4206 425.605 31.4206V33.4206C430.484 33.4206 434.279 35.0094 437.104 38.1315L438.587 36.7897ZM425.605 31.4206H370.646V33.4206H425.605V31.4206ZM369.646 32.4206V89.7806H371.646V32.4206H369.646ZM370.646 90.7806H423.686V88.7806H370.646V90.7806ZM494.088 3.62059V2.62059H493.088V3.62059H494.088ZM608.568 9.38059L608.113 10.2712L608.121 10.2751L608.128 10.2788L608.568 9.38059ZM626.088 25.4606L625.227 25.9694L625.232 25.978L626.088 25.4606ZM625.848 96.2606L626.7 96.7836L626.706 96.7751L625.848 96.2606ZM607.608 112.821L608.055 113.715L608.062 113.711L607.608 112.821ZM527.208 118.581V117.581H526.208V118.581H527.208ZM527.208 171.621V172.621H528.208V171.621H527.208ZM494.088 171.621H493.088V172.621H494.088V171.621ZM593.928 84.5006L594.635 85.2077L594.643 85.1999L594.651 85.1918L593.928 84.5006ZM594.408 37.4606L593.667 38.1315L593.683 38.15L593.701 38.1677L594.408 37.4606ZM527.208 32.4206V31.4206H526.208V32.4206H527.208ZM527.208 89.7806H526.208V90.7806H527.208V89.7806ZM494.088 4.62059H582.648V2.62059H494.088V4.62059ZM582.648 4.62059C592.275 4.62059 600.755 6.51356 608.113 10.2712L609.023 8.48998C601.341 4.56763 592.541 2.62059 582.648 2.62059V4.62059ZM608.128 10.2788C615.477 13.8751 621.169 19.1017 625.227 25.9693L626.949 24.9519C622.687 17.7395 616.699 12.2461 609.008 8.48238L608.128 10.2788ZM625.232 25.978C629.287 32.6845 631.328 40.4215 631.328 49.2206H633.328C633.328 40.0996 631.209 31.9967 626.944 24.9432L625.232 25.978ZM631.328 49.2206V71.5406H633.328V49.2206H631.328ZM631.328 71.5406C631.328 80.659 629.208 88.7175 624.991 95.7461L626.706 96.7751C631.128 89.4037 633.328 80.9822 633.328 71.5406H631.328ZM624.996 95.7376C620.778 102.61 614.841 108.008 607.154 111.93L608.062 113.711C616.055 109.633 622.278 103.991 626.7 96.7836L624.996 95.7376ZM607.161 111.926C599.644 115.685 590.842 117.581 580.728 117.581V119.581C591.094 119.581 600.212 117.637 608.055 113.715L607.161 111.926ZM580.728 117.581H527.208V119.581H580.728V117.581ZM526.208 118.581V171.621H528.208V118.581H526.208ZM527.208 170.621H494.088V172.621H527.208V170.621ZM495.088 171.621V3.62059H493.088V171.621H495.088ZM580.248 90.7806C586.077 90.7806 590.903 88.9394 594.635 85.2077L593.221 83.7935C589.913 87.1018 585.619 88.7806 580.248 88.7806V90.7806ZM594.651 85.1918C598.377 81.2956 600.208 76.2332 600.208 70.1006H598.208C598.208 75.808 596.519 80.3456 593.205 83.8094L594.651 85.1918ZM600.208 70.1006V50.6606H598.208V70.1006H600.208ZM600.208 50.6606C600.208 44.8621 598.545 40.1835 595.115 36.7535L593.701 38.1677C596.671 41.1377 598.208 45.2591 598.208 50.6606H600.208ZM595.15 36.7897C591.894 33.1918 587.53 31.4206 582.168 31.4206V33.4206C587.046 33.4206 590.842 35.0094 593.667 38.1315L595.15 36.7897ZM582.168 31.4206H527.208V33.4206H582.168V31.4206ZM526.208 32.4206V89.7806H528.208V32.4206H526.208ZM527.208 90.7806H580.248V88.7806H527.208V90.7806ZM656.891 165.621L656.183 166.328L656.197 166.341L656.211 166.354L656.891 165.621ZM650.651 3.62059V2.62059H649.651V3.62059H650.651ZM683.771 3.62059H684.771V2.62059H683.771V3.62059ZM683.771 142.821H682.771V143.821H683.771V142.821ZM774.971 142.821H775.971V141.821H774.971V142.821ZM774.971 171.621V172.621H775.971V171.621H774.971ZM673.93 170.621C667.09 170.621 661.67 168.683 657.57 164.887L656.211 166.354C660.751 170.558 666.691 172.621 673.93 172.621V170.621ZM657.598 164.913C653.652 160.968 651.651 155.796 651.651 149.301H649.651C649.651 156.245 651.809 161.953 656.183 166.328L657.598 164.913ZM651.651 149.301V3.62059H649.651V149.301H651.651ZM650.651 4.62059H683.771V2.62059H650.651V4.62059ZM682.771 3.62059V142.821H684.771V3.62059H682.771ZM683.771 143.821H774.971V141.821H683.771V143.821ZM773.971 142.821V171.621H775.971V142.821H773.971ZM774.971 170.621H673.93V172.621H774.971V170.621ZM815.576 106.341H816.576V106.062L816.431 105.823L815.576 106.341ZM753.416 3.62059V2.62059H751.642L752.56 4.13832L753.416 3.62059ZM789.416 3.62059L790.276 3.11157L789.986 2.62059H789.416V3.62059ZM832.135 75.8606L831.275 76.3696L832.135 77.8252L832.996 76.3696L832.135 75.8606ZM874.856 3.62059V2.62059H874.285L873.995 3.11157L874.856 3.62059ZM910.856 3.62059L911.711 4.13832L912.63 2.62059H910.856V3.62059ZM848.695 106.341L847.84 105.823L847.695 106.062V106.341H848.695ZM848.695 171.621V172.621H849.695V171.621H848.695ZM815.576 171.621H814.576V172.621H815.576V171.621ZM816.431 105.823L754.271 3.10287L752.56 4.13832L814.72 106.858L816.431 105.823ZM753.416 4.62059H789.416V2.62059H753.416V4.62059ZM788.555 4.12962L831.275 76.3696L832.996 75.3516L790.276 3.11157L788.555 4.12962ZM832.996 76.3696L875.716 4.12962L873.995 3.11157L831.275 75.3516L832.996 76.3696ZM874.856 4.62059H910.856V2.62059H874.856V4.62059ZM910 3.10287L847.84 105.823L849.551 106.858L911.711 4.13832L910 3.10287ZM847.695 106.341V171.621H849.695V106.341H847.695ZM848.695 170.621H815.576V172.621H848.695V170.621ZM816.576 171.621V106.341H814.576V171.621H816.576Z" fill="url(#paint0_linear_868_139)" mask="url(#path-1-outside-1_868_139)"/>
<defs>
<linearGradient id="paint0_linear_868_139" x1="-7.58887" y1="81.6206" x2="911.411" y2="81.6206" gradientUnits="userSpaceOnUse">
<stop stop-color="#F469E2"/>
<stop offset="1" stop-color="#30C2E2" stop-opacity="0.6"/>
</linearGradient>
</defs>
</svg>
