<svg width="911" height="173" viewBox="0 0 911 173" fill="none" xmlns="http://www.w3.org/2000/svg">
<mask id="path-1-outside-1_868_139" maskUnits="userSpaceOnUse" x="-0.378906" y="-0.379395" width="913" height="174" fill="black">
<rect fill="white" x="-0.378906" y="-0.379395" width="913" height="174"/>
<path d="M56.9011 172.541C39.3011 172.541 25.5411 167.661 15.6211 157.901C5.70109 147.981 0.741094 134.221 0.741094 116.621H33.3811C33.3811 124.941 35.4611 131.501 39.6211 136.301C43.9411 140.941 49.8611 143.261 57.3811 143.261H84.0211C91.0611 143.261 96.7411 141.821 101.061 138.941C105.541 135.901 107.781 131.901 107.781 126.941V118.781C107.781 110.941 102.021 106.061 90.5011 104.141L46.3411 96.7006C31.9411 94.3006 20.9811 89.7406 13.4611 83.0206C6.10109 76.1406 2.42109 67.4206 2.42109 56.8606V43.4206C2.42109 34.9406 4.66109 27.5006 9.1411 21.1006C13.7811 14.5406 20.2611 9.5006 28.5811 5.98059C37.0611 2.4606 46.8211 0.700604 57.8611 0.700604H84.9811C95.3811 0.700604 104.581 2.8606 112.581 7.18059C120.581 11.5006 126.741 17.5806 131.061 25.4206C135.541 33.1006 137.781 42.0606 137.781 52.3006H105.141C105.141 45.5806 103.301 40.2206 99.6211 36.2206C95.9411 32.0606 91.0611 29.9806 84.9811 29.9806H57.8611C51.1411 29.9806 45.7011 31.4206 41.5411 34.3006C37.5411 37.1806 35.5411 41.0206 35.5411 45.8206V52.3006C35.5411 60.3006 41.0611 65.2606 52.1011 67.1806L96.0211 74.8606C110.581 77.4206 121.701 81.9806 129.381 88.5406C137.061 94.9406 140.901 103.261 140.901 113.501V129.341C140.901 137.821 138.501 145.341 133.701 151.901C129.061 158.461 122.501 163.581 114.021 167.261C105.541 170.781 95.7011 172.541 84.5011 172.541H56.9011ZM222.561 172.541C210.721 172.541 200.321 170.061 191.361 165.101C182.401 159.981 175.441 152.861 170.481 143.741C165.521 134.621 163.041 124.061 163.041 112.061V2.62059H196.161V111.101C196.161 120.701 198.561 128.461 203.361 134.381C208.321 140.301 214.721 143.261 222.561 143.261H248.001C256.001 143.261 262.481 140.301 267.441 134.381C272.401 128.461 274.881 120.701 274.881 111.101V2.62059H308.001V112.061C308.001 124.061 305.521 134.621 300.561 143.741C295.601 152.861 288.561 159.981 279.441 165.101C270.321 170.061 259.841 172.541 248.001 172.541H222.561ZM336.735 2.62059H425.295C435.055 2.62059 443.695 4.54059 451.215 8.38059C458.735 12.0606 464.575 17.4206 468.735 24.4606C472.895 31.3406 474.975 39.2606 474.975 48.2206V70.5406C474.975 79.8206 472.815 88.0606 468.495 95.2606C464.175 102.301 458.095 107.821 450.255 111.821C442.575 115.661 433.615 117.581 423.375 117.581H369.855V170.621H336.735V2.62059ZM422.895 88.7806C428.495 88.7806 433.055 87.0206 436.575 83.5006C440.095 79.8206 441.855 75.0206 441.855 69.1006V49.6606C441.855 44.0606 440.255 39.6606 437.055 36.4606C434.015 33.1006 429.935 31.4206 424.815 31.4206H369.855V88.7806H422.895ZM493.298 2.62059H581.858C591.618 2.62059 600.258 4.54059 607.778 8.38059C615.298 12.0606 621.138 17.4206 625.298 24.4606C629.458 31.3406 631.538 39.2606 631.538 48.2206V70.5406C631.538 79.8206 629.378 88.0606 625.058 95.2606C620.738 102.301 614.658 107.821 606.818 111.821C599.138 115.661 590.178 117.581 579.938 117.581H526.418V170.621H493.298V2.62059ZM579.458 88.7806C585.058 88.7806 589.618 87.0206 593.138 83.5006C596.658 79.8206 598.418 75.0206 598.418 69.1006V49.6606C598.418 44.0606 596.818 39.6606 593.618 36.4606C590.578 33.1006 586.498 31.4206 581.378 31.4206H526.418V88.7806H579.458ZM673.14 170.621C666.1 170.621 660.42 168.621 656.1 164.621C651.94 160.461 649.86 155.021 649.86 148.301V2.62059H682.98V141.821H774.18V170.621H673.14ZM814.785 105.341L752.625 2.62059H788.625L831.345 74.8606L874.065 2.62059H910.065L847.905 105.341V170.621H814.785V105.341Z"/>
</mask>
<path d="M15.6211 157.901L14.914 158.608L14.9198 158.613L15.6211 157.901ZM0.741094 116.621V115.621H-0.258906V116.621H0.741094ZM33.3811 116.621H34.3811V115.621H33.3811V116.621ZM39.6211 136.301L38.8654 136.956L38.8771 136.969L38.8892 136.982L39.6211 136.301ZM101.061 138.941L101.616 139.773L101.623 139.768L101.061 138.941ZM90.5011 104.141L90.335 105.127L90.3367 105.127L90.5011 104.141ZM46.3411 96.7006L46.5072 95.7145L46.5055 95.7142L46.3411 96.7006ZM13.4611 83.0206L12.7782 83.7511L12.7864 83.7588L12.7948 83.7663L13.4611 83.0206ZM9.1411 21.1006L8.32467 20.5231L8.32186 20.5271L9.1411 21.1006ZM28.5811 5.98059L28.1977 5.05698L28.1915 5.05963L28.5811 5.98059ZM112.581 7.18059L113.056 6.30069L113.056 6.30069L112.581 7.18059ZM131.061 25.4206L130.185 25.9032L130.191 25.9139L130.197 25.9245L131.061 25.4206ZM137.781 52.3006V53.3006H138.781V52.3006H137.781ZM105.141 52.3006H104.141V53.3006H105.141V52.3006ZM99.6211 36.2206L98.8721 36.8832L98.8786 36.8905L98.8852 36.8977L99.6211 36.2206ZM41.5411 34.3006L40.9719 33.4784L40.9643 33.4837L40.9568 33.4891L41.5411 34.3006ZM52.1011 67.1806L52.2733 66.1955L52.2724 66.1954L52.1011 67.1806ZM96.0211 74.8606L96.1943 73.8757L96.1934 73.8755L96.0211 74.8606ZM129.381 88.5406L128.732 89.301L128.741 89.3088L129.381 88.5406ZM133.701 151.901L132.894 151.31L132.889 151.317L132.885 151.323L133.701 151.901ZM114.021 167.261L114.404 168.184L114.412 168.181L114.419 168.178L114.021 167.261ZM56.9011 171.541C39.4906 171.541 26.0092 166.718 16.3224 157.188L14.9198 158.613C25.073 168.603 39.1116 173.541 56.9011 173.541V171.541ZM16.3282 157.193C6.64072 147.506 1.74109 134.027 1.74109 116.621H-0.258906C-0.258906 134.415 4.76147 148.455 14.914 158.608L16.3282 157.193ZM0.741094 117.621H33.3811V115.621H0.741094V117.621ZM32.3811 116.621C32.3811 125.105 34.5044 131.924 38.8654 136.956L40.3768 135.646C36.4178 131.078 34.3811 124.776 34.3811 116.621H32.3811ZM38.8892 136.982C43.4335 141.863 49.6396 144.261 57.3811 144.261V142.261C50.0825 142.261 44.4487 140.018 40.353 135.619L38.8892 136.982ZM57.3811 144.261H84.0211V142.261H57.3811V144.261ZM84.0211 144.261C91.1901 144.261 97.0826 142.795 101.616 139.773L100.506 138.109C96.3996 140.846 90.9321 142.261 84.0211 142.261V144.261ZM101.623 139.768C106.347 136.562 108.781 132.266 108.781 126.941H106.781C106.781 131.535 104.735 135.239 100.5 138.113L101.623 139.768ZM108.781 126.941V118.781H106.781V126.941H108.781ZM108.781 118.781C108.781 114.58 107.222 111.116 104.108 108.478C101.034 105.874 96.5141 104.129 90.6655 103.154L90.3367 105.127C96.0081 106.072 100.128 107.727 102.815 110.004C105.461 112.245 106.781 115.142 106.781 118.781H108.781ZM90.6672 103.155L46.5072 95.7145L46.175 97.6867L90.335 105.127L90.6672 103.155ZM46.5055 95.7142C32.2131 93.3321 21.4565 88.8243 14.1274 82.2749L12.7948 83.7663C20.5057 90.6569 31.6691 95.2691 46.1767 97.687L46.5055 95.7142ZM14.144 82.2901C6.99698 75.6092 3.42109 67.1587 3.42109 56.8606H1.42109C1.42109 67.6825 5.20521 76.672 12.7782 83.7511L14.144 82.2901ZM3.42109 56.8606V43.4206H1.42109V56.8606H3.42109ZM3.42109 43.4206C3.42109 35.1273 5.60813 27.8915 9.96033 21.6741L8.32186 20.5271C3.71406 27.1097 1.42109 34.7539 1.42109 43.4206H3.42109ZM9.95751 21.6781C14.4771 15.2884 20.8003 10.3583 28.9707 6.90156L28.1915 5.05963C19.7219 8.6429 13.0851 13.7928 8.32468 20.5231L9.95751 21.6781ZM28.9645 6.90419C37.301 3.44374 46.9266 1.7006 57.8611 1.7006V-0.299396C46.7156 -0.299396 36.8212 1.47746 28.1977 5.057L28.9645 6.90419ZM57.8611 1.7006H84.9811V-0.299396H57.8611V1.7006ZM84.9811 1.7006C95.2393 1.7006 104.272 3.83004 112.106 8.0605L113.056 6.30069C104.89 1.89116 95.5229 -0.299396 84.9811 -0.299396V1.7006ZM112.106 8.0605C119.94 12.2908 125.959 18.2341 130.185 25.9032L131.937 24.938C127.523 16.9271 121.222 10.7104 113.056 6.30069L112.106 8.0605ZM130.197 25.9245C134.575 33.4296 136.781 42.2104 136.781 52.3006H138.781C138.781 41.9108 136.507 32.7716 131.925 24.9167L130.197 25.9245ZM137.781 51.3006H105.141V53.3006H137.781V51.3006ZM106.141 52.3006C106.141 45.3918 104.245 39.7692 100.357 35.5435L98.8852 36.8977C102.358 40.672 104.141 45.7694 104.141 52.3006H106.141ZM100.37 35.558C96.481 31.1617 91.3171 28.9806 84.9811 28.9806V30.9806C90.8051 30.9806 95.4012 32.9595 98.8721 36.8832L100.37 35.558ZM84.9811 28.9806H57.8611V30.9806H84.9811V28.9806ZM57.8611 28.9806C51.0035 28.9806 45.3461 30.4501 40.9719 33.4784L42.1103 35.1228C46.0561 32.3911 51.2787 30.9806 57.8611 30.9806V28.9806ZM40.9568 33.4891C36.7041 36.551 34.5411 40.6889 34.5411 45.8206H36.5411C36.5411 41.3523 38.3781 37.8102 42.1254 35.1121L40.9568 33.4891ZM34.5411 45.8206V52.3006H36.5411V45.8206H34.5411ZM34.5411 52.3006C34.5411 56.5595 36.0238 60.0787 39.0127 62.7644C41.9665 65.4186 46.3125 67.1889 51.9298 68.1658L52.2724 66.1954C46.8497 65.2523 42.9157 63.5826 40.3495 61.2768C37.8184 59.0025 36.5411 56.0417 36.5411 52.3006H34.5411ZM51.9288 68.1657L95.8489 75.8457L96.1934 73.8755L52.2733 66.1955L51.9288 68.1657ZM95.8479 75.8455C110.308 78.388 121.236 82.8987 128.732 89.301L130.031 87.7802C122.166 81.0625 110.854 76.4532 96.1943 73.8757L95.8479 75.8455ZM128.741 89.3088C136.187 95.5136 139.901 103.549 139.901 113.501H141.901C141.901 102.972 137.936 94.3676 130.021 87.7724L128.741 89.3088ZM139.901 113.501V129.341H141.901V113.501H139.901ZM139.901 129.341C139.901 137.618 137.563 144.929 132.894 151.31L134.508 152.491C139.439 145.752 141.901 138.023 141.901 129.341H139.901ZM132.885 151.323C128.365 157.712 121.961 162.725 113.623 166.343L114.419 168.178C123.041 164.436 129.757 159.209 134.518 152.478L132.885 151.323ZM113.638 166.337C105.303 169.797 95.5977 171.541 84.5011 171.541V173.541C95.8045 173.541 105.779 171.764 114.404 168.184L113.638 166.337ZM84.5011 171.541H56.9011V173.541H84.5011V171.541ZM191.361 165.101L190.865 165.969L190.877 165.975L191.361 165.101ZM170.481 143.741L169.603 144.218L169.603 144.218L170.481 143.741ZM163.041 2.62059V1.62059H162.041V2.62059H163.041ZM196.161 2.62059H197.161V1.62059H196.161V2.62059ZM203.361 134.381L202.584 135.01L202.589 135.017L202.595 135.023L203.361 134.381ZM267.441 134.381L266.675 133.738L267.441 134.381ZM274.881 2.62059V1.62059H273.881V2.62059H274.881ZM308.001 2.62059H309.001V1.62059H308.001V2.62059ZM300.561 143.741L301.44 144.218L301.44 144.218L300.561 143.741ZM279.441 165.101L279.919 165.979L279.931 165.973L279.441 165.101ZM222.561 171.541C210.864 171.541 200.635 169.092 191.845 164.226L190.877 165.975C200.007 171.03 210.578 173.541 222.561 173.541V171.541ZM191.857 164.232C183.059 159.205 176.231 152.221 171.36 143.263L169.603 144.218C174.651 153.5 181.743 160.756 190.865 165.969L191.857 164.232ZM171.36 143.263C166.491 134.311 164.041 123.92 164.041 112.061H162.041C162.041 124.201 164.551 134.93 169.603 144.218L171.36 143.263ZM164.041 112.061V2.62059H162.041V112.061H164.041ZM163.041 3.62059H196.161V1.62059H163.041V3.62059ZM195.161 2.62059V111.101H197.161V2.62059H195.161ZM195.161 111.101C195.161 120.869 197.606 128.87 202.584 135.01L204.138 133.751C199.516 128.051 197.161 120.532 197.161 111.101H195.161ZM202.595 135.023C207.748 141.174 214.43 144.261 222.561 144.261V142.261C215.012 142.261 208.894 139.428 204.128 133.738L202.595 135.023ZM222.561 144.261H248.001V142.261H222.561V144.261ZM248.001 144.261C256.285 144.261 263.05 141.179 268.208 135.023L266.675 133.738C261.912 139.422 255.717 142.261 248.001 142.261V144.261ZM268.208 135.023C273.352 128.882 275.881 120.877 275.881 111.101H273.881C273.881 120.525 271.45 128.039 266.675 133.738L268.208 135.023ZM275.881 111.101V2.62059H273.881V111.101H275.881ZM274.881 3.62059H308.001V1.62059H274.881V3.62059ZM307.001 2.62059V112.061H309.001V2.62059H307.001ZM307.001 112.061C307.001 123.92 304.551 134.311 299.683 143.263L301.44 144.218C306.491 134.93 309.001 124.201 309.001 112.061H307.001ZM299.683 143.263C294.813 152.216 287.909 159.2 278.952 164.229L279.931 165.973C289.214 160.761 296.389 153.505 301.44 144.218L299.683 143.263ZM278.963 164.222C270.009 169.092 259.698 171.541 248.001 171.541V173.541C259.984 173.541 270.633 171.029 279.919 165.979L278.963 164.222ZM248.001 171.541H222.561V173.541H248.001V171.541ZM336.735 2.62059V1.62059H335.735V2.62059H336.735ZM451.215 8.38059L450.761 9.2712L450.768 9.27507L450.776 9.27881L451.215 8.38059ZM468.735 24.4606L467.875 24.9694L467.88 24.978L468.735 24.4606ZM468.495 95.2606L469.348 95.7836L469.353 95.7751L468.495 95.2606ZM450.255 111.821L450.703 112.715L450.71 112.711L450.255 111.821ZM369.855 117.581V116.581H368.855V117.581H369.855ZM369.855 170.621V171.621H370.855V170.621H369.855ZM336.735 170.621H335.735V171.621H336.735V170.621ZM436.575 83.5006L437.283 84.2077L437.29 84.1999L437.298 84.1918L436.575 83.5006ZM437.055 36.4606L436.314 37.1315L436.331 37.15L436.348 37.1677L437.055 36.4606ZM369.855 31.4206V30.4206H368.855V31.4206H369.855ZM369.855 88.7806H368.855V89.7806H369.855V88.7806ZM336.735 3.62059H425.295V1.62059H336.735V3.62059ZM425.295 3.62059C434.922 3.62059 443.402 5.51356 450.761 9.2712L451.67 7.48999C443.989 3.56763 435.189 1.62059 425.295 1.62059V3.62059ZM450.776 9.27881C458.125 12.8751 463.816 18.1017 467.875 24.9693L469.596 23.9519C465.335 16.7395 459.346 11.2461 451.655 7.48237L450.776 9.27881ZM467.88 24.978C471.935 31.6845 473.975 39.4215 473.975 48.2206H475.975C475.975 39.0996 473.856 30.9967 469.591 23.9432L467.88 24.978ZM473.975 48.2206V70.5406H475.975V48.2206H473.975ZM473.975 70.5406C473.975 79.659 471.855 87.7175 467.638 94.7461L469.353 95.7751C473.776 88.4037 475.975 79.9822 475.975 70.5406H473.975ZM467.643 94.7376C463.426 101.61 457.488 107.008 449.801 110.93L450.71 112.711C458.703 108.633 464.925 102.991 469.348 95.7836L467.643 94.7376ZM449.808 110.926C442.291 114.685 433.49 116.581 423.375 116.581V118.581C433.741 118.581 442.86 116.637 450.703 112.715L449.808 110.926ZM423.375 116.581H369.855V118.581H423.375V116.581ZM368.855 117.581V170.621H370.855V117.581H368.855ZM369.855 169.621H336.735V171.621H369.855V169.621ZM337.735 170.621V2.62059H335.735V170.621H337.735ZM422.895 89.7806C428.725 89.7806 433.551 87.9394 437.283 84.2077L435.868 82.7935C432.56 86.1018 428.266 87.7806 422.895 87.7806V89.7806ZM437.298 84.1918C441.025 80.2956 442.855 75.2332 442.855 69.1006H440.855C440.855 74.808 439.166 79.3456 435.853 82.8094L437.298 84.1918ZM442.855 69.1006V49.6606H440.855V69.1006H442.855ZM442.855 49.6606C442.855 43.8621 441.193 39.1835 437.763 35.7535L436.348 37.1677C439.318 40.1377 440.855 44.2591 440.855 49.6606H442.855ZM437.797 35.7897C434.542 32.1918 430.177 30.4206 424.815 30.4206V32.4206C429.694 32.4206 433.489 34.0094 436.314 37.1315L437.797 35.7897ZM424.815 30.4206H369.855V32.4206H424.815V30.4206ZM368.855 31.4206V88.7806H370.855V31.4206H368.855ZM369.855 89.7806H422.895V87.7806H369.855V89.7806ZM493.298 2.62059V1.62059H492.298V2.62059H493.298ZM607.778 8.38059L607.323 9.2712L607.331 9.27507L607.338 9.27881L607.778 8.38059ZM625.298 24.4606L624.437 24.9694L624.442 24.978L625.298 24.4606ZM625.058 95.2606L625.91 95.7836L625.915 95.7751L625.058 95.2606ZM606.818 111.821L607.265 112.715L607.272 112.711L606.818 111.821ZM526.418 117.581V116.581H525.418V117.581H526.418ZM526.418 170.621V171.621H527.418V170.621H526.418ZM493.298 170.621H492.298V171.621H493.298V170.621ZM593.138 83.5006L593.845 84.2077L593.853 84.1999L593.861 84.1918L593.138 83.5006ZM593.618 36.4606L592.876 37.1315L592.893 37.15L592.911 37.1677L593.618 36.4606ZM526.418 31.4206V30.4206H525.418V31.4206H526.418ZM526.418 88.7806H525.418V89.7806H526.418V88.7806ZM493.298 3.62059H581.858V1.62059H493.298V3.62059ZM581.858 3.62059C591.485 3.62059 599.964 5.51356 607.323 9.2712L608.233 7.48999C600.551 3.56763 591.751 1.62059 581.858 1.62059V3.62059ZM607.338 9.27881C614.687 12.8751 620.379 18.1017 624.437 24.9693L626.159 23.9519C621.897 16.7395 615.909 11.2461 608.218 7.48237L607.338 9.27881ZM624.442 24.978C628.497 31.6845 630.538 39.4215 630.538 48.2206H632.538C632.538 39.0996 630.419 30.9967 626.154 23.9432L624.442 24.978ZM630.538 48.2206V70.5406H632.538V48.2206H630.538ZM630.538 70.5406C630.538 79.659 628.418 87.7175 624.2 94.7461L625.915 95.7751C630.338 88.4037 632.538 79.9822 632.538 70.5406H630.538ZM624.206 94.7376C619.988 101.61 614.051 107.008 606.364 110.93L607.272 112.711C615.265 108.633 621.488 102.991 625.91 95.7836L624.206 94.7376ZM606.371 110.926C598.854 114.685 590.052 116.581 579.938 116.581V118.581C590.304 118.581 599.422 116.637 607.265 112.715L606.371 110.926ZM579.938 116.581H526.418V118.581H579.938V116.581ZM525.418 117.581V170.621H527.418V117.581H525.418ZM526.418 169.621H493.298V171.621H526.418V169.621ZM494.298 170.621V2.62059H492.298V170.621H494.298ZM579.458 89.7806C585.287 89.7806 590.113 87.9394 593.845 84.2077L592.431 82.7935C589.123 86.1018 584.829 87.7806 579.458 87.7806V89.7806ZM593.861 84.1918C597.587 80.2956 599.418 75.2332 599.418 69.1006H597.418C597.418 74.808 595.729 79.3456 592.415 82.8094L593.861 84.1918ZM599.418 69.1006V49.6606H597.418V69.1006H599.418ZM599.418 49.6606C599.418 43.8621 597.755 39.1835 594.325 35.7535L592.911 37.1677C595.881 40.1377 597.418 44.2591 597.418 49.6606H599.418ZM594.36 35.7897C591.104 32.1918 586.74 30.4206 581.378 30.4206V32.4206C586.256 32.4206 590.052 34.0094 592.876 37.1315L594.36 35.7897ZM581.378 30.4206H526.418V32.4206H581.378V30.4206ZM525.418 31.4206V88.7806H527.418V31.4206H525.418ZM526.418 89.7806H579.458V87.7806H526.418V89.7806ZM656.1 164.621L655.393 165.328L655.407 165.341L655.421 165.354L656.1 164.621ZM649.86 2.62059V1.62059H648.86V2.62059H649.86ZM682.98 2.62059H683.98V1.62059H682.98V2.62059ZM682.98 141.821H681.98V142.821H682.98V141.821ZM774.18 141.821H775.18V140.821H774.18V141.821ZM774.18 170.621V171.621H775.18V170.621H774.18ZM673.14 169.621C666.3 169.621 660.88 167.683 656.78 163.887L655.421 165.354C659.961 169.558 665.901 171.621 673.14 171.621V169.621ZM656.808 163.913C652.862 159.968 650.86 154.796 650.86 148.301H648.86C648.86 155.245 651.019 160.953 655.393 165.328L656.808 163.913ZM650.86 148.301V2.62059H648.86V148.301H650.86ZM649.86 3.62059H682.98V1.62059H649.86V3.62059ZM681.98 2.62059V141.821H683.98V2.62059H681.98ZM682.98 142.821H774.18V140.821H682.98V142.821ZM773.18 141.821V170.621H775.18V141.821H773.18ZM774.18 169.621H673.14V171.621H774.18V169.621ZM814.785 105.341H815.785V105.062L815.641 104.823L814.785 105.341ZM752.625 2.62059V1.62059H750.851L751.77 3.13832L752.625 2.62059ZM788.625 2.62059L789.486 2.11158L789.196 1.62059H788.625V2.62059ZM831.345 74.8606L830.485 75.3696L831.345 76.8252L832.206 75.3696L831.345 74.8606ZM874.065 2.62059V1.62059H873.495L873.205 2.11158L874.065 2.62059ZM910.065 2.62059L910.921 3.13832L911.839 1.62059H910.065V2.62059ZM847.905 105.341L847.05 104.823L846.905 105.062V105.341H847.905ZM847.905 170.621V171.621H848.905V170.621H847.905ZM814.785 170.621H813.785V171.621H814.785V170.621ZM815.641 104.823L753.481 2.10287L751.77 3.13832L813.93 105.858L815.641 104.823ZM752.625 3.62059H788.625V1.62059H752.625V3.62059ZM787.765 3.12961L830.485 75.3696L832.206 74.3516L789.486 2.11158L787.765 3.12961ZM832.206 75.3696L874.926 3.12961L873.205 2.11158L830.485 74.3516L832.206 75.3696ZM874.065 3.62059H910.065V1.62059H874.065V3.62059ZM909.21 2.10287L847.05 104.823L848.761 105.858L910.921 3.13832L909.21 2.10287ZM846.905 105.341V170.621H848.905V105.341H846.905ZM847.905 169.621H814.785V171.621H847.905V169.621ZM815.785 170.621V105.341H813.785V170.621H815.785Z" fill="url(#paint0_linear_868_139)" mask="url(#path-1-outside-1_868_139)"/>
<defs>
<linearGradient id="paint0_linear_868_139" x1="-8.37891" y1="80.6206" x2="910.621" y2="80.6206" gradientUnits="userSpaceOnUse">
<stop stop-color="#F469E2"/>
<stop offset="1" stop-color="#30C2E2" stop-opacity="0.6"/>
</linearGradient>
</defs>
</svg>
