<svg width="1068" height="174" viewBox="0 0 1068 174" fill="none" xmlns="http://www.w3.org/2000/svg">
<mask id="path-1-outside-1_891_59" maskUnits="userSpaceOnUse" x="0.411133" y="0.0849609" width="1068" height="174" fill="black">
<rect fill="white" x="0.411133" y="0.0849609" width="1068" height="174"/>
<path d="M1.69113 3.08495H34.8111V171.085H1.69113V3.08495ZM90.3055 171.085C83.4255 171.085 77.8255 169.005 73.5055 164.845C69.1855 160.685 67.0255 155.245 67.0255 148.525V3.08495H195.186V31.885H100.146V70.765H187.986V99.565H100.146V142.285H195.186V171.085H90.3055ZM268.129 173.005C250.529 173.005 236.769 168.125 226.849 158.365C216.929 148.445 211.969 134.685 211.969 117.085H244.609C244.609 125.405 246.689 131.965 250.849 136.765C255.169 141.405 261.089 143.725 268.609 143.725H295.249C302.289 143.725 307.969 142.285 312.289 139.405C316.769 136.365 319.009 132.365 319.009 127.405V119.245C319.009 111.405 313.249 106.525 301.729 104.605L257.569 97.165C243.169 94.765 232.209 90.205 224.689 83.485C217.329 76.605 213.649 67.885 213.649 57.325V43.885C213.649 35.405 215.889 27.965 220.369 21.565C225.009 15.005 231.489 9.96495 239.809 6.44495C248.289 2.92496 258.049 1.16496 269.089 1.16496H296.209C306.609 1.16496 315.809 3.32496 323.809 7.64495C331.809 11.9649 337.969 18.045 342.289 25.885C346.769 33.565 349.009 42.525 349.009 52.765H316.369C316.369 46.045 314.529 40.685 310.849 36.685C307.169 32.525 302.289 30.445 296.209 30.445H269.089C262.369 30.445 256.929 31.885 252.769 34.765C248.769 37.645 246.769 41.485 246.769 46.285V52.765C246.769 60.765 252.289 65.725 263.329 67.645L307.249 75.325C321.809 77.885 332.929 82.445 340.609 89.005C348.289 95.405 352.129 103.725 352.129 113.965V129.805C352.129 138.285 349.729 145.805 344.929 152.365C340.289 158.925 333.729 164.045 325.249 167.725C316.769 171.245 306.929 173.005 295.729 173.005H268.129ZM432.349 173.005C420.029 173.005 409.149 170.365 399.709 165.085C390.429 159.805 383.229 152.365 378.109 142.765C372.989 133.005 370.429 121.805 370.429 109.165V65.005C370.429 52.365 372.989 41.245 378.109 31.645C383.389 21.885 390.749 14.365 400.189 9.08496C409.789 3.80496 420.829 1.16496 433.309 1.16496H458.749C470.749 1.16496 481.309 3.72496 490.429 8.84495C499.549 13.9649 506.589 21.165 511.549 30.445C516.669 39.565 519.229 50.205 519.229 62.365H486.589C486.589 52.765 484.029 45.085 478.909 39.325C473.789 33.405 467.069 30.445 458.749 30.445H433.309C424.349 30.445 417.149 33.805 411.709 40.525C406.269 47.085 403.549 55.725 403.549 66.445V107.725C403.549 118.445 406.189 127.165 411.469 133.885C416.749 140.445 423.709 143.725 432.349 143.725H458.269C466.749 143.725 473.629 140.445 478.909 133.885C484.349 127.325 487.069 118.685 487.069 107.965H519.709C519.709 120.925 517.149 132.365 512.029 142.285C506.909 152.045 499.709 159.645 490.429 165.085C481.149 170.365 470.429 173.005 458.269 173.005H432.349ZM540.463 3.08495H629.743C644.303 3.08495 655.983 7.00495 664.783 14.845C673.743 22.6849 678.223 33.005 678.223 45.805V62.605C678.223 70.925 675.823 78.205 671.023 84.445C666.383 90.525 659.583 95.165 650.623 98.365V98.845C655.743 102.205 659.583 106.045 662.143 110.365C664.863 114.685 667.503 120.685 670.063 128.365L683.503 171.085H649.183L636.463 131.245C634.383 124.365 631.503 119.245 627.823 115.885C624.143 112.525 619.583 110.845 614.143 110.845H573.583V171.085H540.463V3.08495ZM623.503 82.285C630.223 82.285 635.503 80.525 639.343 77.005C643.183 73.325 645.103 68.605 645.103 62.845V47.245C645.103 42.605 643.663 38.925 640.783 36.205C637.903 33.325 634.063 31.885 629.263 31.885H573.583V82.285H623.503ZM761.462 173.005C748.822 173.005 737.622 170.365 727.862 165.085C718.262 159.645 710.742 152.125 705.302 142.525C700.022 132.765 697.382 121.485 697.382 108.685V65.485C697.382 52.685 700.022 41.485 705.302 31.885C710.742 22.125 718.262 14.605 727.862 9.32495C737.622 3.88496 748.822 1.16496 761.462 1.16496H786.902C799.542 1.16496 810.662 3.88496 820.262 9.32495C830.022 14.605 837.542 22.125 842.822 31.885C848.262 41.485 850.982 52.685 850.982 65.485V108.685C850.982 121.485 848.262 132.765 842.822 142.525C837.542 152.125 830.022 159.645 820.262 165.085C810.662 170.365 799.542 173.005 786.902 173.005H761.462ZM786.902 143.725C796.182 143.725 803.622 140.365 809.222 133.645C814.982 126.925 817.862 118.125 817.862 107.245V66.925C817.862 56.045 814.982 47.245 809.222 40.525C803.622 33.805 796.182 30.445 786.902 30.445H761.462C752.182 30.445 744.662 33.805 738.902 40.525C733.302 47.245 730.502 56.045 730.502 66.925V107.245C730.502 118.125 733.302 126.925 738.902 133.645C744.662 140.365 752.182 143.725 761.462 143.725H786.902ZM914.527 171.085C909.087 171.085 904.527 169.725 900.847 167.005C897.167 164.285 894.607 159.405 893.167 152.365L863.407 3.08495H897.007L917.647 122.365H918.127L952.927 11.9649H964.927C968.927 11.9649 972.367 13.005 975.247 15.085C978.287 17.165 980.607 20.925 982.207 26.365L1011.49 122.125H1011.97L1032.61 3.08495H1066.21L1036.21 152.365C1034.93 158.765 1032.53 163.485 1029.01 166.525C1025.65 169.565 1021.01 171.085 1015.09 171.085H1001.17L965.407 55.885H964.927L928.447 171.085H914.527Z"/>
</mask>
<path d="M1.69113 3.08495V2.08495H0.691133V3.08495H1.69113ZM34.8111 3.08495H35.8111V2.08495H34.8111V3.08495ZM34.8111 171.085V172.085H35.8111V171.085H34.8111ZM1.69113 171.085H0.691133V172.085H1.69113V171.085ZM1.69113 4.08495H34.8111V2.08495H1.69113V4.08495ZM33.8111 3.08495V171.085H35.8111V3.08495H33.8111ZM34.8111 170.085H1.69113V172.085H34.8111V170.085ZM2.69113 171.085V3.08495H0.691133V171.085H2.69113ZM73.5055 164.845L72.8119 165.565L73.5055 164.845ZM67.0255 3.08495V2.08495H66.0255V3.08495H67.0255ZM195.186 3.08495H196.186V2.08495H195.186V3.08495ZM195.186 31.8849V32.8849H196.186V31.8849H195.186ZM100.146 31.8849V30.8849H99.1455V31.8849H100.146ZM100.146 70.765H99.1455V71.765H100.146V70.765ZM187.986 70.765H188.986V69.765H187.986V70.765ZM187.986 99.565V100.565H188.986V99.565H187.986ZM100.146 99.565V98.565H99.1455V99.565H100.146ZM100.146 142.285H99.1455V143.285H100.146V142.285ZM195.186 142.285H196.186V141.285H195.186V142.285ZM195.186 171.085V172.085H196.186V171.085H195.186ZM90.3055 170.085C83.6431 170.085 78.3052 168.079 74.1992 164.125L72.8119 165.565C77.3458 169.931 83.2079 172.085 90.3055 172.085V170.085ZM74.1992 164.125C70.0994 160.177 68.0255 155.009 68.0255 148.525H66.0255C66.0255 155.481 68.2716 161.193 72.8119 165.565L74.1992 164.125ZM68.0255 148.525V3.08495H66.0255V148.525H68.0255ZM67.0255 4.08495H195.186V2.08495H67.0255V4.08495ZM194.186 3.08495V31.8849H196.186V3.08495H194.186ZM195.186 30.8849H100.146V32.8849H195.186V30.8849ZM99.1455 31.8849V70.765H101.146V31.8849H99.1455ZM100.146 71.765H187.986V69.765H100.146V71.765ZM186.986 70.765V99.565H188.986V70.765H186.986ZM187.986 98.565H100.146V100.565H187.986V98.565ZM99.1455 99.565V142.285H101.146V99.565H99.1455ZM100.146 143.285H195.186V141.285H100.146V143.285ZM194.186 142.285V171.085H196.186V142.285H194.186ZM195.186 170.085H90.3055V172.085H195.186V170.085ZM226.849 158.365L226.142 159.072L226.147 159.078L226.849 158.365ZM211.969 117.085V116.085H210.969V117.085H211.969ZM244.609 117.085H245.609V116.085H244.609V117.085ZM250.849 136.765L250.093 137.42L250.105 137.433L250.117 137.446L250.849 136.765ZM312.289 139.405L312.843 140.237L312.85 140.232L312.289 139.405ZM301.729 104.605L301.562 105.591L301.564 105.591L301.729 104.605ZM257.569 97.1649L257.735 96.1788L257.733 96.1786L257.569 97.1649ZM224.689 83.485L224.006 84.2155L224.014 84.2231L224.022 84.2306L224.689 83.485ZM220.369 21.565L219.552 20.9875L219.549 20.9915L220.369 21.565ZM239.809 6.44495L239.425 5.52134L239.419 5.52398L239.809 6.44495ZM323.809 7.64495L324.284 6.76505L323.809 7.64495ZM342.289 25.885L341.413 26.3676L341.419 26.3783L341.425 26.3888L342.289 25.885ZM349.009 52.765V53.765H350.009V52.765H349.009ZM316.369 52.765H315.369V53.765H316.369V52.765ZM310.849 36.685L310.1 37.3475L310.106 37.3548L310.113 37.362L310.849 36.685ZM252.769 34.765L252.199 33.9428L252.192 33.948L252.184 33.9534L252.769 34.765ZM263.329 67.645L263.501 66.6599L263.5 66.6597L263.329 67.645ZM307.249 75.325L307.422 74.3401L307.421 74.3399L307.249 75.325ZM340.609 89.005L339.959 89.7654L339.968 89.7732L340.609 89.005ZM344.929 152.365L344.122 151.774L344.117 151.781L344.112 151.787L344.929 152.365ZM325.249 167.725L325.632 168.649L325.639 168.645L325.647 168.642L325.249 167.725ZM268.129 172.005C250.718 172.005 237.237 167.183 227.55 157.652L226.147 159.078C236.301 169.067 250.339 174.005 268.129 174.005V172.005ZM227.556 157.658C217.868 147.97 212.969 134.491 212.969 117.085H210.969C210.969 134.879 215.989 148.92 226.142 159.072L227.556 157.658ZM211.969 118.085H244.609V116.085H211.969V118.085ZM243.609 117.085C243.609 125.57 245.732 132.388 250.093 137.42L251.604 136.11C247.645 131.542 245.609 125.24 245.609 117.085H243.609ZM250.117 137.446C254.661 142.327 260.867 144.725 268.609 144.725V142.725C261.31 142.725 255.676 140.483 251.581 136.084L250.117 137.446ZM268.609 144.725H295.249V142.725H268.609V144.725ZM295.249 144.725C302.418 144.725 308.31 143.259 312.843 140.237L311.734 138.573C307.627 141.311 302.16 142.725 295.249 142.725V144.725ZM312.85 140.232C317.575 137.026 320.009 132.731 320.009 127.405H318.009C318.009 131.999 315.962 135.704 311.727 138.577L312.85 140.232ZM320.009 127.405V119.245H318.009V127.405H320.009ZM320.009 119.245C320.009 115.044 318.449 111.58 315.335 108.942C312.262 106.338 307.742 104.593 301.893 103.619L301.564 105.591C307.236 106.537 311.355 108.192 314.042 110.468C316.688 112.71 318.009 115.606 318.009 119.245H320.009ZM301.895 103.619L257.735 96.1788L257.402 98.1511L301.562 105.591L301.895 103.619ZM257.733 96.1786C243.441 93.7965 232.684 89.2887 225.355 82.7393L224.022 84.2306C231.733 91.1212 242.897 95.7334 257.404 98.1514L257.733 96.1786ZM225.372 82.7544C218.225 76.0735 214.649 67.623 214.649 57.325H212.649C212.649 68.1469 216.433 77.1364 224.006 84.2155L225.372 82.7544ZM214.649 57.325V43.885H212.649V57.325H214.649ZM214.649 43.885C214.649 35.5917 216.836 28.3558 221.188 22.1384L219.549 20.9915C214.942 27.5741 212.649 35.2182 212.649 43.885H214.649ZM221.185 22.1424C225.705 15.7527 232.028 10.8226 240.198 7.36591L239.419 5.52398C230.949 9.10726 224.313 14.2572 219.552 20.9875L221.185 22.1424ZM240.192 7.36854C248.529 3.9081 258.154 2.16496 269.089 2.16496V0.164963C257.943 0.164963 248.049 1.94182 239.425 5.52135L240.192 7.36854ZM269.089 2.16496H296.209V0.164963H269.089V2.16496ZM296.209 2.16496C306.467 2.16496 315.499 4.2944 323.333 8.52486L324.284 6.76505C316.118 2.35551 306.75 0.164963 296.209 0.164963V2.16496ZM323.333 8.52486C331.167 12.7551 337.187 18.6985 341.413 26.3676L343.164 25.4024C338.75 17.3914 332.45 11.1748 324.284 6.76505L323.333 8.52486ZM341.425 26.3888C345.803 33.894 348.009 42.6748 348.009 52.765H350.009C350.009 42.3751 347.734 33.236 343.152 25.3811L341.425 26.3888ZM349.009 51.765H316.369V53.765H349.009V51.765ZM317.369 52.765C317.369 45.8562 315.472 40.2336 311.585 36.0079L310.113 37.362C313.585 41.1363 315.369 46.2337 315.369 52.765H317.369ZM311.598 36.0224C307.709 31.626 302.545 29.445 296.209 29.445V31.445C302.033 31.445 306.629 33.4239 310.1 37.3475L311.598 36.0224ZM296.209 29.445H269.089V31.445H296.209V29.445ZM269.089 29.445C262.231 29.445 256.574 30.9145 252.199 33.9428L253.338 35.5872C257.284 32.8554 262.506 31.445 269.089 31.445V29.445ZM252.184 33.9534C247.932 37.0154 245.769 41.1532 245.769 46.285H247.769C247.769 41.8167 249.606 38.2746 253.353 35.5765L252.184 33.9534ZM245.769 46.285V52.765H247.769V46.285H245.769ZM245.769 52.765C245.769 57.0238 247.251 60.5431 250.24 63.2288C253.194 65.8829 257.54 67.6532 263.157 68.6302L263.5 66.6597C258.077 65.7167 254.143 64.047 251.577 61.7411C249.046 59.4668 247.769 56.5061 247.769 52.765H245.769ZM263.156 68.63L307.076 76.31L307.421 74.3399L263.501 66.6599L263.156 68.63ZM307.075 76.3098C321.536 78.8523 332.464 83.3631 339.959 89.7653L341.258 88.2446C333.393 81.5268 322.081 76.9176 307.422 74.3401L307.075 76.3098ZM339.968 89.7732C347.414 95.9779 351.129 104.013 351.129 113.965H353.129C353.129 103.437 349.163 94.832 341.249 88.2367L339.968 89.7732ZM351.129 113.965V129.805H353.129V113.965H351.129ZM351.129 129.805C351.129 138.082 348.791 145.394 344.122 151.774L345.736 152.955C350.667 146.216 353.129 138.487 353.129 129.805H351.129ZM344.112 151.787C339.593 158.177 333.188 163.189 324.851 166.808L325.647 168.642C334.269 164.901 340.984 159.673 345.745 152.942L344.112 151.787ZM324.865 166.801C316.53 170.261 306.825 172.005 295.729 172.005V174.005C307.032 174.005 317.007 172.229 325.632 168.649L324.865 166.801ZM295.729 172.005H268.129V174.005H295.729V172.005ZM399.709 165.085L399.214 165.954L399.22 165.958L399.709 165.085ZM378.109 142.765L377.223 143.23L377.226 143.236L378.109 142.765ZM378.109 31.645L377.229 31.1691L377.226 31.1744L378.109 31.645ZM400.189 9.08496L399.707 8.20872L399.7 8.2122L400.189 9.08496ZM490.429 8.84495L490.918 7.97296L490.429 8.84495ZM511.549 30.445L510.667 30.9163L510.672 30.9255L510.677 30.9345L511.549 30.445ZM519.229 62.365V63.365H520.229V62.365H519.229ZM486.589 62.365H485.589V63.365H486.589V62.365ZM478.909 39.325L478.152 39.9792L478.161 39.9893L478.909 39.325ZM411.709 40.525L412.478 41.1633L412.486 41.1542L411.709 40.525ZM411.469 133.885L410.682 134.503L410.69 134.512L411.469 133.885ZM478.909 133.885L478.139 133.247L478.134 133.252L478.13 133.258L478.909 133.885ZM487.069 107.965V106.965H486.069V107.965H487.069ZM519.709 107.965H520.709V106.965H519.709V107.965ZM512.029 142.285L512.914 142.75L512.917 142.744L512.029 142.285ZM490.429 165.085L490.923 165.954L490.934 165.948L490.429 165.085ZM432.349 172.005C420.175 172.005 409.468 169.398 400.197 164.212L399.22 165.958C408.829 171.332 419.882 174.005 432.349 174.005V172.005ZM400.203 164.216C391.091 159.031 384.024 151.731 378.991 142.294L377.226 143.236C382.433 152.999 389.766 160.579 399.214 165.954L400.203 164.216ZM378.994 142.3C373.96 132.704 371.429 121.667 371.429 109.165H369.429C369.429 121.943 372.018 133.306 377.223 143.23L378.994 142.3ZM371.429 109.165V65.005H369.429V109.165H371.429ZM371.429 65.005C371.429 52.5024 373.96 41.5489 378.991 32.1155L377.226 31.1744C372.017 40.941 369.429 52.2275 369.429 65.005H371.429ZM378.988 32.1208C384.18 22.5229 391.407 15.1427 400.677 9.95772L399.7 8.2122C390.091 13.5872 382.597 21.247 377.229 31.1691L378.988 32.1208ZM400.671 9.96117C410.103 4.77309 420.973 2.16496 433.309 2.16496V0.164963C420.684 0.164963 409.474 2.83682 399.707 8.20874L400.671 9.96117ZM433.309 2.16496H458.749V0.164963H433.309V2.16496ZM458.749 2.16496C470.603 2.16496 480.989 4.69256 489.939 9.71693L490.918 7.97296C481.628 2.75735 470.895 0.164963 458.749 0.164963V2.16496ZM489.939 9.71693C498.892 14.743 505.796 21.8035 510.667 30.9163L512.431 29.9736C507.381 20.5264 500.206 13.1869 490.918 7.97296L489.939 9.71693ZM510.677 30.9345C515.7 39.8822 518.229 50.3483 518.229 62.365H520.229C520.229 50.0616 517.637 39.2477 512.421 29.9554L510.677 30.9345ZM519.229 61.365H486.589V63.365H519.229V61.365ZM487.589 62.365C487.589 52.5826 484.976 44.6455 479.656 38.6606L478.161 39.9893C483.081 45.5244 485.589 52.9473 485.589 62.365H487.589ZM479.665 38.6708C474.342 32.5159 467.338 29.445 458.749 29.445V31.445C466.799 31.445 473.235 34.294 478.152 39.9791L479.665 38.6708ZM458.749 29.445H433.309V31.445H458.749V29.445ZM433.309 29.445C424.06 29.445 416.569 32.9315 410.931 39.8958L412.486 41.1542C417.728 34.6784 424.638 31.445 433.309 31.445V29.445ZM410.939 39.8866C405.315 46.6684 402.549 55.5535 402.549 66.445H404.549C404.549 55.8964 407.222 47.5015 412.478 41.1633L410.939 39.8866ZM402.549 66.445V107.725H404.549V66.445H402.549ZM402.549 107.725C402.549 118.611 405.232 127.566 410.682 134.503L412.255 133.267C407.145 126.764 404.549 118.279 404.549 107.725H402.549ZM410.69 134.512C416.165 141.315 423.415 144.725 432.349 144.725V142.725C424.002 142.725 417.332 139.575 412.248 133.258L410.69 134.512ZM432.349 144.725H458.269V142.725H432.349V144.725ZM458.269 144.725C467.049 144.725 474.216 141.31 479.688 134.512L478.13 133.258C473.041 139.58 466.448 142.725 458.269 142.725V144.725ZM479.678 134.523C485.302 127.742 488.069 118.856 488.069 107.965H486.069C486.069 118.514 483.395 126.908 478.139 133.247L479.678 134.523ZM487.069 108.965H519.709V106.965H487.069V108.965ZM518.709 107.965C518.709 120.791 516.176 132.069 511.14 141.826L512.917 142.744C518.121 132.661 520.709 121.059 520.709 107.965H518.709ZM511.143 141.82C506.108 151.419 499.037 158.879 489.923 164.222L490.934 165.948C500.38 160.411 507.71 152.671 512.914 142.75L511.143 141.82ZM489.934 164.216C480.825 169.399 470.28 172.005 458.269 172.005V174.005C470.578 174.005 481.473 171.331 490.923 165.954L489.934 164.216ZM458.269 172.005H432.349V174.005H458.269V172.005ZM540.463 3.08495V2.08495H539.463V3.08495H540.463ZM664.783 14.845L664.118 15.5916L664.125 15.5975L664.783 14.845ZM671.023 84.4449L670.23 83.8352L670.228 83.8383L671.023 84.4449ZM650.623 98.365L650.287 97.4232L649.623 97.6602V98.365H650.623ZM650.623 98.845H649.623V99.3848L650.074 99.681L650.623 98.845ZM662.143 110.365L661.283 110.875L661.29 110.886L661.297 110.898L662.143 110.365ZM670.063 128.365L671.017 128.065L671.014 128.057L671.012 128.049L670.063 128.365ZM683.503 171.085V172.085H684.866L684.457 170.785L683.503 171.085ZM649.183 171.085L648.23 171.389L648.453 172.085H649.183V171.085ZM636.463 131.245L635.506 131.534L635.508 131.542L635.51 131.549L636.463 131.245ZM627.823 115.885L627.149 116.623L627.823 115.885ZM573.583 110.845V109.845H572.583V110.845H573.583ZM573.583 171.085V172.085H574.583V171.085H573.583ZM540.463 171.085H539.463V172.085H540.463V171.085ZM639.343 77.005L640.019 77.7421L640.027 77.7346L640.035 77.7269L639.343 77.005ZM640.783 36.205L640.076 36.9121L640.086 36.9222L640.096 36.932L640.783 36.205ZM573.583 31.8849V30.8849H572.583V31.8849H573.583ZM573.583 82.285H572.583V83.285H573.583V82.285ZM540.463 4.08495H629.743V2.08495H540.463V4.08495ZM629.743 4.08495C644.118 4.08495 655.541 7.95081 664.118 15.5916L665.448 14.0983C656.425 6.05909 644.488 2.08495 629.743 2.08495V4.08495ZM664.125 15.5975C672.85 23.2321 677.223 33.2688 677.223 45.805H679.223C679.223 32.7411 674.636 22.1378 665.442 14.0924L664.125 15.5975ZM677.223 45.805V62.6049H679.223V45.805H677.223ZM677.223 62.6049C677.223 70.7178 674.888 77.7804 670.23 83.8352L671.816 85.0547C676.758 78.6295 679.223 71.1321 679.223 62.6049H677.223ZM670.228 83.8383C665.731 89.731 659.109 94.2724 650.287 97.4232L650.959 99.3067C660.057 96.0576 667.035 91.3189 671.818 85.0516L670.228 83.8383ZM649.623 98.365V98.845H651.623V98.365H649.623ZM650.074 99.681C655.094 102.975 658.816 106.711 661.283 110.875L663.003 109.855C660.35 105.378 656.392 101.434 651.172 98.0089L650.074 99.681ZM661.297 110.898C663.957 115.122 666.567 121.038 669.114 128.681L671.012 128.049C668.439 120.331 665.769 114.248 662.989 109.832L661.297 110.898ZM669.109 128.665L682.549 171.385L684.457 170.785L671.017 128.065L669.109 128.665ZM683.503 170.085H649.183V172.085H683.503V170.085ZM650.136 170.781L637.416 130.941L635.51 131.549L648.23 171.389L650.136 170.781ZM637.42 130.956C635.31 123.975 632.357 118.67 628.497 115.146L627.149 116.623C630.649 119.82 633.456 124.755 635.506 131.534L637.42 130.956ZM628.497 115.146C624.615 111.602 619.808 109.845 614.143 109.845V111.845C619.358 111.845 623.671 113.448 627.149 116.623L628.497 115.146ZM614.143 109.845H573.583V111.845H614.143V109.845ZM572.583 110.845V171.085H574.583V110.845H572.583ZM573.583 170.085H540.463V172.085H573.583V170.085ZM541.463 171.085V3.08495H539.463V171.085H541.463ZM623.503 83.285C630.398 83.285 635.946 81.4757 640.019 77.7421L638.667 76.2678C635.06 79.5742 630.048 81.285 623.503 81.285V83.285ZM640.035 77.7269C644.089 73.8416 646.103 68.8524 646.103 62.845H644.103C644.103 68.3575 642.277 72.8083 638.651 76.283L640.035 77.7269ZM646.103 62.845V47.2449H644.103V62.845H646.103ZM646.103 47.2449C646.103 42.3811 644.584 38.4194 641.47 35.4779L640.096 36.932C642.742 39.4305 644.103 42.8288 644.103 47.2449H646.103ZM641.49 35.4978C638.389 32.3971 634.277 30.8849 629.263 30.8849V32.8849C633.849 32.8849 637.417 34.2528 640.076 36.9121L641.49 35.4978ZM629.263 30.8849H573.583V32.8849H629.263V30.8849ZM572.583 31.8849V82.285H574.583V31.8849H572.583ZM573.583 83.285H623.503V81.285H573.583V83.285ZM727.862 165.085L727.369 165.955L727.377 165.96L727.386 165.965L727.862 165.085ZM705.302 142.525L704.422 143.001L704.427 143.009L704.432 143.018L705.302 142.525ZM705.302 31.8849L704.428 31.3981L704.426 31.403L705.302 31.8849ZM727.862 9.32495L728.344 10.2012L728.349 10.1984L727.862 9.32495ZM820.262 9.32495L819.769 10.195L819.777 10.1998L819.786 10.2045L820.262 9.32495ZM842.822 31.8849L841.942 32.3608L841.947 32.3694L841.952 32.378L842.822 31.8849ZM842.822 142.525L841.948 142.038L841.946 142.043L842.822 142.525ZM820.262 165.085L820.744 165.961L820.749 165.958L820.262 165.085ZM809.222 133.645L808.462 132.994L808.454 133.005L809.222 133.645ZM809.222 40.525L808.453 41.1652L808.463 41.1757L809.222 40.525ZM738.902 40.525L738.142 39.8741L738.134 39.8848L738.902 40.525ZM738.902 133.645L738.133 134.285L738.143 134.296L738.902 133.645ZM761.462 172.005C748.965 172.005 737.932 169.396 728.338 164.205L727.386 165.965C737.311 171.334 748.679 174.005 761.462 174.005V172.005ZM728.355 164.215C718.912 158.864 711.523 151.474 706.172 142.032L704.432 143.018C709.961 152.775 717.611 160.426 727.369 165.955L728.355 164.215ZM706.181 142.049C700.992 132.456 698.382 121.345 698.382 108.685H696.382C696.382 121.625 699.052 133.074 704.422 143.001L706.181 142.049ZM698.382 108.685V65.485H696.382V108.685H698.382ZM698.382 65.485C698.382 52.825 700.992 41.7961 706.178 32.3669L704.426 31.403C699.052 41.1738 696.382 52.545 696.382 65.485H698.382ZM706.175 32.3718C711.526 22.7723 718.912 15.3888 728.344 10.2012L727.38 8.44874C717.612 13.8211 709.958 21.4776 704.428 31.3981L706.175 32.3718ZM728.349 10.1984C737.941 4.85181 748.969 2.16496 761.462 2.16496V0.164963C748.674 0.164963 737.302 2.91811 727.375 8.45148L728.349 10.1984ZM761.462 2.16496H786.902V0.164963H761.462V2.16496ZM786.902 2.16496C799.394 2.16496 810.34 4.85192 819.769 10.195L820.755 8.45493C810.984 2.918 799.689 0.164963 786.902 0.164963V2.16496ZM819.786 10.2045C829.375 15.392 836.755 22.7717 841.942 32.3608L843.701 31.4091C838.329 21.4782 830.669 13.8179 820.738 8.44541L819.786 10.2045ZM841.952 32.378C847.294 41.8051 849.982 52.8298 849.982 65.485H851.982C851.982 52.5401 849.23 41.1648 843.692 31.3919L841.952 32.378ZM849.982 65.485V108.685H851.982V65.485H849.982ZM849.982 108.685C849.982 121.34 847.294 132.447 841.948 142.038L843.695 143.012C849.23 133.082 851.982 121.63 851.982 108.685H849.982ZM841.946 142.043C836.758 151.475 829.374 158.861 819.775 164.211L820.749 165.958C830.669 160.429 838.326 152.775 843.698 143.007L841.946 142.043ZM819.78 164.209C810.349 169.396 799.399 172.005 786.902 172.005V174.005C799.684 174.005 810.975 171.334 820.744 165.961L819.78 164.209ZM786.902 172.005H761.462V174.005H786.902V172.005ZM786.902 144.725C796.458 144.725 804.187 141.249 809.99 134.285L808.454 133.005C803.056 139.481 795.906 142.725 786.902 142.725V144.725ZM809.981 134.296C815.93 127.356 818.862 118.307 818.862 107.245H816.862C816.862 117.943 814.034 126.494 808.463 132.994L809.981 134.296ZM818.862 107.245V66.925H816.862V107.245H818.862ZM818.862 66.925C818.862 55.8631 815.93 46.8143 809.981 39.8742L808.463 41.1757C814.034 47.6756 816.862 56.2268 816.862 66.925H818.862ZM809.99 39.8848C804.187 32.9214 796.458 29.445 786.902 29.445V31.445C795.906 31.445 803.056 34.6885 808.454 41.1651L809.99 39.8848ZM786.902 29.445H761.462V31.445H786.902V29.445ZM761.462 29.445C751.906 29.445 744.103 32.9205 738.143 39.8742L739.661 41.1757C745.221 34.6894 752.458 31.445 761.462 31.445V29.445ZM738.134 39.8848C732.35 46.825 729.502 55.8698 729.502 66.925H731.502C731.502 56.2201 734.253 47.6649 739.67 41.1651L738.134 39.8848ZM729.502 66.925V107.245H731.502V66.925H729.502ZM729.502 107.245C729.502 118.3 732.35 127.345 738.134 134.285L739.67 133.005C734.253 126.505 731.502 117.95 731.502 107.245H729.502ZM738.143 134.296C744.103 141.249 751.906 144.725 761.462 144.725V142.725C752.458 142.725 745.221 139.481 739.661 132.994L738.143 134.296ZM761.462 144.725H786.902V142.725H761.462V144.725ZM893.167 152.365L892.187 152.56L892.188 152.565L893.167 152.365ZM863.407 3.08495V2.08495H862.188L862.427 3.28046L863.407 3.08495ZM897.007 3.08495L897.993 2.91444L897.849 2.08495H897.007V3.08495ZM917.647 122.365L916.662 122.535L916.806 123.365H917.647V122.365ZM918.127 122.365V123.365H918.861L919.081 122.666L918.127 122.365ZM952.927 11.965V10.965H952.194L951.974 11.6643L952.927 11.965ZM975.247 15.085L974.662 15.8956L974.672 15.9031L974.683 15.9103L975.247 15.085ZM982.207 26.365L981.248 26.6471L981.251 26.6573L982.207 26.365ZM1011.49 122.125L1010.53 122.417L1010.75 123.125H1011.49V122.125ZM1011.97 122.125V123.125H1012.81L1012.95 122.296L1011.97 122.125ZM1032.61 3.08495V2.08495H1031.77L1031.62 2.91411L1032.61 3.08495ZM1066.21 3.08495L1067.19 3.28197L1067.43 2.08495H1066.21V3.08495ZM1036.21 152.365L1035.23 152.168L1035.23 152.169L1036.21 152.365ZM1029.01 166.525L1028.35 165.768L1028.35 165.776L1028.34 165.783L1029.01 166.525ZM1001.17 171.085L1000.21 171.381L1000.43 172.085H1001.17V171.085ZM965.407 55.885L966.362 55.5885L966.144 54.885H965.407V55.885ZM964.927 55.885V54.885H964.195L963.974 55.5831L964.927 55.885ZM928.447 171.085V172.085H929.18L929.401 171.387L928.447 171.085ZM914.527 170.085C909.26 170.085 904.919 168.771 901.442 166.201L900.253 167.809C904.136 170.679 908.915 172.085 914.527 172.085V170.085ZM901.442 166.201C898.047 163.692 895.565 159.094 894.147 152.165L892.188 152.565C893.65 159.716 896.288 164.878 900.253 167.809L901.442 166.201ZM894.148 152.169L864.388 2.88944L862.427 3.28046L892.187 152.56L894.148 152.169ZM863.407 4.08495H897.007V2.08495H863.407V4.08495ZM896.022 3.25546L916.662 122.535L918.633 122.194L897.993 2.91444L896.022 3.25546ZM917.647 123.365H918.127V121.365H917.647V123.365ZM919.081 122.666L953.881 12.2656L951.974 11.6643L917.174 122.064L919.081 122.666ZM952.927 12.965H964.927V10.965H952.927V12.965ZM964.927 12.965C968.745 12.965 971.973 13.954 974.662 15.8956L975.833 14.2743C972.761 12.0559 969.11 10.965 964.927 10.965V12.965ZM974.683 15.9103C977.454 17.8062 979.68 21.3149 981.248 26.6471L983.167 26.0828C981.535 20.535 979.121 16.5237 975.812 14.2596L974.683 15.9103ZM981.251 26.6573L1010.53 122.417L1012.44 121.833L983.164 26.0725L981.251 26.6573ZM1011.49 123.125H1011.97V121.125H1011.49V123.125ZM1012.95 122.296L1033.59 3.25579L1031.62 2.91411L1010.98 121.954L1012.95 122.296ZM1032.61 4.08495H1066.21V2.08495H1032.61V4.08495ZM1065.23 2.88792L1035.23 152.168L1037.19 152.562L1067.19 3.28197L1065.23 2.88792ZM1035.23 152.169C1033.97 158.437 1031.65 162.922 1028.35 165.768L1029.66 167.282C1033.41 164.048 1035.88 159.093 1037.19 152.561L1035.23 152.169ZM1028.34 165.783C1025.21 168.611 1020.84 170.085 1015.09 170.085V172.085C1021.18 172.085 1026.08 170.519 1029.68 167.266L1028.34 165.783ZM1015.09 170.085H1001.17V172.085H1015.09V170.085ZM1002.12 170.788L966.362 55.5885L964.452 56.1814L1000.21 171.381L1002.12 170.788ZM965.407 54.885H964.927V56.885H965.407V54.885ZM963.974 55.5831L927.494 170.783L929.401 171.387L965.881 56.1869L963.974 55.5831ZM928.447 170.085H914.527V172.085H928.447V170.085Z" fill="url(#paint0_linear_891_59)" mask="url(#path-1-outside-1_891_59)"/>
<defs>
<linearGradient id="paint0_linear_891_59" x1="-15.5889" y1="81.085" x2="1070.41" y2="81.085" gradientUnits="userSpaceOnUse">
<stop stop-color="#F469E2"/>
<stop offset="1" stop-color="#30C2E2" stop-opacity="0.6"/>
</linearGradient>
</defs>
</svg>
