<svg width="932" height="152" viewBox="0 0 932 152" fill="none" xmlns="http://www.w3.org/2000/svg">
<mask id="path-1-outside-1_622_141" maskUnits="userSpaceOnUse" x="-1" y="-0.589844" width="934" height="153" fill="black">
<rect fill="white" x="-1" y="-0.589844" width="934" height="153"/>
<path d="M0.120001 2.41015H29.1V149.41H0.120001V2.41015ZM77.6576 149.41C71.6376 149.41 66.7376 147.59 62.9576 143.95C59.1776 140.31 57.2876 135.55 57.2876 129.67V2.41015H169.428V27.6101H86.2676V61.6302H163.128V86.8302H86.2676V124.21H169.428V149.41H77.6576ZM233.253 151.09C217.853 151.09 205.813 146.82 197.133 138.28C188.453 129.6 184.113 117.56 184.113 102.16H212.673C212.673 109.44 214.493 115.18 218.133 119.38C221.913 123.44 227.093 125.47 233.673 125.47H256.983C263.143 125.47 268.113 124.21 271.893 121.69C275.813 119.03 277.773 115.53 277.773 111.19V104.05C277.773 97.1902 272.733 92.9202 262.653 91.2402L224.013 84.7302C211.413 82.6302 201.823 78.6402 195.243 72.7602C188.803 66.7402 185.583 59.1102 185.583 49.8701V38.1101C185.583 30.6902 187.543 24.1802 191.463 18.5802C195.523 12.8401 201.193 8.43015 208.473 5.35015C215.893 2.27015 224.433 0.730155 234.093 0.730155H257.823C266.923 0.730155 274.973 2.62015 281.973 6.40014C288.973 10.1801 294.363 15.5001 298.143 22.3602C302.063 29.0801 304.023 36.9201 304.023 45.8801H275.463C275.463 40.0002 273.853 35.3102 270.633 31.8102C267.413 28.1702 263.143 26.3502 257.823 26.3502H234.093C228.213 26.3502 223.453 27.6102 219.813 30.1302C216.313 32.6502 214.563 36.0102 214.563 40.2101V45.8801C214.563 52.8802 219.393 57.2202 229.053 58.9002L267.483 65.6202C280.223 67.8602 289.953 71.8502 296.673 77.5902C303.393 83.1902 306.753 90.4702 306.753 99.4302V113.29C306.753 120.71 304.653 127.29 300.453 133.03C296.393 138.77 290.653 143.25 283.233 146.47C275.813 149.55 267.203 151.09 257.403 151.09H233.253ZM376.945 151.09C366.165 151.09 356.645 148.78 348.385 144.16C340.265 139.54 333.965 133.03 329.485 124.63C325.005 116.09 322.765 106.29 322.765 95.2302V56.5901C322.765 45.5302 325.005 35.8002 329.485 27.4001C334.105 18.8602 340.545 12.2802 348.805 7.66015C357.205 3.04015 366.865 0.730155 377.785 0.730155H400.045C410.545 0.730155 419.785 2.97015 427.765 7.45014C435.745 11.9301 441.905 18.2301 446.245 26.3502C450.725 34.3301 452.965 43.6401 452.965 54.2802H424.405C424.405 45.8802 422.165 39.1602 417.685 34.1202C413.205 28.9402 407.325 26.3502 400.045 26.3502H377.785C369.945 26.3502 363.645 29.2902 358.885 35.1702C354.125 40.9102 351.745 48.4702 351.745 57.8502V93.9702C351.745 103.35 354.055 110.98 358.675 116.86C363.295 122.6 369.385 125.47 376.945 125.47H399.625C407.045 125.47 413.065 122.6 417.685 116.86C422.445 111.12 424.825 103.56 424.825 94.1802H453.385C453.385 105.52 451.145 115.53 446.665 124.21C442.185 132.75 435.885 139.4 427.765 144.16C419.645 148.78 410.265 151.09 399.625 151.09H376.945ZM471.545 2.41015H549.665C562.405 2.41015 572.625 5.84015 580.325 12.7002C588.165 19.5601 592.085 28.5901 592.085 39.7902V54.4902C592.085 61.7702 589.985 68.1402 585.785 73.6001C581.725 78.9202 575.775 82.9802 567.935 85.7802V86.2002C572.415 89.1402 575.775 92.5002 578.015 96.2802C580.395 100.06 582.705 105.31 584.945 112.03L596.705 149.41H566.675L555.545 114.55C553.725 108.53 551.205 104.05 547.985 101.11C544.765 98.1702 540.775 96.7002 536.015 96.7002H500.525V149.41H471.545V2.41015ZM544.205 71.7102C550.085 71.7102 554.705 70.1702 558.065 67.0902C561.425 63.8702 563.105 59.7402 563.105 54.7001V41.0501C563.105 36.9902 561.845 33.7702 559.325 31.3901C556.805 28.8701 553.445 27.6101 549.245 27.6101H500.525V71.7102H544.205ZM664.919 151.09C653.859 151.09 644.059 148.78 635.519 144.16C627.119 139.4 620.539 132.82 615.779 124.42C611.159 115.88 608.849 106.01 608.849 94.8102V57.0102C608.849 45.8101 611.159 36.0101 615.779 27.6101C620.539 19.0701 627.119 12.4901 635.519 7.87015C644.059 3.11015 653.859 0.730155 664.919 0.730155H687.179C698.239 0.730155 707.969 3.11015 716.369 7.87015C724.909 12.4901 731.489 19.0701 736.109 27.6101C740.869 36.0101 743.249 45.8101 743.249 57.0102V94.8102C743.249 106.01 740.869 115.88 736.109 124.42C731.489 132.82 724.909 139.4 716.369 144.16C707.969 148.78 698.239 151.09 687.179 151.09H664.919ZM687.179 125.47C695.299 125.47 701.809 122.53 706.709 116.65C711.749 110.77 714.269 103.07 714.269 93.5502V58.2702C714.269 48.7502 711.749 41.0501 706.709 35.1702C701.809 29.2902 695.299 26.3502 687.179 26.3502H664.919C656.799 26.3502 650.219 29.2902 645.179 35.1702C640.279 41.0501 637.829 48.7502 637.829 58.2702V93.5502C637.829 103.07 640.279 110.77 645.179 116.65C650.219 122.53 656.799 125.47 664.919 125.47H687.179ZM798.852 149.41C794.092 149.41 790.102 148.22 786.882 145.84C783.662 143.46 781.422 139.19 780.162 133.03L754.122 2.41015H783.522L801.582 106.78H802.002L832.452 10.1801H842.952C846.452 10.1801 849.462 11.0901 851.982 12.9101C854.642 14.7302 856.672 18.0201 858.072 22.7801L883.692 106.57H884.112L902.172 2.41015H931.572L905.322 133.03C904.202 138.63 902.102 142.76 899.022 145.42C896.082 148.08 892.022 149.41 886.842 149.41H874.662L843.372 48.6102H842.952L811.032 149.41H798.852Z"/>
</mask>
<path d="M0.120001 2.41015V1.41015H-0.879999V2.41015H0.120001ZM29.1 2.41015H30.1V1.41015H29.1V2.41015ZM29.1 149.41V150.41H30.1V149.41H29.1ZM0.120001 149.41H-0.879999V150.41H0.120001V149.41ZM0.120001 3.41015H29.1V1.41015H0.120001V3.41015ZM28.1 2.41015V149.41H30.1V2.41015H28.1ZM29.1 148.41H0.120001V150.41H29.1V148.41ZM1.12 149.41V2.41015H-0.879999V149.41H1.12ZM62.9576 143.95L62.2639 144.67L62.2639 144.67L62.9576 143.95ZM57.2876 2.41015V1.41015H56.2876V2.41015H57.2876ZM169.428 2.41015H170.428V1.41015H169.428V2.41015ZM169.428 27.6101V28.6101H170.428V27.6101H169.428ZM86.2676 27.6101V26.6101H85.2676V27.6101H86.2676ZM86.2676 61.6302H85.2676V62.6302H86.2676V61.6302ZM163.128 61.6302H164.128V60.6302H163.128V61.6302ZM163.128 86.8302V87.8302H164.128V86.8302H163.128ZM86.2676 86.8302V85.8302H85.2676V86.8302H86.2676ZM86.2676 124.21H85.2676V125.21H86.2676V124.21ZM169.428 124.21H170.428V123.21H169.428V124.21ZM169.428 149.41V150.41H170.428V149.41H169.428ZM77.6576 148.41C71.8552 148.41 67.2173 146.664 63.6512 143.23L62.2639 144.67C66.2579 148.517 71.42 150.41 77.6576 150.41V148.41ZM63.6512 143.23C60.0915 139.802 58.2876 135.314 58.2876 129.67H56.2876C56.2876 135.786 58.2637 140.818 62.2639 144.67L63.6512 143.23ZM58.2876 129.67V2.41015H56.2876V129.67H58.2876ZM57.2876 3.41015H169.428V1.41015H57.2876V3.41015ZM168.428 2.41015V27.6101H170.428V2.41015H168.428ZM169.428 26.6101H86.2676V28.6101H169.428V26.6101ZM85.2676 27.6101V61.6302H87.2676V27.6101H85.2676ZM86.2676 62.6302H163.128V60.6302H86.2676V62.6302ZM162.128 61.6302V86.8302H164.128V61.6302H162.128ZM163.128 85.8302H86.2676V87.8302H163.128V85.8302ZM85.2676 86.8302V124.21H87.2676V86.8302H85.2676ZM86.2676 125.21H169.428V123.21H86.2676V125.21ZM168.428 124.21V149.41H170.428V124.21H168.428ZM169.428 148.41H77.6576V150.41H169.428V148.41ZM197.133 138.28L196.426 138.987L196.431 138.993L197.133 138.28ZM184.113 102.16V101.16H183.113V102.16H184.113ZM212.673 102.16H213.673V101.16H212.673V102.16ZM218.133 119.38L217.377 120.035L217.389 120.049L217.401 120.062L218.133 119.38ZM271.893 121.69L272.448 122.522L272.454 122.518L271.893 121.69ZM262.653 91.2402L262.487 92.2263L262.488 92.2265L262.653 91.2402ZM224.013 84.7302L224.179 83.744L224.177 83.7438L224.013 84.7302ZM195.243 72.7602L194.56 73.4907L194.568 73.4983L194.576 73.5058L195.243 72.7602ZM191.463 18.5802L190.646 18.0027L190.644 18.0067L191.463 18.5802ZM208.473 5.35015L208.089 4.42653L208.083 4.42918L208.473 5.35015ZM281.973 6.40014L282.448 5.52024L282.448 5.52024L281.973 6.40014ZM298.143 22.3602L297.267 22.8428L297.273 22.8535L297.279 22.864L298.143 22.3602ZM304.023 45.8801V46.8801H305.023V45.8801H304.023ZM275.463 45.8801H274.463V46.8801H275.463V45.8801ZM270.633 31.8102L269.884 32.4727L269.89 32.48L269.897 32.4872L270.633 31.8102ZM219.813 30.1302L219.244 29.308L219.236 29.3132L219.229 29.3186L219.813 30.1302ZM229.053 58.9002L229.225 57.9151L229.224 57.9149L229.053 58.9002ZM267.483 65.6202L267.656 64.6353L267.655 64.6351L267.483 65.6202ZM296.673 77.5902L296.023 78.3506L296.033 78.3584L296.673 77.5902ZM300.453 133.03L299.646 132.44L299.641 132.446L299.636 132.453L300.453 133.03ZM283.233 146.47L283.616 147.394L283.624 147.391L283.631 147.388L283.233 146.47ZM233.253 150.09C218.042 150.09 206.281 145.878 197.834 137.567L196.431 138.993C205.345 147.763 217.663 152.09 233.253 152.09V150.09ZM197.84 137.573C189.392 129.126 185.113 117.366 185.113 102.16H183.113C183.113 117.754 187.513 130.075 196.426 138.987L197.84 137.573ZM184.113 103.16H212.673V101.16H184.113V103.16ZM211.673 102.16C211.673 109.605 213.536 115.603 217.377 120.035L218.889 118.725C215.45 114.757 213.673 109.275 213.673 102.16H211.673ZM217.401 120.062C221.405 124.363 226.871 126.47 233.673 126.47V124.47C227.314 124.47 222.42 122.518 218.865 118.699L217.401 120.062ZM233.673 126.47H256.983V124.47H233.673V126.47ZM256.983 126.47C263.272 126.47 268.454 125.184 272.448 122.522L271.338 120.858C267.771 123.236 263.014 124.47 256.983 124.47V126.47ZM272.454 122.518C276.619 119.692 278.773 115.896 278.773 111.19H276.773C276.773 115.164 275.007 118.369 271.331 120.863L272.454 122.518ZM278.773 111.19V104.05H276.773V111.19H278.773ZM278.773 104.05C278.773 100.339 277.393 97.2729 274.639 94.9397C271.926 92.641 267.946 91.1085 262.817 90.2538L262.488 92.2265C267.44 93.0518 271.02 94.4944 273.346 96.4656C275.632 98.4024 276.773 100.901 276.773 104.05H278.773ZM262.819 90.2541L224.179 83.744L223.847 85.7163L262.487 92.2263L262.819 90.2541ZM224.177 83.7438C211.685 81.6617 202.298 77.7239 195.909 72.0145L194.576 73.5058C201.347 79.5564 211.141 83.5986 223.848 85.7165L224.177 83.7438ZM195.926 72.0296C189.699 66.2087 186.583 58.8482 186.583 49.8701H184.583C184.583 59.3721 187.907 67.2716 194.56 73.4907L195.926 72.0296ZM186.583 49.8701V38.1101H184.583V49.8701H186.583ZM186.583 38.1101C186.583 30.8769 188.49 24.571 192.282 19.1536L190.644 18.0067C186.596 23.7893 184.583 30.5034 184.583 38.1101H186.583ZM192.279 19.1576C196.219 13.5879 201.732 9.28784 208.862 6.27111L208.083 4.42918C200.654 7.57246 194.827 12.0924 190.646 18.0027L192.279 19.1576ZM208.856 6.27374C216.133 3.25329 224.538 1.73016 234.093 1.73016V-0.269845C224.327 -0.269845 215.653 1.28701 208.089 4.42655L208.856 6.27374ZM234.093 1.73016H257.823V-0.269845H234.093V1.73016ZM257.823 1.73016C266.781 1.73016 274.663 3.58959 281.498 7.28005L282.448 5.52024C275.282 1.65071 267.065 -0.269845 257.823 -0.269845V1.73016ZM281.498 7.28005C288.332 10.9703 293.581 16.1537 297.267 22.8428L299.019 21.8775C295.144 14.8466 289.614 9.38995 282.448 5.52024L281.498 7.28005ZM297.279 22.864C301.097 29.4091 303.023 37.07 303.023 45.8801H305.023C305.023 36.7703 303.029 28.7511 299.007 21.8563L297.279 22.864ZM304.023 44.8801H275.463V46.8801H304.023V44.8801ZM276.463 45.8801C276.463 39.8114 274.796 34.8588 271.369 31.1331L269.897 32.4872C272.909 35.7615 274.463 40.1889 274.463 45.8801H276.463ZM271.382 31.1476C267.953 27.2712 263.399 25.3502 257.823 25.3502V27.3502C262.887 27.3502 266.873 29.0691 269.884 32.4727L271.382 31.1476ZM257.823 25.3502H234.093V27.3502H257.823V25.3502ZM234.093 25.3502C228.075 25.3502 223.098 26.6397 219.244 29.308L220.382 30.9523C223.808 28.5806 228.35 27.3502 234.093 27.3502V25.3502ZM219.229 29.3186C215.476 32.0206 213.563 35.6784 213.563 40.2101H215.563C215.563 36.3419 217.15 33.2797 220.397 30.9417L219.229 29.3186ZM213.563 40.2101V45.8801H215.563V40.2101H213.563ZM213.563 45.8801C213.563 49.639 214.873 52.7533 217.517 55.129C220.126 57.4731 223.954 59.0284 228.881 59.8854L229.224 57.9149C224.491 57.0919 221.075 55.6372 218.854 53.6413C216.668 51.677 215.563 49.1213 215.563 45.8801H213.563ZM228.881 59.8852L267.311 66.6052L267.655 64.6351L229.225 57.9151L228.881 59.8852ZM267.31 66.605C279.95 68.8275 289.488 72.7683 296.023 78.3505L297.322 76.8298C290.418 70.932 280.496 66.8928 267.656 64.6353L267.31 66.605ZM296.033 78.3584C302.518 83.7631 305.753 90.7586 305.753 99.4302H307.753C307.753 90.1817 304.267 82.6172 297.313 76.8219L296.033 78.3584ZM305.753 99.4302V113.29H307.753V99.4302H305.753ZM305.753 113.29C305.753 120.508 303.715 126.879 299.646 132.44L301.26 133.621C305.591 127.702 307.753 120.913 307.753 113.29H305.753ZM299.636 132.453C295.697 138.022 290.113 142.395 282.835 145.553L283.631 147.388C291.193 144.106 297.088 139.518 301.269 133.608L299.636 132.453ZM282.849 145.547C275.575 148.566 267.099 150.09 257.403 150.09V152.09C267.306 152.09 276.051 150.534 283.616 147.394L282.849 145.547ZM257.403 150.09H233.253V152.09H257.403V150.09ZM348.385 144.16L347.891 145.029L347.897 145.033L348.385 144.16ZM329.485 124.63L328.6 125.095L328.603 125.101L329.485 124.63ZM329.485 27.4001L328.606 26.9243L328.603 26.9296L329.485 27.4001ZM348.805 7.66015L348.323 6.78392L348.317 6.7874L348.805 7.66015ZM427.765 7.45014L428.255 6.57816L428.255 6.57816L427.765 7.45014ZM446.245 26.3502L445.363 26.8215L445.368 26.8307L445.373 26.8397L446.245 26.3502ZM452.965 54.2802V55.2802H453.965V54.2802H452.965ZM424.405 54.2802H423.405V55.2802H424.405V54.2802ZM417.685 34.1202L416.929 34.7744L416.938 34.7845L417.685 34.1202ZM358.885 35.1702L359.655 35.8085L359.663 35.7993L358.885 35.1702ZM358.675 116.86L357.889 117.478L357.896 117.487L358.675 116.86ZM417.685 116.86L416.916 116.222L416.911 116.227L416.906 116.233L417.685 116.86ZM424.825 94.1802V93.1802H423.825V94.1802H424.825ZM453.385 94.1802H454.385V93.1802H453.385V94.1802ZM446.665 124.21L447.551 124.675L447.554 124.669L446.665 124.21ZM427.765 144.16L428.26 145.029L428.271 145.023L427.765 144.16ZM376.945 150.09C366.312 150.09 356.965 147.813 348.873 143.287L347.897 145.033C356.326 149.747 366.018 152.09 376.945 152.09V150.09ZM348.88 143.291C340.927 138.766 334.76 132.396 330.368 124.16L328.603 125.101C333.17 133.664 339.603 140.314 347.891 145.029L348.88 143.291ZM330.371 124.166C325.976 115.789 323.765 106.152 323.765 95.2302H321.765C321.765 106.428 324.034 116.392 328.6 125.095L330.371 124.166ZM323.765 95.2302V56.5901H321.765V95.2302H323.765ZM323.765 56.5901C323.765 45.6676 325.977 36.1041 330.368 27.8707L328.603 26.9296C324.034 35.4962 321.765 45.3927 321.765 56.5901H323.765ZM330.365 27.876C334.897 19.4981 341.203 13.0579 349.293 8.53291L348.317 6.7874C339.887 11.5024 333.314 18.2222 328.606 26.9243L330.365 27.876ZM349.287 8.53637C357.52 4.00829 367.01 1.73016 377.785 1.73016V-0.269845C366.721 -0.269845 356.891 2.07202 348.323 6.78394L349.287 8.53637ZM377.785 1.73016H400.045V-0.269845H377.785V1.73016ZM400.045 1.73016C410.399 1.73016 419.466 3.93776 427.276 8.32213L428.255 6.57816C420.105 2.00255 410.691 -0.269845 400.045 -0.269845V1.73016ZM427.276 8.32213C435.088 12.7082 441.113 18.8687 445.363 26.8215L447.127 25.8788C442.698 17.5916 436.402 11.1521 428.255 6.57816L427.276 8.32213ZM445.373 26.8397C449.757 34.6474 451.965 43.7835 451.965 54.2802H453.965C453.965 43.4968 451.694 34.0129 447.117 25.8606L445.373 26.8397ZM452.965 53.2802H424.405V55.2802H452.965V53.2802ZM425.405 54.2802C425.405 45.6978 423.113 38.7207 418.433 33.4558L416.938 34.7845C421.218 39.5996 423.405 46.0625 423.405 54.2802H425.405ZM418.442 33.466C413.759 28.0511 407.595 25.3502 400.045 25.3502V27.3502C407.056 27.3502 412.652 29.8292 416.929 34.7743L418.442 33.466ZM400.045 25.3502H377.785V27.3502H400.045V25.3502ZM377.785 25.3502C369.656 25.3502 363.066 28.4167 358.108 34.541L359.663 35.7993C364.225 30.1636 370.234 27.3502 377.785 27.3502V25.3502ZM358.116 34.5318C353.172 40.4936 350.745 48.2987 350.745 57.8502H352.745C352.745 48.6416 355.079 41.3267 359.655 35.8085L358.116 34.5318ZM350.745 57.8502V93.9702H352.745V57.8502H350.745ZM350.745 93.9702C350.745 103.516 353.098 111.381 357.889 117.478L359.462 116.242C355.012 110.579 352.745 103.184 352.745 93.9702H350.745ZM357.896 117.487C362.712 123.47 369.092 126.47 376.945 126.47V124.47C369.679 124.47 363.879 121.73 359.454 116.233L357.896 117.487ZM376.945 126.47H399.625V124.47H376.945V126.47ZM399.625 126.47C407.346 126.47 413.653 123.465 418.464 117.487L416.906 116.233C412.478 121.735 406.745 124.47 399.625 124.47V126.47ZM418.455 117.498C423.399 111.537 425.825 103.732 425.825 94.1802H423.825C423.825 103.389 421.492 110.704 416.916 116.222L418.455 117.498ZM424.825 95.1802H453.385V93.1802H424.825V95.1802ZM452.385 94.1802C452.385 105.386 450.173 115.235 445.777 123.752L447.554 124.669C452.118 115.826 454.385 105.654 454.385 94.1802H452.385ZM445.78 123.746C441.384 132.124 435.214 138.634 427.26 143.297L428.271 145.023C436.557 140.166 442.986 133.376 447.551 124.675L445.78 123.746ZM427.271 143.291C419.321 147.814 410.116 150.09 399.625 150.09V152.09C410.414 152.09 419.969 149.746 428.26 145.029L427.271 143.291ZM399.625 150.09H376.945V152.09H399.625V150.09ZM471.545 2.41015V1.41015H470.545V2.41015H471.545ZM580.325 12.7002L579.66 13.4468L579.667 13.4527L580.325 12.7002ZM585.785 73.6001L584.993 72.9904L584.99 72.9935L585.785 73.6001ZM567.935 85.7802L567.599 84.8384L566.935 85.0754V85.7802H567.935ZM567.935 86.2002H566.935V86.74L567.387 87.0362L567.935 86.2002ZM578.015 96.2802L577.155 96.79L577.162 96.8016L577.169 96.813L578.015 96.2802ZM584.945 112.03L585.899 111.73L585.897 111.722L585.894 111.714L584.945 112.03ZM596.705 149.41V150.41H598.068L597.659 149.11L596.705 149.41ZM566.675 149.41L565.723 149.714L565.945 150.41H566.675V149.41ZM555.545 114.55L554.588 114.84L554.59 114.847L554.593 114.854L555.545 114.55ZM547.985 101.11L547.311 101.849L547.311 101.849L547.985 101.11ZM500.525 96.7002V95.7002H499.525V96.7002H500.525ZM500.525 149.41V150.41H501.525V149.41H500.525ZM471.545 149.41H470.545V150.41H471.545V149.41ZM558.065 67.0902L558.741 67.8273L558.749 67.8198L558.757 67.8121L558.065 67.0902ZM559.325 31.3901L558.618 32.0973L558.628 32.1074L558.639 32.1172L559.325 31.3901ZM500.525 27.6101V26.6101H499.525V27.6101H500.525ZM500.525 71.7102H499.525V72.7102H500.525V71.7102ZM471.545 3.41015H549.665V1.41015H471.545V3.41015ZM549.665 3.41015C562.22 3.41015 572.184 6.78601 579.66 13.4468L580.991 11.9535C573.067 4.89428 562.591 1.41015 549.665 1.41015V3.41015ZM579.667 13.4527C587.272 20.1073 591.085 28.854 591.085 39.7902H593.085C593.085 28.3263 589.059 19.013 580.984 11.9476L579.667 13.4527ZM591.085 39.7902V54.4902H593.085V39.7902H591.085ZM591.085 54.4902C591.085 61.563 589.05 67.7156 584.993 72.9904L586.578 74.2099C590.92 68.5647 593.085 61.9773 593.085 54.4902H591.085ZM584.99 72.9935C581.073 78.1262 575.301 82.0876 567.599 84.8384L568.272 86.7219C576.249 83.8728 582.377 79.7141 586.58 74.2068L584.99 72.9935ZM566.935 85.7802V86.2002H568.935V85.7802H566.935ZM567.387 87.0362C571.767 89.9107 575.008 93.1667 577.155 96.79L578.876 95.7703C576.543 91.8337 573.064 88.3697 568.484 85.3641L567.387 87.0362ZM577.169 96.813C579.489 100.498 581.769 105.664 583.997 112.346L585.894 111.714C583.642 104.957 581.302 99.6227 578.862 95.7473L577.169 96.813ZM583.991 112.33L595.751 149.71L597.659 149.11L585.899 111.73L583.991 112.33ZM596.705 148.41H566.675V150.41H596.705V148.41ZM567.628 149.106L556.498 114.246L554.593 114.854L565.723 149.714L567.628 149.106ZM556.503 114.261C554.652 108.14 552.059 103.475 548.66 100.372L547.311 101.849C550.352 104.625 552.799 108.92 554.588 114.84L556.503 114.261ZM548.66 100.372C545.238 97.2474 541 95.7002 536.015 95.7002V97.7002C540.551 97.7002 544.293 99.0929 547.311 101.849L548.66 100.372ZM536.015 95.7002H500.525V97.7002H536.015V95.7002ZM499.525 96.7002V149.41H501.525V96.7002H499.525ZM500.525 148.41H471.545V150.41H500.525V148.41ZM472.545 149.41V2.41015H470.545V149.41H472.545ZM544.205 72.7102C550.261 72.7102 555.148 71.1209 558.741 67.8273L557.39 66.353C554.263 69.2194 549.91 70.7102 544.205 70.7102V72.7102ZM558.757 67.8121C562.332 64.3868 564.105 59.9876 564.105 54.7001H562.105C562.105 59.4927 560.519 63.3535 557.373 66.3682L558.757 67.8121ZM564.105 54.7001V41.0501H562.105V54.7001H564.105ZM564.105 41.0501C564.105 36.7663 562.767 33.2646 560.012 30.6631L558.639 32.1172C560.924 34.2757 562.105 37.214 562.105 41.0501H564.105ZM560.033 30.683C557.292 27.9423 553.66 26.6101 549.245 26.6101V28.6101C553.231 28.6101 556.319 29.798 558.618 32.0973L560.033 30.683ZM549.245 26.6101H500.525V28.6101H549.245V26.6101ZM499.525 27.6101V71.7102H501.525V27.6101H499.525ZM500.525 72.7102H544.205V70.7102H500.525V72.7102ZM635.519 144.16L635.026 145.03L635.035 145.035L635.043 145.04L635.519 144.16ZM615.779 124.42L614.9 124.896L614.904 124.905L614.909 124.913L615.779 124.42ZM615.779 27.6101L614.906 27.1233L614.903 27.1282L615.779 27.6101ZM635.519 7.87015L636.001 8.74638L636.006 8.74363L635.519 7.87015ZM716.369 7.87015L715.876 8.74017L715.885 8.74502L715.893 8.74969L716.369 7.87015ZM736.109 27.6101L735.23 28.086L735.234 28.0946L735.239 28.1032L736.109 27.6101ZM736.109 124.42L735.236 123.933L735.233 123.938L736.109 124.42ZM716.369 144.16L716.851 145.036L716.856 145.034L716.369 144.16ZM706.709 116.65L705.95 115.999L705.941 116.01L706.709 116.65ZM706.709 35.1702L705.941 35.8104L705.95 35.8209L706.709 35.1702ZM645.179 35.1702L644.42 34.5193L644.411 34.53L645.179 35.1702ZM645.179 116.65L644.411 117.29L644.42 117.301L645.179 116.65ZM664.919 150.09C654.002 150.09 644.37 147.811 635.995 143.281L635.043 145.04C643.749 149.749 653.717 152.09 664.919 152.09V150.09ZM636.012 143.29C627.77 138.619 621.32 132.17 616.649 123.927L614.909 124.913C619.759 133.471 626.469 140.181 635.026 145.03L636.012 143.29ZM616.659 123.944C612.129 115.572 609.849 105.87 609.849 94.8102H607.849C607.849 106.151 610.189 116.189 614.9 124.896L616.659 123.944ZM609.849 94.8102V57.0102H607.849V94.8102H609.849ZM609.849 57.0102C609.849 45.9501 612.129 36.3213 616.656 28.0921L614.903 27.1282C610.189 35.699 607.849 45.6701 607.849 57.0102H609.849ZM616.653 28.097C621.323 19.7175 627.769 13.274 636.001 8.74637L635.037 6.99394C626.469 11.7063 619.755 18.4228 614.906 27.1233L616.653 28.097ZM636.006 8.74363C644.379 4.077 654.007 1.73016 664.919 1.73016V-0.269845C653.712 -0.269845 643.74 2.1433 635.032 6.99667L636.006 8.74363ZM664.919 1.73016H687.179V-0.269845H664.919V1.73016ZM687.179 1.73016C698.092 1.73016 707.647 4.07712 715.876 8.74017L716.862 7.00013C708.291 2.14319 698.387 -0.269845 687.179 -0.269845V1.73016ZM715.893 8.74969C724.263 13.2772 730.702 19.7169 735.23 28.086L736.989 27.1343C732.276 18.4234 725.556 11.7031 716.845 6.99061L715.893 8.74969ZM735.239 28.1032C739.901 36.3303 742.249 45.955 742.249 57.0102H744.249C744.249 45.6653 741.837 35.69 736.979 27.1171L735.239 28.1032ZM742.249 57.0102V94.8102H744.249V57.0102H742.249ZM742.249 94.8102C742.249 105.865 739.901 115.563 735.236 123.933L736.983 124.907C741.837 116.198 744.249 106.155 744.249 94.8102H742.249ZM735.233 123.938C730.705 132.17 724.262 138.616 715.882 143.287L716.856 145.034C725.557 140.184 732.273 133.47 736.986 124.902L735.233 123.938ZM715.887 143.284C707.656 147.811 698.097 150.09 687.179 150.09V152.09C698.382 152.09 708.282 149.749 716.851 145.036L715.887 143.284ZM687.179 150.09H664.919V152.09H687.179V150.09ZM687.179 126.47C695.575 126.47 702.375 123.414 707.478 117.29L705.941 116.01C701.244 121.647 695.023 124.47 687.179 124.47V126.47ZM707.469 117.301C712.697 111.201 715.269 103.252 715.269 93.5502H713.269C713.269 102.888 710.801 110.34 705.95 115.999L707.469 117.301ZM715.269 93.5502V58.2702H713.269V93.5502H715.269ZM715.269 58.2702C715.269 48.5683 712.697 40.6195 707.469 34.5194L705.95 35.8209C710.801 41.4808 713.269 48.932 713.269 58.2702H715.269ZM707.478 34.53C702.375 28.4066 695.575 25.3502 687.179 25.3502V27.3502C695.023 27.3502 701.244 30.1737 705.941 35.8103L707.478 34.53ZM687.179 25.3502H664.919V27.3502H687.179V25.3502ZM664.919 25.3502C656.524 25.3502 649.66 28.4057 644.42 34.5194L645.939 35.8209C650.778 30.1746 657.075 27.3502 664.919 27.3502V25.3502ZM644.411 34.53C639.328 40.6302 636.829 48.575 636.829 58.2702H638.829C638.829 48.9253 641.231 41.4701 645.948 35.8103L644.411 34.53ZM636.829 58.2702V93.5502H638.829V58.2702H636.829ZM636.829 93.5502C636.829 103.245 639.328 111.19 644.411 117.29L645.948 116.01C641.231 110.35 638.829 102.895 638.829 93.5502H636.829ZM644.42 117.301C649.66 123.415 656.524 126.47 664.919 126.47V124.47C657.075 124.47 650.778 121.646 645.939 115.999L644.42 117.301ZM664.919 126.47H687.179V124.47H664.919V126.47ZM780.162 133.03L779.181 133.226L779.182 133.231L780.162 133.03ZM754.122 2.41015V1.41015H752.903L753.141 2.60566L754.122 2.41015ZM783.522 2.41015L784.507 2.23964L784.364 1.41015H783.522V2.41015ZM801.582 106.78L800.596 106.951L800.74 107.78H801.582V106.78ZM802.002 106.78V107.78H802.735L802.955 107.081L802.002 106.78ZM832.452 10.1801V9.18015H831.718L831.498 9.87951L832.452 10.1801ZM851.982 12.9101L851.396 13.7208L851.407 13.7283L851.417 13.7355L851.982 12.9101ZM858.072 22.7801L857.112 23.0623L857.115 23.0725L858.072 22.7801ZM883.692 106.57L882.735 106.863L882.952 107.57H883.692V106.57ZM884.112 106.57V107.57H884.953L885.097 106.741L884.112 106.57ZM902.172 2.41015V1.41015H901.33L901.186 2.23931L902.172 2.41015ZM931.572 2.41015L932.552 2.60717L932.793 1.41015H931.572V2.41015ZM905.322 133.03L904.341 132.833L904.341 132.834L905.322 133.03ZM899.022 145.42L898.368 144.663L898.359 144.671L898.351 144.679L899.022 145.42ZM874.662 149.41L873.707 149.707L873.925 150.41H874.662V149.41ZM843.372 48.6102L844.327 48.3137L844.108 47.6102H843.372V48.6102ZM842.952 48.6102V47.6102H842.219L841.998 48.3083L842.952 48.6102ZM811.032 149.41V150.41H811.764L811.985 149.712L811.032 149.41ZM798.852 148.41C794.264 148.41 790.493 147.266 787.476 145.036L786.287 146.644C789.71 149.174 793.919 150.41 798.852 150.41V148.41ZM787.476 145.036C784.541 142.867 782.379 138.88 781.141 132.83L779.182 133.231C780.465 139.501 782.782 144.054 786.287 146.644L787.476 145.036ZM781.142 132.835L755.102 2.21464L753.141 2.60566L779.181 133.226L781.142 132.835ZM754.122 3.41015H783.522V1.41015H754.122V3.41015ZM782.536 2.58065L800.596 106.951L802.567 106.61L784.507 2.23964L782.536 2.58065ZM801.582 107.78H802.002V105.78H801.582V107.78ZM802.955 107.081L833.405 10.4808L831.498 9.87951L801.048 106.48L802.955 107.081ZM832.452 11.1801H842.952V9.18015H832.452V11.1801ZM842.952 11.1801C846.269 11.1801 849.068 12.0392 851.396 13.7208L852.567 12.0995C849.856 10.1411 846.634 9.18015 842.952 9.18015V11.1801ZM851.417 13.7355C853.808 15.3714 855.744 18.4101 857.112 23.0623L859.031 22.498C857.599 17.6302 855.475 14.0889 852.546 12.0848L851.417 13.7355ZM857.115 23.0725L882.735 106.863L884.648 106.278L859.028 22.4877L857.115 23.0725ZM883.692 107.57H884.112V105.57H883.692V107.57ZM885.097 106.741L903.157 2.58098L901.186 2.23931L883.126 106.399L885.097 106.741ZM902.172 3.41015H931.572V1.41015H902.172V3.41015ZM930.591 2.21312L904.341 132.833L906.302 133.227L932.552 2.60717L930.591 2.21312ZM904.341 132.834C903.248 138.302 901.224 142.197 898.368 144.663L899.675 146.177C902.98 143.323 905.156 138.958 906.302 133.226L904.341 132.834ZM898.351 144.679C895.645 147.127 891.852 148.41 886.842 148.41V150.41C892.192 150.41 896.518 149.034 899.693 146.162L898.351 144.679ZM886.842 148.41H874.662V150.41H886.842V148.41ZM875.617 149.114L844.327 48.3137L842.417 48.9066L873.707 149.707L875.617 149.114ZM843.372 47.6102H842.952V49.6102H843.372V47.6102ZM841.998 48.3083L810.078 149.108L811.985 149.712L843.905 48.912L841.998 48.3083ZM811.032 148.41H798.852V150.41H811.032V148.41Z" fill="url(#paint0_linear_622_141)" mask="url(#path-1-outside-1_622_141)"/>
<defs>
<linearGradient id="paint0_linear_622_141" x1="-15" y1="70.9102" x2="935" y2="70.9102" gradientUnits="userSpaceOnUse">
<stop stop-color="#F469E2"/>
<stop offset="1" stop-color="#30C2E2" stop-opacity="0.6"/>
</linearGradient>
</defs>
</svg>
