<svg width="1178" height="172" viewBox="0 0 1178 172" fill="none" xmlns="http://www.w3.org/2000/svg">
<mask id="path-1-outside-1_867_133" maskUnits="userSpaceOnUse" x="-1.01562" y="-0.945312" width="1180" height="174" fill="black">
<rect fill="white" x="-1.01562" y="-0.945312" width="1180" height="174"/>
<path d="M24.1444 170.055C17.1044 170.055 11.4244 168.055 7.10438 164.055C2.94438 159.895 0.864376 154.455 0.864376 147.735V2.05468H33.9844V141.255H125.184V170.055H24.1444ZM165.238 170.055C158.358 170.055 152.758 167.975 148.438 163.815C144.118 159.655 141.958 154.215 141.958 147.495V2.05468H270.118V30.8547H175.078V69.7347H262.918V98.5347H175.078V141.255H270.118V170.055H165.238ZM391.061 130.935H328.181L313.301 170.055H278.741L344.501 2.05468H359.381C369.781 2.05468 376.821 6.85468 380.501 16.4547L440.261 170.055H405.701L391.061 130.935ZM337.061 103.095H382.181L359.861 42.6147H359.621L337.061 103.095ZM456.021 2.05468H545.301C559.861 2.05468 571.541 5.97468 580.341 13.8147C589.301 21.6547 593.781 31.9747 593.781 44.7747V61.5747C593.781 69.8947 591.381 77.1747 586.581 83.4147C581.941 89.4947 575.141 94.1347 566.181 97.3347V97.8147C571.301 101.175 575.141 105.015 577.701 109.335C580.421 113.655 583.061 119.655 585.621 127.335L599.061 170.055H564.741L552.021 130.215C549.941 123.335 547.061 118.215 543.381 114.855C539.701 111.495 535.141 109.815 529.701 109.815H489.141V170.055H456.021V2.05468ZM539.061 81.2547C545.781 81.2547 551.061 79.4947 554.901 75.9747C558.741 72.2947 560.661 67.5747 560.661 61.8147V46.2147C560.661 41.5747 559.221 37.8947 556.341 35.1747C553.461 32.2947 549.621 30.8547 544.821 30.8547H489.141V81.2547H539.061ZM618.677 2.05468H648.197L728.837 116.295V2.05468H761.237V170.055H731.717L651.077 55.8147V170.055H618.677V2.05468ZM793.343 2.05468H826.463V170.055H793.343V2.05468ZM858.677 2.05468H888.197L968.837 116.295V2.05468H1001.24V170.055H971.717L891.077 55.8147V170.055H858.677V2.05468ZM1088.54 171.975C1076.22 171.975 1065.34 169.335 1055.9 164.055C1046.46 158.775 1039.1 151.335 1033.82 141.735C1028.7 131.975 1026.14 120.775 1026.14 108.135V63.9747C1026.14 51.3347 1028.7 40.2147 1033.82 30.6147C1039.1 20.8547 1046.46 13.3347 1055.9 8.05468C1065.5 2.77469 1076.54 0.134686 1089.02 0.134686H1115.9C1127.9 0.134686 1138.46 2.53468 1147.58 7.33468C1156.7 12.1347 1163.74 18.9347 1168.7 27.7347C1173.82 36.5347 1176.38 46.6947 1176.38 58.2147H1143.74C1143.74 49.5747 1141.18 42.6147 1136.06 37.3347C1130.94 32.0547 1124.22 29.4147 1115.9 29.4147H1089.02C1080.06 29.4147 1072.86 32.7747 1067.42 39.4947C1061.98 46.0547 1059.26 54.6947 1059.26 65.4147V106.695C1059.26 117.415 1061.9 126.135 1067.18 132.855C1072.62 139.415 1079.74 142.695 1088.54 142.695H1116.86C1125.02 142.695 1131.74 139.735 1137.02 133.815C1142.46 127.895 1145.18 120.535 1145.18 111.735V106.455H1098.62V77.6547H1177.82V111.735C1177.82 123.415 1175.26 133.815 1170.14 142.935C1165.02 152.055 1157.82 159.175 1148.54 164.295C1139.26 169.415 1128.7 171.975 1116.86 171.975H1088.54Z"/>
</mask>
<path d="M7.10438 164.055L6.39727 164.762L6.41086 164.775L6.42497 164.788L7.10438 164.055ZM0.864376 2.05468V1.05468H-0.135624V2.05468H0.864376ZM33.9844 2.05468H34.9844V1.05468H33.9844V2.05468ZM33.9844 141.255H32.9844V142.255H33.9844V141.255ZM125.184 141.255H126.184V140.255H125.184V141.255ZM125.184 170.055V171.055H126.184V170.055H125.184ZM24.1444 169.055C17.3041 169.055 11.8839 167.117 7.78378 163.321L6.42497 164.788C10.9649 168.992 16.9047 171.055 24.1444 171.055V169.055ZM7.81148 163.348C3.86615 159.402 1.86438 154.23 1.86438 147.735H-0.135624C-0.135624 154.679 2.02261 160.387 6.39727 164.762L7.81148 163.348ZM1.86438 147.735V2.05468H-0.135624V147.735H1.86438ZM0.864376 3.05468H33.9844V1.05468H0.864376V3.05468ZM32.9844 2.05468V141.255H34.9844V2.05468H32.9844ZM33.9844 142.255H125.184V140.255H33.9844V142.255ZM124.184 141.255V170.055H126.184V141.255H124.184ZM125.184 169.055H24.1444V171.055H125.184V169.055ZM148.438 163.815L147.744 164.535L147.744 164.535L148.438 163.815ZM141.958 2.05468V1.05468H140.958V2.05468H141.958ZM270.118 2.05468H271.118V1.05468H270.118V2.05468ZM270.118 30.8547V31.8547H271.118V30.8547H270.118ZM175.078 30.8547V29.8547H174.078V30.8547H175.078ZM175.078 69.7347H174.078V70.7347H175.078V69.7347ZM262.918 69.7347H263.918V68.7347H262.918V69.7347ZM262.918 98.5347V99.5347H263.918V98.5347H262.918ZM175.078 98.5347V97.5347H174.078V98.5347H175.078ZM175.078 141.255H174.078V142.255H175.078V141.255ZM270.118 141.255H271.118V140.255H270.118V141.255ZM270.118 170.055V171.055H271.118V170.055H270.118ZM165.238 169.055C158.576 169.055 153.238 167.048 149.132 163.094L147.744 164.535C152.278 168.901 158.141 171.055 165.238 171.055V169.055ZM149.132 163.094C145.032 159.146 142.958 153.979 142.958 147.495H140.958C140.958 154.45 143.204 160.163 147.744 164.535L149.132 163.094ZM142.958 147.495V2.05468H140.958V147.495H142.958ZM141.958 3.05468H270.118V1.05468H141.958V3.05468ZM269.118 2.05468V30.8547H271.118V2.05468H269.118ZM270.118 29.8547H175.078V31.8547H270.118V29.8547ZM174.078 30.8547V69.7347H176.078V30.8547H174.078ZM175.078 70.7347H262.918V68.7347H175.078V70.7347ZM261.918 69.7347V98.5347H263.918V69.7347H261.918ZM262.918 97.5347H175.078V99.5347H262.918V97.5347ZM174.078 98.5347V141.255H176.078V98.5347H174.078ZM175.078 142.255H270.118V140.255H175.078V142.255ZM269.118 141.255V170.055H271.118V141.255H269.118ZM270.118 169.055H165.238V171.055H270.118V169.055ZM391.061 130.935L391.998 130.584L391.755 129.935H391.061V130.935ZM328.181 130.935V129.935H327.492L327.247 130.579L328.181 130.935ZM313.301 170.055V171.055H313.991L314.236 170.41L313.301 170.055ZM278.741 170.055L277.81 169.69L277.276 171.055H278.741V170.055ZM344.501 2.05468V1.05468H343.819L343.57 1.69018L344.501 2.05468ZM380.501 16.4547L379.568 16.8126L379.569 16.8173L380.501 16.4547ZM440.261 170.055V171.055H441.723L441.193 169.692L440.261 170.055ZM405.701 170.055L404.765 170.405L405.008 171.055H405.701V170.055ZM337.061 103.095L336.124 102.745L335.621 104.095H337.061V103.095ZM382.181 103.095V104.095H383.616L383.119 102.748L382.181 103.095ZM359.861 42.6147L360.799 42.2685L360.558 41.6147H359.861V42.6147ZM359.621 42.6147V41.6147H358.927L358.684 42.2652L359.621 42.6147ZM391.061 129.935H328.181V131.935H391.061V129.935ZM327.247 130.579L312.367 169.699L314.236 170.41L329.116 131.29L327.247 130.579ZM313.301 169.055H278.741V171.055H313.301V169.055ZM279.672 170.419L345.432 2.41918L343.57 1.69018L277.81 169.69L279.672 170.419ZM344.501 3.05468H359.381V1.05468H344.501V3.05468ZM359.381 3.05468C364.425 3.05468 368.578 4.217 371.898 6.4809C375.217 8.74421 377.785 12.1628 379.568 16.8126L381.435 16.0967C379.537 11.1465 376.745 7.36515 373.025 4.82845C369.305 2.29235 364.737 1.05468 359.381 1.05468V3.05468ZM379.569 16.8173L439.329 170.417L441.193 169.692L381.433 16.0921L379.569 16.8173ZM440.261 169.055H405.701V171.055H440.261V169.055ZM406.638 169.704L391.998 130.584L390.125 131.285L404.765 170.405L406.638 169.704ZM337.061 104.095H382.181V102.095H337.061V104.095ZM383.119 102.748L360.799 42.2685L358.923 42.9609L381.243 103.441L383.119 102.748ZM359.861 41.6147H359.621V43.6147H359.861V41.6147ZM358.684 42.2652L336.124 102.745L337.998 103.444L360.558 42.9642L358.684 42.2652ZM456.021 2.05468V1.05468H455.021V2.05468H456.021ZM580.341 13.8147L579.675 14.5614L579.682 14.5673L580.341 13.8147ZM586.581 83.4147L585.788 82.805L585.786 82.808L586.581 83.4147ZM566.181 97.3347L565.844 96.3929L565.181 96.63V97.3347H566.181ZM566.181 97.8147H565.181V98.3545L565.632 98.6507L566.181 97.8147ZM577.701 109.335L576.84 109.844L576.847 109.856L576.854 109.867L577.701 109.335ZM585.621 127.335L586.575 127.035L586.572 127.026L586.569 127.018L585.621 127.335ZM599.061 170.055V171.055H600.424L600.015 169.755L599.061 170.055ZM564.741 170.055L563.788 170.359L564.01 171.055H564.741V170.055ZM552.021 130.215L551.063 130.504L551.066 130.511L551.068 130.519L552.021 130.215ZM543.381 114.855L542.706 115.593L542.706 115.593L543.381 114.855ZM489.141 109.815V108.815H488.141V109.815H489.141ZM489.141 170.055V171.055H490.141V170.055H489.141ZM456.021 170.055H455.021V171.055H456.021V170.055ZM554.901 75.9747L555.576 76.7118L555.585 76.7043L555.593 76.6967L554.901 75.9747ZM556.341 35.1747L555.634 35.8818L555.644 35.8919L555.654 35.9017L556.341 35.1747ZM489.141 30.8547V29.8547H488.141V30.8547H489.141ZM489.141 81.2547H488.141V82.2547H489.141V81.2547ZM456.021 3.05468H545.301V1.05468H456.021V3.05468ZM545.301 3.05468C559.676 3.05468 571.099 6.92054 579.675 14.5613L581.006 13.068C571.982 5.02881 560.046 1.05468 545.301 1.05468V3.05468ZM579.682 14.5673C588.407 22.2018 592.781 32.2386 592.781 44.7747H594.781C594.781 31.7108 590.194 21.1075 580.999 13.0621L579.682 14.5673ZM592.781 44.7747V61.5747H594.781V44.7747H592.781ZM592.781 61.5747C592.781 69.6876 590.446 76.7501 585.788 82.805L587.373 84.0244C592.316 77.5992 594.781 70.1018 594.781 61.5747H592.781ZM585.786 82.808C581.289 88.7007 574.667 93.2421 565.844 96.3929L566.517 98.2764C575.615 95.0273 582.593 90.2887 587.376 84.0214L585.786 82.808ZM565.181 97.3347V97.8147H567.181V97.3347H565.181ZM565.632 98.6507C570.652 101.945 574.373 105.681 576.84 109.844L578.561 108.825C575.908 104.348 571.949 100.404 566.729 96.9786L565.632 98.6507ZM576.854 109.867C579.514 114.092 582.124 120.008 584.672 127.651L586.569 127.018C583.997 119.301 581.327 113.217 578.547 108.802L576.854 109.867ZM584.667 127.635L598.107 170.355L600.015 169.755L586.575 127.035L584.667 127.635ZM599.061 169.055H564.741V171.055H599.061V169.055ZM565.693 169.751L552.973 129.911L551.068 130.519L563.788 170.359L565.693 169.751ZM552.978 129.925C550.867 122.945 547.914 117.64 544.055 114.116L542.706 115.593C546.207 118.789 549.014 123.725 551.063 130.504L552.978 129.925ZM544.055 114.116C540.173 110.572 535.365 108.815 529.701 108.815V110.815C534.916 110.815 539.228 112.417 542.706 115.593L544.055 114.116ZM529.701 108.815H489.141V110.815H529.701V108.815ZM488.141 109.815V170.055H490.141V109.815H488.141ZM489.141 169.055H456.021V171.055H489.141V169.055ZM457.021 170.055V2.05468H455.021V170.055H457.021ZM539.061 82.2547C545.956 82.2547 551.503 80.4455 555.576 76.7118L554.225 75.2375C550.618 78.5439 545.605 80.2547 539.061 80.2547V82.2547ZM555.593 76.6967C559.647 72.8114 561.661 67.8221 561.661 61.8147H559.661C559.661 67.3272 557.834 71.778 554.209 75.2527L555.593 76.6967ZM561.661 61.8147V46.2147H559.661V61.8147H561.661ZM561.661 46.2147C561.661 41.3508 560.142 37.3891 557.027 34.4477L555.654 35.9017C558.3 38.4002 559.661 41.7985 559.661 46.2147H561.661ZM557.048 34.4676C553.947 31.3668 549.835 29.8547 544.821 29.8547V31.8547C549.406 31.8547 552.974 33.2225 555.634 35.8818L557.048 34.4676ZM544.821 29.8547H489.141V31.8547H544.821V29.8547ZM488.141 30.8547V81.2547H490.141V30.8547H488.141ZM489.141 82.2547H539.061V80.2547H489.141V82.2547ZM618.677 2.05468V1.05468H617.677V2.05468H618.677ZM648.197 2.05468L649.014 1.47799L648.715 1.05468H648.197V2.05468ZM728.837 116.295L728.02 116.871L729.837 119.445V116.295H728.837ZM728.837 2.05468V1.05468H727.837V2.05468H728.837ZM761.237 2.05468H762.237V1.05468H761.237V2.05468ZM761.237 170.055V171.055H762.237V170.055H761.237ZM731.717 170.055L730.9 170.631L731.199 171.055H731.717V170.055ZM651.077 55.8147L651.894 55.238L650.077 52.664V55.8147H651.077ZM651.077 170.055V171.055H652.077V170.055H651.077ZM618.677 170.055H617.677V171.055H618.677V170.055ZM618.677 3.05468H648.197V1.05468H618.677V3.05468ZM647.38 2.63136L728.02 116.871L729.654 115.718L649.014 1.47799L647.38 2.63136ZM729.837 116.295V2.05468H727.837V116.295H729.837ZM728.837 3.05468H761.237V1.05468H728.837V3.05468ZM760.237 2.05468V170.055H762.237V2.05468H760.237ZM761.237 169.055H731.717V171.055H761.237V169.055ZM732.534 169.478L651.894 55.238L650.26 56.3914L730.9 170.631L732.534 169.478ZM650.077 55.8147V170.055H652.077V55.8147H650.077ZM651.077 169.055H618.677V171.055H651.077V169.055ZM619.677 170.055V2.05468H617.677V170.055H619.677ZM793.343 2.05468V1.05468H792.343V2.05468H793.343ZM826.463 2.05468H827.463V1.05468H826.463V2.05468ZM826.463 170.055V171.055H827.463V170.055H826.463ZM793.343 170.055H792.343V171.055H793.343V170.055ZM793.343 3.05468H826.463V1.05468H793.343V3.05468ZM825.463 2.05468V170.055H827.463V2.05468H825.463ZM826.463 169.055H793.343V171.055H826.463V169.055ZM794.343 170.055V2.05468H792.343V170.055H794.343ZM858.677 2.05468V1.05468H857.677V2.05468H858.677ZM888.197 2.05468L889.014 1.47799L888.715 1.05468H888.197V2.05468ZM968.837 116.295L968.02 116.871L969.837 119.445V116.295H968.837ZM968.837 2.05468V1.05468H967.837V2.05468H968.837ZM1001.24 2.05468H1002.24V1.05468H1001.24V2.05468ZM1001.24 170.055V171.055H1002.24V170.055H1001.24ZM971.717 170.055L970.9 170.631L971.199 171.055H971.717V170.055ZM891.077 55.8147L891.894 55.238L890.077 52.664V55.8147H891.077ZM891.077 170.055V171.055H892.077V170.055H891.077ZM858.677 170.055H857.677V171.055H858.677V170.055ZM858.677 3.05468H888.197V1.05468H858.677V3.05468ZM887.38 2.63136L968.02 116.871L969.654 115.718L889.014 1.47799L887.38 2.63136ZM969.837 116.295V2.05468H967.837V116.295H969.837ZM968.837 3.05468H1001.24V1.05468H968.837V3.05468ZM1000.24 2.05468V170.055H1002.24V2.05468H1000.24ZM1001.24 169.055H971.717V171.055H1001.24V169.055ZM972.534 169.478L891.894 55.238L890.26 56.3914L970.9 170.631L972.534 169.478ZM890.077 55.8147V170.055H892.077V55.8147H890.077ZM891.077 169.055H858.677V171.055H891.077V169.055ZM859.677 170.055V2.05468H857.677V170.055H859.677ZM1055.9 164.055L1055.41 164.927L1055.41 164.927L1055.9 164.055ZM1033.82 141.735L1032.94 142.199L1032.94 142.208L1032.95 142.217L1033.82 141.735ZM1033.82 30.6147L1032.94 30.1389L1032.94 30.1441L1033.82 30.6147ZM1055.9 8.05468L1055.42 7.17845L1055.41 7.18193L1055.9 8.05468ZM1147.58 7.33468L1148.05 6.44976L1148.05 6.44976L1147.58 7.33468ZM1168.7 27.7347L1167.83 28.2257L1167.84 28.2376L1168.7 27.7347ZM1176.38 58.2147V59.2147H1177.38V58.2147H1176.38ZM1143.74 58.2147H1142.74V59.2147H1143.74V58.2147ZM1136.06 37.3347L1135.34 38.0308L1135.34 38.0308L1136.06 37.3347ZM1067.42 39.4947L1068.19 40.1331L1068.2 40.1239L1067.42 39.4947ZM1067.18 132.855L1066.4 133.473L1066.4 133.483L1066.41 133.493L1067.18 132.855ZM1137.02 133.815L1136.29 133.138L1136.28 133.144L1136.28 133.149L1137.02 133.815ZM1145.18 106.455H1146.18V105.455H1145.18V106.455ZM1098.62 106.455H1097.62V107.455H1098.62V106.455ZM1098.62 77.6547V76.6547H1097.62V77.6547H1098.62ZM1177.82 77.6547H1178.82V76.6547H1177.82V77.6547ZM1170.14 142.935L1169.27 142.445L1169.27 142.445L1170.14 142.935ZM1148.54 164.295L1149.03 165.17L1149.03 165.17L1148.54 164.295ZM1088.54 170.975C1076.37 170.975 1065.66 168.367 1056.39 163.182L1055.41 164.927C1065.02 170.302 1076.08 172.975 1088.54 172.975V170.975ZM1056.39 163.182C1047.12 157.995 1039.89 150.691 1034.7 141.253L1032.95 142.217C1038.32 151.978 1045.81 159.555 1055.41 164.927L1056.39 163.182ZM1034.71 141.27C1029.67 131.673 1027.14 120.637 1027.14 108.135H1025.14C1025.14 120.913 1027.73 132.276 1032.94 142.199L1034.71 141.27ZM1027.14 108.135V63.9747H1025.14V108.135H1027.14ZM1027.14 63.9747C1027.14 51.4722 1029.67 40.5186 1034.7 31.0853L1032.94 30.1441C1027.73 39.9108 1025.14 51.1972 1025.14 63.9747H1027.14ZM1034.7 31.0905C1039.89 21.4927 1047.12 14.1124 1056.39 8.92744L1055.41 7.18193C1045.8 12.557 1038.31 20.2167 1032.94 30.1389L1034.7 31.0905ZM1056.38 8.9309C1065.82 3.74282 1076.69 1.13469 1089.02 1.13469V-0.865314C1076.4 -0.865314 1065.19 1.80655 1055.42 7.17847L1056.38 8.9309ZM1089.02 1.13469H1115.9V-0.865314H1089.02V1.13469ZM1115.9 1.13469C1127.77 1.13469 1138.16 3.50673 1147.12 8.2196L1148.05 6.44976C1138.76 1.56264 1128.04 -0.865314 1115.9 -0.865314V1.13469ZM1147.12 8.2196C1156.07 12.9319 1162.97 19.5968 1167.83 28.2257L1169.57 27.2437C1164.52 18.2726 1157.33 11.3374 1148.05 6.44976L1147.12 8.2196ZM1167.84 28.2376C1172.86 36.8656 1175.38 46.8477 1175.38 58.2147H1177.38C1177.38 46.5417 1174.79 36.2037 1169.57 27.2318L1167.84 28.2376ZM1176.38 57.2147H1143.74V59.2147H1176.38V57.2147ZM1144.74 58.2147C1144.74 49.3635 1142.11 42.1374 1136.78 36.6385L1135.34 38.0308C1140.25 43.092 1142.74 49.7859 1142.74 58.2147H1144.74ZM1136.78 36.6385C1131.45 31.1381 1124.45 28.4147 1115.9 28.4147V30.4147C1123.99 30.4147 1130.44 32.9713 1135.34 38.0308L1136.78 36.6385ZM1115.9 28.4147H1089.02V30.4147H1115.9V28.4147ZM1089.02 28.4147C1079.77 28.4147 1072.28 31.9013 1066.65 38.8655L1068.2 40.1239C1073.44 33.6481 1080.35 30.4147 1089.02 30.4147V28.4147ZM1066.65 38.8563C1061.03 45.6381 1058.26 54.5232 1058.26 65.4147H1060.26C1060.26 54.8661 1062.94 46.4712 1068.19 40.133L1066.65 38.8563ZM1058.26 65.4147V106.695H1060.26V65.4147H1058.26ZM1058.26 106.695C1058.26 117.581 1060.95 126.536 1066.4 133.473L1067.97 132.237C1062.86 125.734 1060.26 117.249 1060.26 106.695H1058.26ZM1066.41 133.493C1072.05 140.291 1079.46 143.695 1088.54 143.695V141.695C1080.03 141.695 1073.2 138.539 1067.95 132.216L1066.41 133.493ZM1088.54 143.695H1116.86V141.695H1088.54V143.695ZM1116.86 143.695C1125.3 143.695 1132.29 140.62 1137.77 134.48L1136.28 133.149C1131.19 138.849 1124.75 141.695 1116.86 141.695V143.695ZM1137.76 134.491C1143.39 128.369 1146.18 120.76 1146.18 111.735H1144.18C1144.18 120.31 1141.54 127.421 1136.29 133.138L1137.76 134.491ZM1146.18 111.735V106.455H1144.18V111.735H1146.18ZM1145.18 105.455H1098.62V107.455H1145.18V105.455ZM1099.62 106.455V77.6547H1097.62V106.455H1099.62ZM1098.62 78.6547H1177.82V76.6547H1098.62V78.6547ZM1176.82 77.6547V111.735H1178.82V77.6547H1176.82ZM1176.82 111.735C1176.82 123.264 1174.3 133.492 1169.27 142.445L1171.01 143.424C1176.23 134.138 1178.82 123.566 1178.82 111.735H1176.82ZM1169.27 142.445C1164.24 151.4 1157.18 158.388 1148.06 163.419L1149.03 165.17C1158.47 159.962 1165.8 152.709 1171.01 143.424L1169.27 142.445ZM1148.06 163.419C1138.94 168.448 1128.55 170.975 1116.86 170.975V172.975C1128.85 172.975 1139.58 170.381 1149.03 165.17L1148.06 163.419ZM1116.86 170.975H1088.54V172.975H1116.86V170.975Z" fill="url(#paint0_linear_867_133)" mask="url(#path-1-outside-1_867_133)"/>
<defs>
<linearGradient id="paint0_linear_867_133" x1="-14.0156" y1="80.0547" x2="1194.41" y2="80.0547" gradientUnits="userSpaceOnUse">
<stop stop-color="#F469E2"/>
<stop offset="1" stop-color="#30C2E2" stop-opacity="0.6"/>
</linearGradient>
</defs>
</svg>
