<svg width="1180" height="174" viewBox="0 0 1180 174" fill="none" xmlns="http://www.w3.org/2000/svg">
<mask id="path-1-outside-1_867_133" maskUnits="userSpaceOnUse" x="-0.015625" y="0.0546875" width="1180" height="174" fill="black">
<rect fill="white" x="-0.015625" y="0.0546875" width="1180" height="174"/>
<path d="M25.1444 171.055C18.1044 171.055 12.4244 169.055 8.10438 165.055C3.94438 160.895 1.86438 155.455 1.86438 148.735V3.05468H34.9844V142.255H126.184V171.055H25.1444ZM166.238 171.055C159.358 171.055 153.758 168.975 149.438 164.815C145.118 160.655 142.958 155.215 142.958 148.495V3.05468H271.118V31.8547H176.078V70.7347H263.918V99.5347H176.078V142.255H271.118V171.055H166.238ZM392.061 131.935H329.181L314.301 171.055H279.741L345.501 3.05468H360.381C370.781 3.05468 377.821 7.85468 381.501 17.4547L441.261 171.055H406.701L392.061 131.935ZM338.061 104.095H383.181L360.861 43.6147H360.621L338.061 104.095ZM457.021 3.05468H546.301C560.861 3.05468 572.541 6.97468 581.341 14.8147C590.301 22.6547 594.781 32.9747 594.781 45.7747V62.5747C594.781 70.8947 592.381 78.1747 587.581 84.4147C582.941 90.4947 576.141 95.1347 567.181 98.3347V98.8147C572.301 102.175 576.141 106.015 578.701 110.335C581.421 114.655 584.061 120.655 586.621 128.335L600.061 171.055H565.741L553.021 131.215C550.941 124.335 548.061 119.215 544.381 115.855C540.701 112.495 536.141 110.815 530.701 110.815H490.141V171.055H457.021V3.05468ZM540.061 82.2547C546.781 82.2547 552.061 80.4947 555.901 76.9747C559.741 73.2947 561.661 68.5747 561.661 62.8147V47.2147C561.661 42.5747 560.221 38.8947 557.341 36.1747C554.461 33.2947 550.621 31.8547 545.821 31.8547H490.141V82.2547H540.061ZM619.677 3.05468H649.197L729.837 117.295V3.05468H762.237V171.055H732.717L652.077 56.8147V171.055H619.677V3.05468ZM794.343 3.05468H827.463V171.055H794.343V3.05468ZM859.677 3.05468H889.197L969.837 117.295V3.05468H1002.24V171.055H972.717L892.077 56.8147V171.055H859.677V3.05468ZM1089.54 172.975C1077.22 172.975 1066.34 170.335 1056.9 165.055C1047.46 159.775 1040.1 152.335 1034.82 142.735C1029.7 132.975 1027.14 121.775 1027.14 109.135V64.9747C1027.14 52.3347 1029.7 41.2147 1034.82 31.6147C1040.1 21.8547 1047.46 14.3347 1056.9 9.05468C1066.5 3.77469 1077.54 1.13469 1090.02 1.13469H1116.9C1128.9 1.13469 1139.46 3.53468 1148.58 8.33468C1157.7 13.1347 1164.74 19.9347 1169.7 28.7347C1174.82 37.5347 1177.38 47.6947 1177.38 59.2147H1144.74C1144.74 50.5747 1142.18 43.6147 1137.06 38.3347C1131.94 33.0547 1125.22 30.4147 1116.9 30.4147H1090.02C1081.06 30.4147 1073.86 33.7747 1068.42 40.4947C1062.98 47.0547 1060.26 55.6947 1060.26 66.4147V107.695C1060.26 118.415 1062.9 127.135 1068.18 133.855C1073.62 140.415 1080.74 143.695 1089.54 143.695H1117.86C1126.02 143.695 1132.74 140.735 1138.02 134.815C1143.46 128.895 1146.18 121.535 1146.18 112.735V107.455H1099.62V78.6547H1178.82V112.735C1178.82 124.415 1176.26 134.815 1171.14 143.935C1166.02 153.055 1158.82 160.175 1149.54 165.295C1140.26 170.415 1129.7 172.975 1117.86 172.975H1089.54Z"/>
</mask>
<path d="M8.10438 165.055L7.39727 165.762L7.41086 165.775L7.42497 165.788L8.10438 165.055ZM1.86438 3.05467V2.05467H0.864376V3.05467H1.86438ZM34.9844 3.05467H35.9844V2.05467H34.9844V3.05467ZM34.9844 142.255H33.9844V143.255H34.9844V142.255ZM126.184 142.255H127.184V141.255H126.184V142.255ZM126.184 171.055V172.055H127.184V171.055H126.184ZM25.1444 170.055C18.3041 170.055 12.8839 168.117 8.78378 164.321L7.42497 165.788C11.9649 169.992 17.9047 172.055 25.1444 172.055V170.055ZM8.81148 164.348C4.86615 160.402 2.86438 155.23 2.86438 148.735H0.864376C0.864376 155.679 3.02261 161.387 7.39727 165.762L8.81148 164.348ZM2.86438 148.735V3.05467H0.864376V148.735H2.86438ZM1.86438 4.05467H34.9844V2.05467H1.86438V4.05467ZM33.9844 3.05467V142.255H35.9844V3.05467H33.9844ZM34.9844 143.255H126.184V141.255H34.9844V143.255ZM125.184 142.255V171.055H127.184V142.255H125.184ZM126.184 170.055H25.1444V172.055H126.184V170.055ZM149.438 164.815L148.744 165.535L149.438 164.815ZM142.958 3.05467V2.05467H141.958V3.05467H142.958ZM271.118 3.05467H272.118V2.05467H271.118V3.05467ZM271.118 31.8547V32.8547H272.118V31.8547H271.118ZM176.078 31.8547V30.8547H175.078V31.8547H176.078ZM176.078 70.7347H175.078V71.7347H176.078V70.7347ZM263.918 70.7347H264.918V69.7347H263.918V70.7347ZM263.918 99.5347V100.535H264.918V99.5347H263.918ZM176.078 99.5347V98.5347H175.078V99.5347H176.078ZM176.078 142.255H175.078V143.255H176.078V142.255ZM271.118 142.255H272.118V141.255H271.118V142.255ZM271.118 171.055V172.055H272.118V171.055H271.118ZM166.238 170.055C159.576 170.055 154.238 168.048 150.132 164.094L148.744 165.535C153.278 169.901 159.141 172.055 166.238 172.055V170.055ZM150.132 164.094C146.032 160.146 143.958 154.979 143.958 148.495H141.958C141.958 155.45 144.204 161.163 148.744 165.535L150.132 164.094ZM143.958 148.495V3.05467H141.958V148.495H143.958ZM142.958 4.05467H271.118V2.05467H142.958V4.05467ZM270.118 3.05467V31.8547H272.118V3.05467H270.118ZM271.118 30.8547H176.078V32.8547H271.118V30.8547ZM175.078 31.8547V70.7347H177.078V31.8547H175.078ZM176.078 71.7347H263.918V69.7347H176.078V71.7347ZM262.918 70.7347V99.5347H264.918V70.7347H262.918ZM263.918 98.5347H176.078V100.535H263.918V98.5347ZM175.078 99.5347V142.255H177.078V99.5347H175.078ZM176.078 143.255H271.118V141.255H176.078V143.255ZM270.118 142.255V171.055H272.118V142.255H270.118ZM271.118 170.055H166.238V172.055H271.118V170.055ZM392.061 131.935L392.998 131.584L392.755 130.935H392.061V131.935ZM329.181 131.935V130.935H328.492L328.247 131.579L329.181 131.935ZM314.301 171.055V172.055H314.991L315.236 171.41L314.301 171.055ZM279.741 171.055L278.81 170.69L278.276 172.055H279.741V171.055ZM345.501 3.05467V2.05467H344.819L344.57 2.69018L345.501 3.05467ZM381.501 17.4547L380.568 17.8126L380.569 17.8173L381.501 17.4547ZM441.261 171.055V172.055H442.723L442.193 170.692L441.261 171.055ZM406.701 171.055L405.765 171.405L406.008 172.055H406.701V171.055ZM338.061 104.095L337.124 103.745L336.621 105.095H338.061V104.095ZM383.181 104.095V105.095H384.616L384.119 103.748L383.181 104.095ZM360.861 43.6147L361.799 43.2685L361.558 42.6147H360.861V43.6147ZM360.621 43.6147V42.6147H359.927L359.684 43.2652L360.621 43.6147ZM392.061 130.935H329.181V132.935H392.061V130.935ZM328.247 131.579L313.367 170.699L315.236 171.41L330.116 132.29L328.247 131.579ZM314.301 170.055H279.741V172.055H314.301V170.055ZM280.672 171.419L346.432 3.41917L344.57 2.69018L278.81 170.69L280.672 171.419ZM345.501 4.05467H360.381V2.05467H345.501V4.05467ZM360.381 4.05467C365.425 4.05467 369.578 5.217 372.898 7.4809C376.217 9.74421 378.785 13.1628 380.568 17.8126L382.435 17.0967C380.537 12.1465 377.745 8.36514 374.025 5.82845C370.305 3.29236 365.737 2.05467 360.381 2.05467V4.05467ZM380.569 17.8173L440.329 171.417L442.193 170.692L382.433 17.0921L380.569 17.8173ZM441.261 170.055H406.701V172.055H441.261V170.055ZM407.638 170.704L392.998 131.584L391.125 132.285L405.765 171.405L407.638 170.704ZM338.061 105.095H383.181V103.095H338.061V105.095ZM384.119 103.748L361.799 43.2685L359.923 43.9609L382.243 104.441L384.119 103.748ZM360.861 42.6147H360.621V44.6147H360.861V42.6147ZM359.684 43.2652L337.124 103.745L338.998 104.444L361.558 43.9642L359.684 43.2652ZM457.021 3.05467V2.05467H456.021V3.05467H457.021ZM581.341 14.8147L580.675 15.5614L580.682 15.5673L581.341 14.8147ZM587.581 84.4147L586.788 83.805L586.786 83.808L587.581 84.4147ZM567.181 98.3347L566.844 97.3929L566.181 97.63V98.3347H567.181ZM567.181 98.8147H566.181V99.3545L566.632 99.6507L567.181 98.8147ZM578.701 110.335L577.84 110.844L577.847 110.856L577.854 110.867L578.701 110.335ZM586.621 128.335L587.575 128.035L587.572 128.027L587.569 128.018L586.621 128.335ZM600.061 171.055V172.055H601.424L601.015 170.755L600.061 171.055ZM565.741 171.055L564.788 171.359L565.01 172.055H565.741V171.055ZM553.021 131.215L552.063 131.504L552.066 131.511L552.068 131.519L553.021 131.215ZM544.381 115.855L543.706 116.593L544.381 115.855ZM490.141 110.815V109.815H489.141V110.815H490.141ZM490.141 171.055V172.055H491.141V171.055H490.141ZM457.021 171.055H456.021V172.055H457.021V171.055ZM555.901 76.9747L556.576 77.7118L556.585 77.7043L556.593 77.6967L555.901 76.9747ZM557.341 36.1747L556.634 36.8818L556.644 36.8919L556.654 36.9017L557.341 36.1747ZM490.141 31.8547V30.8547H489.141V31.8547H490.141ZM490.141 82.2547H489.141V83.2547H490.141V82.2547ZM457.021 4.05467H546.301V2.05467H457.021V4.05467ZM546.301 4.05467C560.676 4.05467 572.099 7.92054 580.675 15.5613L582.006 14.068C572.982 6.02882 561.046 2.05467 546.301 2.05467V4.05467ZM580.682 15.5673C589.407 23.2018 593.781 33.2386 593.781 45.7747H595.781C595.781 32.7108 591.194 22.1075 581.999 14.0621L580.682 15.5673ZM593.781 45.7747V62.5747H595.781V45.7747H593.781ZM593.781 62.5747C593.781 70.6876 591.446 77.7501 586.788 83.805L588.373 85.0244C593.316 78.5992 595.781 71.1018 595.781 62.5747H593.781ZM586.786 83.808C582.289 89.7007 575.667 94.2421 566.844 97.3929L567.517 99.2764C576.615 96.0273 583.593 91.2887 588.376 85.0213L586.786 83.808ZM566.181 98.3347V98.8147H568.181V98.3347H566.181ZM566.632 99.6507C571.652 102.945 575.373 106.681 577.84 110.844L579.561 109.825C576.908 105.348 572.949 101.404 567.729 97.9786L566.632 99.6507ZM577.854 110.867C580.514 115.092 583.124 121.008 585.672 128.651L587.569 128.018C584.997 120.301 582.327 114.217 579.547 109.802L577.854 110.867ZM585.667 128.635L599.107 171.355L601.015 170.755L587.575 128.035L585.667 128.635ZM600.061 170.055H565.741V172.055H600.061V170.055ZM566.693 170.751L553.973 130.911L552.068 131.519L564.788 171.359L566.693 170.751ZM553.978 130.925C551.867 123.945 548.914 118.64 545.055 115.116L543.706 116.593C547.207 119.789 550.014 124.725 552.063 131.504L553.978 130.925ZM545.055 115.116C541.173 111.572 536.365 109.815 530.701 109.815V111.815C535.916 111.815 540.228 113.417 543.706 116.593L545.055 115.116ZM530.701 109.815H490.141V111.815H530.701V109.815ZM489.141 110.815V171.055H491.141V110.815H489.141ZM490.141 170.055H457.021V172.055H490.141V170.055ZM458.021 171.055V3.05467H456.021V171.055H458.021ZM540.061 83.2547C546.956 83.2547 552.503 81.4454 556.576 77.7118L555.225 76.2375C551.618 79.5439 546.605 81.2547 540.061 81.2547V83.2547ZM556.593 77.6967C560.647 73.8114 562.661 68.8221 562.661 62.8147H560.661C560.661 68.3272 558.834 72.778 555.209 76.2527L556.593 77.6967ZM562.661 62.8147V47.2147H560.661V62.8147H562.661ZM562.661 47.2147C562.661 42.3508 561.142 38.3891 558.027 35.4477L556.654 36.9017C559.299 39.4002 560.661 42.7985 560.661 47.2147H562.661ZM558.048 35.4676C554.947 32.3668 550.835 30.8547 545.821 30.8547V32.8547C550.406 32.8547 553.974 34.2225 556.634 36.8818L558.048 35.4676ZM545.821 30.8547H490.141V32.8547H545.821V30.8547ZM489.141 31.8547V82.2547H491.141V31.8547H489.141ZM490.141 83.2547H540.061V81.2547H490.141V83.2547ZM619.677 3.05467V2.05467H618.677V3.05467H619.677ZM649.197 3.05467L650.014 2.47799L649.715 2.05467H649.197V3.05467ZM729.837 117.295L729.02 117.871L730.837 120.445V117.295H729.837ZM729.837 3.05467V2.05467H728.837V3.05467H729.837ZM762.237 3.05467H763.237V2.05467H762.237V3.05467ZM762.237 171.055V172.055H763.237V171.055H762.237ZM732.717 171.055L731.9 171.631L732.199 172.055H732.717V171.055ZM652.077 56.8147L652.894 56.238L651.077 53.664V56.8147H652.077ZM652.077 171.055V172.055H653.077V171.055H652.077ZM619.677 171.055H618.677V172.055H619.677V171.055ZM619.677 4.05467H649.197V2.05467H619.677V4.05467ZM648.38 3.63136L729.02 117.871L730.654 116.718L650.014 2.47799L648.38 3.63136ZM730.837 117.295V3.05467H728.837V117.295H730.837ZM729.837 4.05467H762.237V2.05467H729.837V4.05467ZM761.237 3.05467V171.055H763.237V3.05467H761.237ZM762.237 170.055H732.717V172.055H762.237V170.055ZM733.534 170.478L652.894 56.238L651.26 57.3914L731.9 171.631L733.534 170.478ZM651.077 56.8147V171.055H653.077V56.8147H651.077ZM652.077 170.055H619.677V172.055H652.077V170.055ZM620.677 171.055V3.05467H618.677V171.055H620.677ZM794.343 3.05467V2.05467H793.343V3.05467H794.343ZM827.463 3.05467H828.463V2.05467H827.463V3.05467ZM827.463 171.055V172.055H828.463V171.055H827.463ZM794.343 171.055H793.343V172.055H794.343V171.055ZM794.343 4.05467H827.463V2.05467H794.343V4.05467ZM826.463 3.05467V171.055H828.463V3.05467H826.463ZM827.463 170.055H794.343V172.055H827.463V170.055ZM795.343 171.055V3.05467H793.343V171.055H795.343ZM859.677 3.05467V2.05467H858.677V3.05467H859.677ZM889.197 3.05467L890.014 2.47799L889.715 2.05467H889.197V3.05467ZM969.837 117.295L969.02 117.871L970.837 120.445V117.295H969.837ZM969.837 3.05467V2.05467H968.837V3.05467H969.837ZM1002.24 3.05467H1003.24V2.05467H1002.24V3.05467ZM1002.24 171.055V172.055H1003.24V171.055H1002.24ZM972.717 171.055L971.9 171.631L972.199 172.055H972.717V171.055ZM892.077 56.8147L892.894 56.238L891.077 53.664V56.8147H892.077ZM892.077 171.055V172.055H893.077V171.055H892.077ZM859.677 171.055H858.677V172.055H859.677V171.055ZM859.677 4.05467H889.197V2.05467H859.677V4.05467ZM888.38 3.63136L969.02 117.871L970.654 116.718L890.014 2.47799L888.38 3.63136ZM970.837 117.295V3.05467H968.837V117.295H970.837ZM969.837 4.05467H1002.24V2.05467H969.837V4.05467ZM1001.24 3.05467V171.055H1003.24V3.05467H1001.24ZM1002.24 170.055H972.717V172.055H1002.24V170.055ZM973.534 170.478L892.894 56.238L891.26 57.3914L971.9 171.631L973.534 170.478ZM891.077 56.8147V171.055H893.077V56.8147H891.077ZM892.077 170.055H859.677V172.055H892.077V170.055ZM860.677 171.055V3.05467H858.677V171.055H860.677ZM1056.9 165.055L1056.41 165.927L1056.9 165.055ZM1034.82 142.735L1033.94 143.199L1033.94 143.208L1033.95 143.217L1034.82 142.735ZM1034.82 31.6147L1033.94 31.1389L1033.94 31.1441L1034.82 31.6147ZM1056.9 9.05469L1056.42 8.17844L1056.41 8.18192L1056.9 9.05469ZM1148.58 8.33468L1149.05 7.44976L1148.58 8.33468ZM1169.7 28.7347L1168.83 29.2257L1168.84 29.2376L1169.7 28.7347ZM1177.38 59.2147V60.2147H1178.38V59.2147H1177.38ZM1144.74 59.2147H1143.74V60.2147H1144.74V59.2147ZM1137.06 38.3347L1136.34 39.0308L1137.06 38.3347ZM1068.42 40.4947L1069.19 41.1331L1069.2 41.1239L1068.42 40.4947ZM1068.18 133.855L1067.4 134.473L1067.4 134.483L1067.41 134.493L1068.18 133.855ZM1138.02 134.815L1137.29 134.138L1137.28 134.144L1137.28 134.149L1138.02 134.815ZM1146.18 107.455H1147.18V106.455H1146.18V107.455ZM1099.62 107.455H1098.62V108.455H1099.62V107.455ZM1099.62 78.6547V77.6547H1098.62V78.6547H1099.62ZM1178.82 78.6547H1179.82V77.6547H1178.82V78.6547ZM1171.14 143.935L1170.27 143.445L1171.14 143.935ZM1149.54 165.295L1150.03 166.17V166.17L1149.54 165.295ZM1089.54 171.975C1077.37 171.975 1066.66 169.367 1057.39 164.182L1056.41 165.927C1066.02 171.302 1077.08 173.975 1089.54 173.975V171.975ZM1057.39 164.182C1048.12 158.995 1040.89 151.691 1035.7 142.253L1033.95 143.217C1039.32 152.978 1046.81 160.555 1056.41 165.927L1057.39 164.182ZM1035.71 142.27C1030.67 132.673 1028.14 121.637 1028.14 109.135H1026.14C1026.14 121.913 1028.73 133.276 1033.94 143.199L1035.71 142.27ZM1028.14 109.135V64.9747H1026.14V109.135H1028.14ZM1028.14 64.9747C1028.14 52.4722 1030.67 41.5186 1035.7 32.0853L1033.94 31.1441C1028.73 40.9108 1026.14 52.1972 1026.14 64.9747H1028.14ZM1035.7 32.0905C1040.89 22.4927 1048.12 15.1124 1057.39 9.92744L1056.41 8.18192C1046.8 13.557 1039.31 21.2167 1033.94 31.1389L1035.7 32.0905ZM1057.38 9.9309C1066.82 4.74282 1077.69 2.13469 1090.02 2.13469V0.134689C1077.4 0.134689 1066.19 2.80655 1056.42 8.17847L1057.38 9.9309ZM1090.02 2.13469H1116.9V0.134689H1090.02V2.13469ZM1116.9 2.13469C1128.77 2.13469 1139.16 4.50673 1148.12 9.2196L1149.05 7.44976C1139.76 2.56264 1129.04 0.134689 1116.9 0.134689V2.13469ZM1148.12 9.2196C1157.07 13.9319 1163.97 20.5968 1168.83 29.2257L1170.57 28.2437C1165.52 19.2726 1158.33 12.3374 1149.05 7.44976L1148.12 9.2196ZM1168.84 29.2376C1173.86 37.8656 1176.38 47.8477 1176.38 59.2147H1178.38C1178.38 47.5417 1175.79 37.2037 1170.57 28.2318L1168.84 29.2376ZM1177.38 58.2147H1144.74V60.2147H1177.38V58.2147ZM1145.74 59.2147C1145.74 50.3635 1143.11 43.1374 1137.78 37.6385L1136.34 39.0308C1141.25 44.092 1143.74 50.7859 1143.74 59.2147H1145.74ZM1137.78 37.6385C1132.45 32.1381 1125.45 29.4147 1116.9 29.4147V31.4147C1124.99 31.4147 1131.44 33.9713 1136.34 39.0308L1137.78 37.6385ZM1116.9 29.4147H1090.02V31.4147H1116.9V29.4147ZM1090.02 29.4147C1080.77 29.4147 1073.28 32.9013 1067.65 39.8655L1069.2 41.1239C1074.44 34.6481 1081.35 31.4147 1090.02 31.4147V29.4147ZM1067.65 39.8563C1062.03 46.6381 1059.26 55.5232 1059.26 66.4147H1061.26C1061.26 55.8661 1063.94 47.4712 1069.19 41.133L1067.65 39.8563ZM1059.26 66.4147V107.695H1061.26V66.4147H1059.26ZM1059.26 107.695C1059.26 118.581 1061.95 127.536 1067.4 134.473L1068.97 133.237C1063.86 126.734 1061.26 118.249 1061.26 107.695H1059.26ZM1067.41 134.493C1073.05 141.291 1080.46 144.695 1089.54 144.695V142.695C1081.03 142.695 1074.2 139.539 1068.95 133.216L1067.41 134.493ZM1089.54 144.695H1117.86V142.695H1089.54V144.695ZM1117.86 144.695C1126.3 144.695 1133.29 141.62 1138.77 135.48L1137.28 134.149C1132.19 139.849 1125.75 142.695 1117.86 142.695V144.695ZM1138.76 135.491C1144.39 129.369 1147.18 121.76 1147.18 112.735H1145.18C1145.18 121.31 1142.54 128.421 1137.29 134.138L1138.76 135.491ZM1147.18 112.735V107.455H1145.18V112.735H1147.18ZM1146.18 106.455H1099.62V108.455H1146.18V106.455ZM1100.62 107.455V78.6547H1098.62V107.455H1100.62ZM1099.62 79.6547H1178.82V77.6547H1099.62V79.6547ZM1177.82 78.6547V112.735H1179.82V78.6547H1177.82ZM1177.82 112.735C1177.82 124.264 1175.3 134.492 1170.27 143.445L1172.01 144.424C1177.23 135.138 1179.82 124.566 1179.82 112.735H1177.82ZM1170.27 143.445C1165.24 152.4 1158.18 159.388 1149.06 164.419L1150.03 166.17C1159.47 160.962 1166.8 153.709 1172.01 144.424L1170.27 143.445ZM1149.06 164.419C1139.94 169.448 1129.55 171.975 1117.86 171.975V173.975C1129.85 173.975 1140.58 171.381 1150.03 166.17L1149.06 164.419ZM1117.86 171.975H1089.54V173.975H1117.86V171.975Z" fill="url(#paint0_linear_867_133)" mask="url(#path-1-outside-1_867_133)"/>
<defs>
<linearGradient id="paint0_linear_867_133" x1="-13.0156" y1="81.0547" x2="1195.41" y2="81.0547" gradientUnits="userSpaceOnUse">
<stop stop-color="#F469E2"/>
<stop offset="1" stop-color="#30C2E2" stop-opacity="0.6"/>
</linearGradient>
</defs>
</svg>
