<svg width="976" height="174" viewBox="0 0 976 174" fill="none" xmlns="http://www.w3.org/2000/svg">
<mask id="path-1-outside-1_891_58" maskUnits="userSpaceOnUse" x="-0.742188" y="0.0849609" width="977" height="174" fill="black">
<rect fill="white" x="-0.742188" y="0.0849609" width="977" height="174"/>
<path d="M1.13781 3.08495H89.6978C99.4578 3.08495 108.098 5.00495 115.618 8.84495C123.138 12.5249 128.978 17.8849 133.138 24.925C137.298 31.805 139.378 39.7249 139.378 48.6849V71.005C139.378 80.285 137.218 88.525 132.898 95.725C128.578 102.765 122.498 108.285 114.658 112.285C106.978 116.125 98.0178 118.045 87.7778 118.045H34.2578V171.085H1.13781V3.08495ZM87.2978 89.245C92.8978 89.245 97.4578 87.485 100.978 83.965C104.498 80.285 106.258 75.485 106.258 69.565V50.125C106.258 44.525 104.658 40.125 101.458 36.925C98.4178 33.565 94.3378 31.885 89.2178 31.885H34.2578V89.245H87.2978ZM157.7 3.08495H246.98C261.54 3.08495 273.22 7.00495 282.02 14.845C290.98 22.6849 295.46 33.005 295.46 45.805V62.605C295.46 70.925 293.06 78.205 288.26 84.445C283.62 90.525 276.82 95.165 267.86 98.365V98.845C272.98 102.205 276.82 106.045 279.38 110.365C282.1 114.685 284.74 120.685 287.3 128.365L300.74 171.085H266.42L253.7 131.245C251.62 124.365 248.74 119.245 245.06 115.885C241.38 112.525 236.82 110.845 231.38 110.845H190.82V171.085H157.7V3.08495ZM240.74 82.285C247.46 82.285 252.74 80.525 256.58 77.005C260.42 73.325 262.34 68.605 262.34 62.845V47.245C262.34 42.605 260.9 38.925 258.02 36.205C255.14 33.325 251.3 31.885 246.5 31.885H190.82V82.285H240.74ZM378.699 173.005C366.059 173.005 354.859 170.365 345.099 165.085C335.499 159.645 327.979 152.125 322.539 142.525C317.259 132.765 314.619 121.485 314.619 108.685V65.485C314.619 52.685 317.259 41.485 322.539 31.885C327.979 22.125 335.499 14.605 345.099 9.32495C354.859 3.88496 366.059 1.16496 378.699 1.16496H404.139C416.779 1.16496 427.899 3.88496 437.499 9.32495C447.259 14.605 454.779 22.125 460.059 31.885C465.499 41.485 468.219 52.685 468.219 65.485V108.685C468.219 121.485 465.499 132.765 460.059 142.525C454.779 152.125 447.259 159.645 437.499 165.085C427.899 170.365 416.779 173.005 404.139 173.005H378.699ZM404.139 143.725C413.419 143.725 420.859 140.365 426.459 133.645C432.219 126.925 435.099 118.125 435.099 107.245V66.925C435.099 56.045 432.219 47.245 426.459 40.525C420.859 33.805 413.419 30.445 404.139 30.445H378.699C369.419 30.445 361.899 33.805 356.139 40.525C350.539 47.245 347.739 56.045 347.739 66.925V107.245C347.739 118.125 350.539 126.925 356.139 133.645C361.899 140.365 369.419 143.725 378.699 143.725H404.139ZM493.091 3.08495H618.851V31.885H526.211V77.005H609.971V105.805H526.211V171.085H493.091V3.08495ZM640.335 3.08495H673.455V171.085H640.335V3.08495ZM728.949 171.085C721.909 171.085 716.229 169.085 711.909 165.085C707.749 160.925 705.669 155.485 705.669 148.765V3.08495H738.789V142.285H829.989V171.085H728.949ZM870.043 171.085C863.163 171.085 857.563 169.005 853.243 164.845C848.923 160.685 846.763 155.245 846.763 148.525V3.08495H974.923V31.885H879.883V70.765H967.723V99.565H879.883V142.285H974.923V171.085H870.043Z"/>
</mask>
<path d="M1.13781 3.08495V2.08495H0.137814V3.08495H1.13781ZM115.618 8.84495L115.163 9.73555L115.171 9.73943L115.178 9.74316L115.618 8.84495ZM133.138 24.925L132.277 25.4337L132.282 25.4424L133.138 24.925ZM132.898 95.725L133.75 96.248L133.755 96.2395L132.898 95.725ZM114.658 112.285L115.105 113.179L115.112 113.176L114.658 112.285ZM34.2578 118.045V117.045H33.2578V118.045H34.2578ZM34.2578 171.085V172.085H35.2578V171.085H34.2578ZM1.13781 171.085H0.137814V172.085H1.13781V171.085ZM100.978 83.965L101.685 84.6721L101.693 84.6642L101.7 84.6562L100.978 83.965ZM101.458 36.925L100.716 37.5959L100.733 37.6144L100.751 37.6321L101.458 36.925ZM34.2578 31.8849V30.8849H33.2578V31.8849H34.2578ZM34.2578 89.2449H33.2578V90.2449H34.2578V89.2449ZM1.13781 4.08495H89.6978V2.08495H1.13781V4.08495ZM89.6978 4.08495C99.3244 4.08495 107.804 5.97791 115.163 9.73555L116.073 7.95434C108.391 4.03198 99.5912 2.08495 89.6978 2.08495V4.08495ZM115.178 9.74316C122.527 13.3395 128.219 18.5661 132.277 25.4337L133.999 24.4162C129.737 17.2038 123.748 11.7104 116.057 7.94673L115.178 9.74316ZM132.282 25.4424C136.337 32.1489 138.378 39.8859 138.378 48.685H140.378C140.378 39.564 138.258 31.461 133.994 24.4075L132.282 25.4424ZM138.378 48.685V71.005H140.378V48.685H138.378ZM138.378 71.005C138.378 80.1233 136.257 88.1819 132.04 95.2105L133.755 96.2395C138.178 88.868 140.378 80.4466 140.378 71.005H138.378ZM132.045 95.202C127.828 102.075 121.891 107.472 114.203 111.394L115.112 113.176C123.105 109.098 129.328 103.455 133.75 96.248L132.045 95.202ZM114.211 111.391C106.694 115.149 97.8922 117.045 87.7778 117.045V119.045C98.1434 119.045 107.262 117.101 115.105 113.179L114.211 111.391ZM87.7778 117.045H34.2578V119.045H87.7778V117.045ZM33.2578 118.045V171.085H35.2578V118.045H33.2578ZM34.2578 170.085H1.13781V172.085H34.2578V170.085ZM2.13781 171.085V3.08495H0.137814V171.085H2.13781ZM87.2978 90.2449C93.1269 90.2449 97.9533 88.4037 101.685 84.6721L100.271 83.2579C96.9624 86.5662 92.6688 88.2449 87.2978 88.2449V90.2449ZM101.7 84.6562C105.427 80.76 107.258 75.6976 107.258 69.565H105.258C105.258 75.2724 103.568 79.81 100.255 83.2737L101.7 84.6562ZM107.258 69.565V50.125H105.258V69.565H107.258ZM107.258 50.125C107.258 44.3265 105.595 39.6478 102.165 36.2178L100.751 37.6321C103.721 40.6021 105.258 44.7234 105.258 50.125H107.258ZM102.199 36.254C98.9441 32.6561 94.5797 30.8849 89.2178 30.8849V32.8849C94.0959 32.8849 97.8915 34.4738 100.716 37.5959L102.199 36.254ZM89.2178 30.8849H34.2578V32.8849H89.2178V30.8849ZM33.2578 31.8849V89.2449H35.2578V31.8849H33.2578ZM34.2578 90.2449H87.2978V88.2449H34.2578V90.2449ZM157.7 3.08495V2.08495H156.7V3.08495H157.7ZM282.02 14.845L281.355 15.5916L281.362 15.5975L282.02 14.845ZM288.26 84.4449L287.468 83.8352L287.465 83.8383L288.26 84.4449ZM267.86 98.365L267.524 97.4232L266.86 97.6602V98.365H267.86ZM267.86 98.845H266.86V99.3848L267.312 99.681L267.86 98.845ZM279.38 110.365L278.52 110.875L278.527 110.886L278.534 110.898L279.38 110.365ZM287.3 128.365L288.254 128.065L288.252 128.057L288.249 128.049L287.3 128.365ZM300.74 171.085V172.085H302.103L301.694 170.785L300.74 171.085ZM266.42 171.085L265.468 171.389L265.69 172.085H266.42V171.085ZM253.7 131.245L252.743 131.534L252.745 131.542L252.748 131.549L253.7 131.245ZM245.06 115.885L244.386 116.623L245.06 115.885ZM190.82 110.845V109.845H189.82V110.845H190.82ZM190.82 171.085V172.085H191.82V171.085H190.82ZM157.7 171.085H156.7V172.085H157.7V171.085ZM256.58 77.005L257.256 77.7421L257.264 77.7346L257.272 77.7269L256.58 77.005ZM258.02 36.205L257.313 36.9121L257.323 36.9222L257.334 36.932L258.02 36.205ZM190.82 31.8849V30.8849H189.82V31.8849H190.82ZM190.82 82.285H189.82V83.285H190.82V82.285ZM157.7 4.08495H246.98V2.08495H157.7V4.08495ZM246.98 4.08495C261.355 4.08495 272.779 7.95081 281.355 15.5916L282.686 14.0983C273.662 6.05909 261.725 2.08495 246.98 2.08495V4.08495ZM281.362 15.5975C290.087 23.2321 294.46 33.2688 294.46 45.805H296.46C296.46 32.7411 291.874 22.1378 282.679 14.0924L281.362 15.5975ZM294.46 45.805V62.6049H296.46V45.805H294.46ZM294.46 62.6049C294.46 70.7178 292.125 77.7804 287.468 83.8352L289.053 85.0547C293.995 78.6295 296.46 71.1321 296.46 62.6049H294.46ZM287.465 83.8383C282.968 89.731 276.346 94.2724 267.524 97.4232L268.197 99.3067C277.294 96.0576 284.272 91.3189 289.055 85.0516L287.465 83.8383ZM266.86 98.365V98.845H268.86V98.365H266.86ZM267.312 99.681C272.332 102.975 276.053 106.711 278.52 110.875L280.241 109.855C277.588 105.378 273.629 101.434 268.409 98.0089L267.312 99.681ZM278.534 110.898C281.194 115.122 283.804 121.038 286.352 128.681L288.249 128.049C285.677 120.331 283.007 114.248 280.227 109.832L278.534 110.898ZM286.346 128.665L299.786 171.385L301.694 170.785L288.254 128.065L286.346 128.665ZM300.74 170.085H266.42V172.085H300.74V170.085ZM267.373 170.781L254.653 130.941L252.748 131.549L265.468 171.389L267.373 170.781ZM254.658 130.956C252.547 123.975 249.594 118.67 245.735 115.146L244.386 116.623C247.887 119.82 250.694 124.755 252.743 131.534L254.658 130.956ZM245.735 115.146C241.853 111.602 237.045 109.845 231.38 109.845V111.845C236.596 111.845 240.908 113.448 244.386 116.623L245.735 115.146ZM231.38 109.845H190.82V111.845H231.38V109.845ZM189.82 110.845V171.085H191.82V110.845H189.82ZM190.82 170.085H157.7V172.085H190.82V170.085ZM158.7 171.085V3.08495H156.7V171.085H158.7ZM240.74 83.285C247.636 83.285 253.183 81.4757 257.256 77.7421L255.905 76.2678C252.298 79.5742 247.285 81.285 240.74 81.285V83.285ZM257.272 77.7269C261.326 73.8416 263.34 68.8524 263.34 62.845H261.34C261.34 68.3575 259.514 72.8083 255.888 76.283L257.272 77.7269ZM263.34 62.845V47.2449H261.34V62.845H263.34ZM263.34 47.2449C263.34 42.3811 261.821 38.4194 258.707 35.4779L257.334 36.932C259.979 39.4305 261.34 42.8288 261.34 47.2449H263.34ZM258.727 35.4978C255.627 32.3971 251.515 30.8849 246.5 30.8849V32.8849C251.086 32.8849 254.654 34.2528 257.313 36.9121L258.727 35.4978ZM246.5 30.8849H190.82V32.8849H246.5V30.8849ZM189.82 31.8849V82.285H191.82V31.8849H189.82ZM190.82 83.285H240.74V81.285H190.82V83.285ZM345.099 165.085L344.606 165.955L344.615 165.96L344.623 165.965L345.099 165.085ZM322.539 142.525L321.66 143.001L321.664 143.009L321.669 143.018L322.539 142.525ZM322.539 31.8849L321.666 31.3981L321.663 31.403L322.539 31.8849ZM345.099 9.32495L345.581 10.2012L345.586 10.1984L345.099 9.32495ZM437.499 9.32495L437.006 10.195L437.015 10.1998L437.023 10.2045L437.499 9.32495ZM460.059 31.8849L459.18 32.3608L459.184 32.3694L459.189 32.378L460.059 31.8849ZM460.059 142.525L459.186 142.038L459.183 142.043L460.059 142.525ZM437.499 165.085L437.981 165.961L437.986 165.958L437.499 165.085ZM426.459 133.645L425.7 132.994L425.691 133.005L426.459 133.645ZM426.459 40.525L425.691 41.1652L425.7 41.1757L426.459 40.525ZM356.139 40.525L355.38 39.8741L355.371 39.8848L356.139 40.525ZM356.139 133.645L355.371 134.285L355.38 134.296L356.139 133.645ZM378.699 172.005C366.202 172.005 355.169 169.396 345.575 164.205L344.623 165.965C354.549 171.334 365.916 174.005 378.699 174.005V172.005ZM345.592 164.215C336.15 158.864 328.76 151.474 323.409 142.032L321.669 143.018C327.198 152.775 334.849 160.426 344.606 165.955L345.592 164.215ZM323.419 142.049C318.229 132.456 315.619 121.345 315.619 108.685H313.619C313.619 121.625 316.289 133.074 321.66 143.001L323.419 142.049ZM315.619 108.685V65.485H313.619V108.685H315.619ZM315.619 65.485C315.619 52.825 318.229 41.7961 323.415 32.3669L321.663 31.403C316.289 41.1738 313.619 52.545 313.619 65.485H315.619ZM323.413 32.3718C328.763 22.7723 336.149 15.3888 345.581 10.2012L344.617 8.44874C334.849 13.8211 327.195 21.4776 321.666 31.3981L323.413 32.3718ZM345.586 10.1984C355.178 4.85181 366.207 2.16496 378.699 2.16496V0.164963C365.911 0.164963 354.54 2.91811 344.612 8.45148L345.586 10.1984ZM378.699 2.16496H404.139V0.164963H378.699V2.16496ZM404.139 2.16496C416.632 2.16496 427.577 4.85192 437.006 10.195L437.992 8.45493C428.221 2.918 416.926 0.164963 404.139 0.164963V2.16496ZM437.023 10.2045C446.612 15.392 453.992 22.7717 459.18 32.3608L460.939 31.4091C455.566 21.4782 447.906 13.8179 437.975 8.44541L437.023 10.2045ZM459.189 32.378C464.531 41.8051 467.219 52.8298 467.219 65.485H469.219C469.219 52.5401 466.467 41.1648 460.929 31.3919L459.189 32.378ZM467.219 65.485V108.685H469.219V65.485H467.219ZM467.219 108.685C467.219 121.34 464.531 132.447 459.186 142.038L460.933 143.012C466.467 133.082 469.219 121.63 469.219 108.685H467.219ZM459.183 142.043C453.995 151.475 446.612 158.861 437.012 164.211L437.986 165.958C447.906 160.429 455.563 152.775 460.935 143.007L459.183 142.043ZM437.017 164.209C427.586 169.396 416.637 172.005 404.139 172.005V174.005C416.921 174.005 428.212 171.334 437.981 165.961L437.017 164.209ZM404.139 172.005H378.699V174.005H404.139V172.005ZM404.139 144.725C413.695 144.725 421.424 141.249 427.227 134.285L425.691 133.005C420.294 139.481 413.143 142.725 404.139 142.725V144.725ZM427.218 134.296C433.167 127.356 436.099 118.307 436.099 107.245H434.099C434.099 117.943 431.271 126.494 425.7 132.994L427.218 134.296ZM436.099 107.245V66.925H434.099V107.245H436.099ZM436.099 66.925C436.099 55.8631 433.167 46.8143 427.218 39.8742L425.7 41.1757C431.271 47.6756 434.099 56.2268 434.099 66.925H436.099ZM427.227 39.8848C421.424 32.9214 413.695 29.445 404.139 29.445V31.445C413.143 31.445 420.294 34.6885 425.691 41.1651L427.227 39.8848ZM404.139 29.445H378.699V31.445H404.139V29.445ZM378.699 29.445C369.143 29.445 361.34 32.9205 355.38 39.8742L356.898 41.1757C362.458 34.6894 369.695 31.445 378.699 31.445V29.445ZM355.371 39.8848C349.587 46.825 346.739 55.8698 346.739 66.925H348.739C348.739 56.2201 351.491 47.6649 356.907 41.1651L355.371 39.8848ZM346.739 66.925V107.245H348.739V66.925H346.739ZM346.739 107.245C346.739 118.3 349.587 127.345 355.371 134.285L356.907 133.005C351.491 126.505 348.739 117.95 348.739 107.245H346.739ZM355.38 134.296C361.34 141.249 369.143 144.725 378.699 144.725V142.725C369.695 142.725 362.458 139.481 356.898 132.994L355.38 134.296ZM378.699 144.725H404.139V142.725H378.699V144.725ZM493.091 3.08495V2.08495H492.091V3.08495H493.091ZM618.851 3.08495H619.851V2.08495H618.851V3.08495ZM618.851 31.8849V32.8849H619.851V31.8849H618.851ZM526.211 31.8849V30.8849H525.211V31.8849H526.211ZM526.211 77.005H525.211V78.005H526.211V77.005ZM609.971 77.005H610.971V76.005H609.971V77.005ZM609.971 105.805V106.805H610.971V105.805H609.971ZM526.211 105.805V104.805H525.211V105.805H526.211ZM526.211 171.085V172.085H527.211V171.085H526.211ZM493.091 171.085H492.091V172.085H493.091V171.085ZM493.091 4.08495H618.851V2.08495H493.091V4.08495ZM617.851 3.08495V31.8849H619.851V3.08495H617.851ZM618.851 30.8849H526.211V32.8849H618.851V30.8849ZM525.211 31.8849V77.005H527.211V31.8849H525.211ZM526.211 78.005H609.971V76.005H526.211V78.005ZM608.971 77.005V105.805H610.971V77.005H608.971ZM609.971 104.805H526.211V106.805H609.971V104.805ZM525.211 105.805V171.085H527.211V105.805H525.211ZM526.211 170.085H493.091V172.085H526.211V170.085ZM494.091 171.085V3.08495H492.091V171.085H494.091ZM640.335 3.08495V2.08495H639.335V3.08495H640.335ZM673.455 3.08495H674.455V2.08495H673.455V3.08495ZM673.455 171.085V172.085H674.455V171.085H673.455ZM640.335 171.085H639.335V172.085H640.335V171.085ZM640.335 4.08495H673.455V2.08495H640.335V4.08495ZM672.455 3.08495V171.085H674.455V3.08495H672.455ZM673.455 170.085H640.335V172.085H673.455V170.085ZM641.335 171.085V3.08495H639.335V171.085H641.335ZM711.909 165.085L711.202 165.792L711.216 165.806L711.23 165.819L711.909 165.085ZM705.669 3.08495V2.08495H704.669V3.08495H705.669ZM738.789 3.08495H739.789V2.08495H738.789V3.08495ZM738.789 142.285H737.789V143.285H738.789V142.285ZM829.989 142.285H830.989V141.285H829.989V142.285ZM829.989 171.085V172.085H830.989V171.085H829.989ZM728.949 170.085C722.109 170.085 716.689 168.148 712.589 164.351L711.23 165.819C715.77 170.022 721.709 172.085 728.949 172.085V170.085ZM712.616 164.378C708.671 160.433 706.669 155.261 706.669 148.765H704.669C704.669 155.709 706.827 161.417 711.202 165.792L712.616 164.378ZM706.669 148.765V3.08495H704.669V148.765H706.669ZM705.669 4.08495H738.789V2.08495H705.669V4.08495ZM737.789 3.08495V142.285H739.789V3.08495H737.789ZM738.789 143.285H829.989V141.285H738.789V143.285ZM828.989 142.285V171.085H830.989V142.285H828.989ZM829.989 170.085H728.949V172.085H829.989V170.085ZM853.243 164.845L852.549 165.565L853.243 164.845ZM846.763 3.08495V2.08495H845.763V3.08495H846.763ZM974.923 3.08495H975.923V2.08495H974.923V3.08495ZM974.923 31.8849V32.8849H975.923V31.8849H974.923ZM879.883 31.8849V30.8849H878.883V31.8849H879.883ZM879.883 70.765H878.883V71.765H879.883V70.765ZM967.723 70.765H968.723V69.765H967.723V70.765ZM967.723 99.565V100.565H968.723V99.565H967.723ZM879.883 99.565V98.565H878.883V99.565H879.883ZM879.883 142.285H878.883V143.285H879.883V142.285ZM974.923 142.285H975.923V141.285H974.923V142.285ZM974.923 171.085V172.085H975.923V171.085H974.923ZM870.043 170.085C863.38 170.085 858.042 168.079 853.936 164.125L852.549 165.565C857.083 169.931 862.945 172.085 870.043 172.085V170.085ZM853.936 164.125C849.837 160.177 847.763 155.009 847.763 148.525H845.763C845.763 155.481 848.009 161.193 852.549 165.565L853.936 164.125ZM847.763 148.525V3.08495H845.763V148.525H847.763ZM846.763 4.08495H974.923V2.08495H846.763V4.08495ZM973.923 3.08495V31.8849H975.923V3.08495H973.923ZM974.923 30.8849H879.883V32.8849H974.923V30.8849ZM878.883 31.8849V70.765H880.883V31.8849H878.883ZM879.883 71.765H967.723V69.765H879.883V71.765ZM966.723 70.765V99.565H968.723V70.765H966.723ZM967.723 98.565H879.883V100.565H967.723V98.565ZM878.883 99.565V142.285H880.883V99.565H878.883ZM879.883 143.285H974.923V141.285H879.883V143.285ZM973.923 142.285V171.085H975.923V142.285H973.923ZM974.923 170.085H870.043V172.085H974.923V170.085Z" fill="url(#paint0_linear_891_58)" mask="url(#path-1-outside-1_891_58)"/>
<defs>
<linearGradient id="paint0_linear_891_58" x1="-13.7422" y1="81.085" x2="983.258" y2="81.085" gradientUnits="userSpaceOnUse">
<stop stop-color="#F469E2"/>
<stop offset="1" stop-color="#30C2E2" stop-opacity="0.6"/>
</linearGradient>
</defs>
</svg>
