<svg width="1103" height="175" viewBox="0 0 1103 175" fill="none" xmlns="http://www.w3.org/2000/svg">
<mask id="path-1-outside-1_892_48" maskUnits="userSpaceOnUse" x="-0.848633" y="0.620605" width="1104" height="174" fill="black">
<rect fill="white" x="-0.848633" y="0.620605" width="1104" height="174"/>
<path d="M1.03137 3.62059H89.5914C99.3514 3.62059 107.991 5.54059 115.511 9.38059C123.031 13.0606 128.871 18.4206 133.031 25.4606C137.191 32.3406 139.271 40.2606 139.271 49.2206V71.5406C139.271 80.8206 137.111 89.0606 132.791 96.2606C128.471 103.301 122.391 108.821 114.551 112.821C106.871 116.661 97.9114 118.581 87.6714 118.581H34.1514V171.621H1.03137V3.62059ZM87.1914 89.7806C92.7914 89.7806 97.3514 88.0206 100.871 84.5006C104.391 80.8206 106.151 76.0206 106.151 70.1006V50.6606C106.151 45.0606 104.551 40.6606 101.351 37.4606C98.3114 34.1006 94.2314 32.4206 89.1114 32.4206H34.1514V89.7806H87.1914ZM157.594 3.62059H246.874C261.434 3.62059 273.114 7.5406 281.914 15.3806C290.874 23.2206 295.354 33.5406 295.354 46.3406V63.1406C295.354 71.4606 292.954 78.7406 288.154 84.9806C283.514 91.0606 276.714 95.7006 267.754 98.9006V99.3806C272.874 102.741 276.714 106.581 279.274 110.901C281.994 115.221 284.634 121.221 287.194 128.901L300.634 171.621H266.314L253.594 131.781C251.514 124.901 248.634 119.781 244.954 116.421C241.274 113.061 236.714 111.381 231.274 111.381H190.714V171.621H157.594V3.62059ZM240.634 82.8206C247.354 82.8206 252.634 81.0606 256.474 77.5406C260.314 73.8606 262.234 69.1406 262.234 63.3806V47.7806C262.234 43.1406 260.794 39.4606 257.914 36.7406C255.034 33.8606 251.194 32.4206 246.394 32.4206H190.714V82.8206H240.634ZM378.593 173.541C365.953 173.541 354.753 170.901 344.993 165.621C335.393 160.181 327.873 152.661 322.433 143.061C317.153 133.301 314.513 122.021 314.513 109.221V66.0206C314.513 53.2206 317.153 42.0206 322.433 32.4206C327.873 22.6606 335.393 15.1406 344.993 9.8606C354.753 4.4206 365.953 1.7006 378.593 1.7006H404.033C416.673 1.7006 427.793 4.4206 437.393 9.8606C447.153 15.1406 454.673 22.6606 459.953 32.4206C465.393 42.0206 468.113 53.2206 468.113 66.0206V109.221C468.113 122.021 465.393 133.301 459.953 143.061C454.673 152.661 447.153 160.181 437.393 165.621C427.793 170.901 416.673 173.541 404.033 173.541H378.593ZM404.033 144.261C413.313 144.261 420.753 140.901 426.353 134.181C432.113 127.461 434.993 118.661 434.993 107.781V67.4606C434.993 56.5806 432.113 47.7806 426.353 41.0606C420.753 34.3406 413.313 30.9806 404.033 30.9806H378.593C369.313 30.9806 361.793 34.3406 356.033 41.0606C350.433 47.7806 347.633 56.5806 347.633 67.4606V107.781C347.633 118.661 350.433 127.461 356.033 134.181C361.793 140.901 369.313 144.261 378.593 144.261H404.033ZM532.519 106.341L470.359 3.62059H506.359L549.079 75.8606L591.799 3.62059H627.799L565.639 106.341V171.621H532.519V106.341ZM665.561 171.621C658.681 171.621 653.081 169.541 648.761 165.381C644.441 161.221 642.281 155.781 642.281 149.061V3.62059H770.441V32.4206H675.401V71.3006H763.241V100.101H675.401V142.821H770.441V171.621H665.561ZM848.698 173.541C836.378 173.541 825.498 170.901 816.058 165.621C806.778 160.341 799.578 152.901 794.458 143.301C789.338 133.541 786.778 122.341 786.778 109.701V65.5406C786.778 52.9006 789.338 41.7806 794.458 32.1806C799.738 22.4206 807.098 14.9006 816.538 9.6206C826.138 4.3406 837.178 1.7006 849.658 1.7006H875.098C887.098 1.7006 897.658 4.2606 906.778 9.38059C915.898 14.5006 922.938 21.7006 927.898 30.9806C933.018 40.1006 935.578 50.7406 935.578 62.9006H902.938C902.938 53.3006 900.378 45.6206 895.258 39.8606C890.138 33.9406 883.418 30.9806 875.098 30.9806H849.658C840.698 30.9806 833.498 34.3406 828.058 41.0606C822.618 47.6206 819.898 56.2606 819.898 66.9806V108.261C819.898 118.981 822.538 127.701 827.818 134.421C833.098 140.981 840.058 144.261 848.698 144.261H874.618C883.098 144.261 889.978 140.981 895.258 134.421C900.698 127.861 903.418 119.221 903.418 108.501H936.058C936.058 121.461 933.498 132.901 928.378 142.821C923.258 152.581 916.058 160.181 906.778 165.621C897.498 170.901 886.778 173.541 874.618 173.541H848.698ZM1013.93 173.541C1001.61 173.541 990.733 170.901 981.293 165.621C972.013 160.341 964.813 152.901 959.693 143.301C954.573 133.541 952.013 122.341 952.013 109.701V65.5406C952.013 52.9006 954.573 41.7806 959.693 32.1806C964.973 22.4206 972.333 14.9006 981.773 9.6206C991.373 4.3406 1002.41 1.7006 1014.89 1.7006H1040.33C1052.33 1.7006 1062.89 4.2606 1072.01 9.38059C1081.13 14.5006 1088.17 21.7006 1093.13 30.9806C1098.25 40.1006 1100.81 50.7406 1100.81 62.9006H1068.17C1068.17 53.3006 1065.61 45.6206 1060.49 39.8606C1055.37 33.9406 1048.65 30.9806 1040.33 30.9806H1014.89C1005.93 30.9806 998.733 34.3406 993.293 41.0606C987.853 47.6206 985.133 56.2606 985.133 66.9806V108.261C985.133 118.981 987.773 127.701 993.053 134.421C998.333 140.981 1005.29 144.261 1013.93 144.261H1039.85C1048.33 144.261 1055.21 140.981 1060.49 134.421C1065.93 127.861 1068.65 119.221 1068.65 108.501H1101.29C1101.29 121.461 1098.73 132.901 1093.61 142.821C1088.49 152.581 1081.29 160.181 1072.01 165.621C1062.73 170.901 1052.01 173.541 1039.85 173.541H1013.93Z"/>
</mask>
<path d="M1.03137 3.62059V2.62059H0.0313683V3.62059H1.03137ZM115.511 9.38059L115.057 10.2712L115.064 10.2751L115.072 10.2788L115.511 9.38059ZM133.031 25.4606L132.17 25.9694L132.176 25.978L133.031 25.4606ZM132.791 96.2606L133.644 96.7836L133.649 96.7751L132.791 96.2606ZM114.551 112.821L114.999 113.715L115.006 113.711L114.551 112.821ZM34.1514 118.581V117.581H33.1514V118.581H34.1514ZM34.1514 171.621V172.621H35.1514V171.621H34.1514ZM1.03137 171.621H0.0313683V172.621H1.03137V171.621ZM100.871 84.5006L101.578 85.2077L101.586 85.1999L101.594 85.1918L100.871 84.5006ZM101.351 37.4606L100.61 38.1315L100.627 38.15L100.644 38.1677L101.351 37.4606ZM34.1514 32.4206V31.4206H33.1514V32.4206H34.1514ZM34.1514 89.7806H33.1514V90.7806H34.1514V89.7806ZM1.03137 4.62059H89.5914V2.62059H1.03137V4.62059ZM89.5914 4.62059C99.218 4.62059 107.698 6.51356 115.057 10.2712L115.966 8.48998C108.285 4.56763 99.4848 2.62059 89.5914 2.62059V4.62059ZM115.072 10.2788C122.421 13.8751 128.112 19.1017 132.17 25.9693L133.892 24.9519C129.63 17.7395 123.642 12.2461 115.951 8.48238L115.072 10.2788ZM132.176 25.978C136.231 32.6845 138.271 40.4215 138.271 49.2206H140.271C140.271 40.0996 138.152 31.9967 133.887 24.9432L132.176 25.978ZM138.271 49.2206V71.5406H140.271V49.2206H138.271ZM138.271 71.5406C138.271 80.659 136.151 88.7175 131.934 95.7461L133.649 96.7751C138.072 89.4037 140.271 80.9822 140.271 71.5406H138.271ZM131.939 95.7376C127.722 102.61 121.784 108.008 114.097 111.93L115.006 113.711C122.999 109.633 129.221 103.991 133.644 96.7836L131.939 95.7376ZM114.104 111.926C106.587 115.685 97.7858 117.581 87.6714 117.581V119.581C98.037 119.581 107.155 117.637 114.999 113.715L114.104 111.926ZM87.6714 117.581H34.1514V119.581H87.6714V117.581ZM33.1514 118.581V171.621H35.1514V118.581H33.1514ZM34.1514 170.621H1.03137V172.621H34.1514V170.621ZM2.03137 171.621V3.62059H0.0313683V171.621H2.03137ZM87.1914 90.7806C93.0204 90.7806 97.8468 88.9394 101.578 85.2077L100.164 83.7935C96.8559 87.1018 92.5623 88.7806 87.1914 88.7806V90.7806ZM101.594 85.1918C105.321 81.2956 107.151 76.2332 107.151 70.1006H105.151C105.151 75.808 103.462 80.3456 100.149 83.8094L101.594 85.1918ZM107.151 70.1006V50.6606H105.151V70.1006H107.151ZM107.151 50.6606C107.151 44.8621 105.488 40.1835 102.058 36.7535L100.644 38.1677C103.614 41.1377 105.151 45.2591 105.151 50.6606H107.151ZM102.093 36.7897C98.8376 33.1918 94.4733 31.4206 89.1114 31.4206V33.4206C93.9895 33.4206 97.7851 35.0094 100.61 38.1315L102.093 36.7897ZM89.1114 31.4206H34.1514V33.4206H89.1114V31.4206ZM33.1514 32.4206V89.7806H35.1514V32.4206H33.1514ZM34.1514 90.7806H87.1914V88.7806H34.1514V90.7806ZM157.594 3.62059V2.62059H156.594V3.62059H157.594ZM281.914 15.3806L281.249 16.1273L281.255 16.1332L281.914 15.3806ZM288.154 84.9806L287.361 84.3709L287.359 84.3739L288.154 84.9806ZM267.754 98.9006L267.418 97.9589L266.754 98.1959V98.9006H267.754ZM267.754 99.3806H266.754V99.9205L267.205 100.217L267.754 99.3806ZM279.274 110.901L278.414 111.41L278.42 111.422L278.428 111.433L279.274 110.901ZM287.194 128.901L288.148 128.6L288.145 128.592L288.143 128.584L287.194 128.901ZM300.634 171.621V172.621H301.997L301.588 171.32L300.634 171.621ZM266.314 171.621L265.361 171.925L265.583 172.621H266.314V171.621ZM253.594 131.781L252.637 132.07L252.639 132.077L252.641 132.085L253.594 131.781ZM244.954 116.421L244.28 117.159L244.954 116.421ZM190.714 111.381V110.381H189.714V111.381H190.714ZM190.714 171.621V172.621H191.714V171.621H190.714ZM157.594 171.621H156.594V172.621H157.594V171.621ZM256.474 77.5406L257.15 78.2778L257.158 78.2703L257.166 78.2626L256.474 77.5406ZM257.914 36.7406L257.207 37.4477L257.217 37.4578L257.227 37.4676L257.914 36.7406ZM190.714 32.4206V31.4206H189.714V32.4206H190.714ZM190.714 82.8206H189.714V83.8206H190.714V82.8206ZM157.594 4.62059H246.874V2.62059H157.594V4.62059ZM246.874 4.62059C261.249 4.62059 272.672 8.48646 281.249 16.1273L282.579 14.6339C273.555 6.59473 261.619 2.62059 246.874 2.62059V4.62059ZM281.255 16.1332C289.981 23.7677 294.354 33.8045 294.354 46.3406H296.354C296.354 33.2767 291.767 22.6735 282.572 14.628L281.255 16.1332ZM294.354 46.3406V63.1406H296.354V46.3406H294.354ZM294.354 63.1406C294.354 71.2535 292.019 78.316 287.361 84.3709L288.947 85.5903C293.889 79.1652 296.354 71.6677 296.354 63.1406H294.354ZM287.359 84.3739C282.862 90.2666 276.24 94.808 267.418 97.9589L268.09 99.8423C277.188 96.5932 284.166 91.8546 288.949 85.5873L287.359 84.3739ZM266.754 98.9006V99.3806H268.754V98.9006H266.754ZM267.205 100.217C272.225 103.511 275.946 107.247 278.414 111.41L280.134 110.391C277.481 105.914 273.522 101.97 268.303 98.5446L267.205 100.217ZM278.428 111.433C281.088 115.658 283.698 121.574 286.245 129.217L288.143 128.584C285.57 120.867 282.9 114.783 280.12 110.368L278.428 111.433ZM286.24 129.201L299.68 171.921L301.588 171.32L288.148 128.6L286.24 129.201ZM300.634 170.621H266.314V172.621H300.634V170.621ZM267.267 171.316L254.547 131.476L252.641 132.085L265.361 171.925L267.267 171.316ZM254.551 131.491C252.441 124.511 249.487 119.206 245.628 115.682L244.28 117.159C247.78 120.355 250.587 125.291 252.637 132.07L254.551 131.491ZM245.628 115.682C241.746 112.138 236.939 110.381 231.274 110.381V112.381C236.489 112.381 240.801 113.983 244.28 117.159L245.628 115.682ZM231.274 110.381H190.714V112.381H231.274V110.381ZM189.714 111.381V171.621H191.714V111.381H189.714ZM190.714 170.621H157.594V172.621H190.714V170.621ZM158.594 171.621V3.62059H156.594V171.621H158.594ZM240.634 83.8206C247.529 83.8206 253.077 82.0114 257.15 78.2778L255.798 76.8035C252.191 80.1098 247.179 81.8206 240.634 81.8206V83.8206ZM257.166 78.2626C261.22 74.3773 263.234 69.3881 263.234 63.3806H261.234C261.234 68.8931 259.408 73.3439 255.782 76.8186L257.166 78.2626ZM263.234 63.3806V47.7806H261.234V63.3806H263.234ZM263.234 47.7806C263.234 42.9168 261.715 38.955 258.6 36.0136L257.227 37.4676C259.873 39.9662 261.234 43.3644 261.234 47.7806H263.234ZM258.621 36.0335C255.52 32.9328 251.408 31.4206 246.394 31.4206V33.4206C250.98 33.4206 254.547 34.7884 257.207 37.4477L258.621 36.0335ZM246.394 31.4206H190.714V33.4206H246.394V31.4206ZM189.714 32.4206V82.8206H191.714V32.4206H189.714ZM190.714 83.8206H240.634V81.8206H190.714V83.8206ZM344.993 165.621L344.5 166.491L344.508 166.495L344.517 166.5L344.993 165.621ZM322.433 143.061L321.553 143.536L321.558 143.545L321.563 143.554L322.433 143.061ZM322.433 32.4206L321.559 31.9337L321.556 31.9387L322.433 32.4206ZM344.993 9.8606L345.475 10.7368L345.479 10.7341L344.993 9.8606ZM437.393 9.8606L436.9 10.7306L436.908 10.7355L436.917 10.7401L437.393 9.8606ZM459.953 32.4206L459.073 32.8964L459.078 32.9051L459.083 32.9136L459.953 32.4206ZM459.953 143.061L459.079 142.574L459.076 142.579L459.953 143.061ZM437.393 165.621L437.875 166.497L437.879 166.494L437.393 165.621ZM426.353 134.181L425.593 133.53L425.584 133.54L426.353 134.181ZM426.353 41.0606L425.584 41.7008L425.593 41.7114L426.353 41.0606ZM356.033 41.0606L355.273 40.4097L355.264 40.4204L356.033 41.0606ZM356.033 134.181L355.264 134.821L355.273 134.831L356.033 134.181ZM378.593 172.541C366.095 172.541 355.063 169.932 345.468 164.741L344.517 166.5C354.442 171.87 365.81 174.541 378.593 174.541V172.541ZM345.486 164.751C336.043 159.4 328.653 152.01 323.303 142.568L321.563 143.554C327.092 153.311 334.742 160.961 344.5 166.491L345.486 164.751ZM323.312 142.585C318.123 132.992 315.513 121.88 315.513 109.221H313.513C313.513 122.161 316.183 133.609 321.553 143.536L323.312 142.585ZM315.513 109.221V66.0206H313.513V109.221H315.513ZM315.513 66.0206C315.513 53.3606 318.123 42.3318 323.309 32.9025L321.556 31.9387C316.182 41.7094 313.513 53.0806 313.513 66.0206H315.513ZM323.306 32.9075C328.657 23.308 336.042 15.9245 345.475 10.7368L344.511 8.98438C334.743 14.3567 327.089 22.0132 321.559 31.9337L323.306 32.9075ZM345.479 10.7341C355.072 5.38745 366.1 2.70061 378.593 2.70061V0.700607C365.805 0.700607 354.433 3.45375 344.506 8.98712L345.479 10.7341ZM378.593 2.70061H404.033V0.700607H378.593V2.70061ZM404.033 2.70061C416.525 2.70061 427.471 5.38757 436.9 10.7306L437.886 8.99058C428.115 3.45364 416.82 0.700607 404.033 0.700607V2.70061ZM436.917 10.7401C446.506 15.9277 453.886 23.3074 459.073 32.8964L460.832 31.9448C455.46 22.0138 447.799 14.3535 437.868 8.98106L436.917 10.7401ZM459.083 32.9136C464.425 42.3407 467.113 53.3655 467.113 66.0206H469.113C469.113 53.0757 466.361 41.7005 460.823 31.9276L459.083 32.9136ZM467.113 66.0206V109.221H469.113V66.0206H467.113ZM467.113 109.221C467.113 121.875 464.425 132.983 459.079 142.574L460.826 143.547C466.361 133.618 469.113 122.166 469.113 109.221H467.113ZM459.076 142.579C453.889 152.011 446.505 159.397 436.906 164.747L437.879 166.494C447.8 160.965 455.456 153.31 460.829 143.543L459.076 142.579ZM436.911 164.744C427.48 169.931 416.53 172.541 404.033 172.541V174.541C416.815 174.541 428.106 171.87 437.875 166.497L436.911 164.744ZM404.033 172.541H378.593V174.541H404.033V172.541ZM404.033 145.261C413.589 145.261 421.318 141.784 427.121 134.821L425.584 133.54C420.187 140.017 413.036 143.261 404.033 143.261V145.261ZM427.112 134.831C433.061 127.891 435.993 118.842 435.993 107.781H433.993C433.993 118.479 431.165 127.03 425.593 133.53L427.112 134.831ZM435.993 107.781V67.4606H433.993V107.781H435.993ZM435.993 67.4606C435.993 56.3987 433.061 47.35 427.112 40.4098L425.593 41.7114C431.165 48.2112 433.993 56.7625 433.993 67.4606H435.993ZM427.121 40.4204C421.318 33.457 413.589 29.9806 404.033 29.9806V31.9806C413.036 31.9806 420.187 35.2242 425.584 41.7008L427.121 40.4204ZM404.033 29.9806H378.593V31.9806H404.033V29.9806ZM378.593 29.9806C369.037 29.9806 361.234 33.4562 355.273 40.4098L356.792 41.7114C362.352 35.225 369.588 31.9806 378.593 31.9806V29.9806ZM355.264 40.4204C349.481 47.3606 346.633 56.4054 346.633 67.4606H348.633C348.633 56.7558 351.384 48.2006 356.801 41.7008L355.264 40.4204ZM346.633 67.4606V107.781H348.633V67.4606H346.633ZM346.633 107.781C346.633 118.836 349.481 127.881 355.264 134.821L356.801 133.54C351.384 127.041 348.633 118.485 348.633 107.781H346.633ZM355.273 134.831C361.234 141.785 369.037 145.261 378.593 145.261V143.261C369.588 143.261 362.352 140.016 356.792 133.53L355.273 134.831ZM378.593 145.261H404.033V143.261H378.593V145.261ZM532.519 106.341H533.519V106.062L533.374 105.823L532.519 106.341ZM470.359 3.62059V2.62059H468.585L469.503 4.13832L470.359 3.62059ZM506.359 3.62059L507.22 3.11157L506.929 2.62059H506.359V3.62059ZM549.079 75.8606L548.218 76.3696L549.079 77.8252L549.94 76.3696L549.079 75.8606ZM591.799 3.62059V2.62059H591.228L590.938 3.11157L591.799 3.62059ZM627.799 3.62059L628.654 4.13832L629.573 2.62059H627.799V3.62059ZM565.639 106.341L564.783 105.823L564.639 106.062V106.341H565.639ZM565.639 171.621V172.621H566.639V171.621H565.639ZM532.519 171.621H531.519V172.621H532.519V171.621ZM533.374 105.823L471.214 3.10287L469.503 4.13832L531.663 106.858L533.374 105.823ZM470.359 4.62059H506.359V2.62059H470.359V4.62059ZM505.498 4.12962L548.218 76.3696L549.94 75.3516L507.22 3.11157L505.498 4.12962ZM549.94 76.3696L592.66 4.12962L590.938 3.11157L548.218 75.3516L549.94 76.3696ZM591.799 4.62059H627.799V2.62059H591.799V4.62059ZM626.943 3.10287L564.783 105.823L566.494 106.858L628.654 4.13832L626.943 3.10287ZM564.639 106.341V171.621H566.639V106.341H564.639ZM565.639 170.621H532.519V172.621H565.639V170.621ZM533.519 171.621V106.341H531.519V171.621H533.519ZM648.761 165.381L648.068 166.101L648.761 165.381ZM642.281 3.62059V2.62059H641.281V3.62059H642.281ZM770.441 3.62059H771.441V2.62059H770.441V3.62059ZM770.441 32.4206V33.4206H771.441V32.4206H770.441ZM675.401 32.4206V31.4206H674.401V32.4206H675.401ZM675.401 71.3006H674.401V72.3006H675.401V71.3006ZM763.241 71.3006H764.241V70.3006H763.241V71.3006ZM763.241 100.101V101.101H764.241V100.101H763.241ZM675.401 100.101V99.1006H674.401V100.101H675.401ZM675.401 142.821H674.401V143.821H675.401V142.821ZM770.441 142.821H771.441V141.821H770.441V142.821ZM770.441 171.621V172.621H771.441V171.621H770.441ZM665.561 170.621C658.899 170.621 653.561 168.614 649.455 164.66L648.068 166.101C652.602 170.467 658.464 172.621 665.561 172.621V170.621ZM649.455 164.66C645.355 160.712 643.281 155.545 643.281 149.061H641.281C641.281 156.016 643.527 161.729 648.068 166.101L649.455 164.66ZM643.281 149.061V3.62059H641.281V149.061H643.281ZM642.281 4.62059H770.441V2.62059H642.281V4.62059ZM769.441 3.62059V32.4206H771.441V3.62059H769.441ZM770.441 31.4206H675.401V33.4206H770.441V31.4206ZM674.401 32.4206V71.3006H676.401V32.4206H674.401ZM675.401 72.3006H763.241V70.3006H675.401V72.3006ZM762.241 71.3006V100.101H764.241V71.3006H762.241ZM763.241 99.1006H675.401V101.101H763.241V99.1006ZM674.401 100.101V142.821H676.401V100.101H674.401ZM675.401 143.821H770.441V141.821H675.401V143.821ZM769.441 142.821V171.621H771.441V142.821H769.441ZM770.441 170.621H665.561V172.621H770.441V170.621ZM816.058 165.621L815.564 166.49L815.57 166.493L816.058 165.621ZM794.458 143.301L793.573 143.765L793.576 143.771L794.458 143.301ZM794.458 32.1806L793.579 31.7048L793.576 31.71L794.458 32.1806ZM816.538 9.62061L816.056 8.74436L816.05 8.74784L816.538 9.62061ZM906.778 9.38059L907.268 8.50861L906.778 9.38059ZM927.898 30.9806L927.016 31.452L927.021 31.4611L927.026 31.4701L927.898 30.9806ZM935.578 62.9006V63.9006H936.578V62.9006H935.578ZM902.938 62.9006H901.938V63.9006H902.938V62.9006ZM895.258 39.8606L894.502 40.5148L894.511 40.525L895.258 39.8606ZM828.058 41.0606L828.828 41.699L828.836 41.6898L828.058 41.0606ZM827.818 134.421L827.032 135.038L827.039 135.048L827.818 134.421ZM895.258 134.421L894.488 133.782L894.484 133.788L894.479 133.794L895.258 134.421ZM903.418 108.501V107.501H902.418V108.501H903.418ZM936.058 108.501H937.058V107.501H936.058V108.501ZM928.378 142.821L929.264 143.285L929.267 143.279L928.378 142.821ZM906.778 165.621L907.273 166.49L907.284 166.483L906.778 165.621ZM848.698 172.541C836.525 172.541 825.818 169.933 816.546 164.748L815.57 166.493C825.179 171.868 836.231 174.541 848.698 174.541V172.541ZM816.553 164.751C807.44 159.567 800.373 152.267 795.341 142.83L793.576 143.771C798.783 153.535 806.116 161.114 815.564 166.49L816.553 164.751ZM795.344 142.836C790.309 133.239 787.778 122.203 787.778 109.701H785.778C785.778 122.479 788.367 133.842 793.573 143.765L795.344 142.836ZM787.778 109.701V65.5406H785.778V109.701H787.778ZM787.778 65.5406C787.778 53.0381 790.31 42.0845 795.341 32.6512L793.576 31.71C788.367 41.4767 785.778 52.7631 785.778 65.5406H787.778ZM795.338 32.6564C800.53 23.0586 807.756 15.6783 817.026 10.4934L816.05 8.74784C806.44 14.1229 798.946 21.7826 793.579 31.7048L795.338 32.6564ZM817.02 10.4968C826.453 5.30874 837.323 2.70061 849.658 2.70061V0.700607C837.033 0.700607 825.823 3.37247 816.056 8.74438L817.02 10.4968ZM849.658 2.70061H875.098V0.700607H849.658V2.70061ZM875.098 2.70061C886.952 2.70061 897.339 5.2282 906.289 10.2526L907.268 8.50861C897.977 3.29299 887.244 0.700607 875.098 0.700607V2.70061ZM906.289 10.2526C915.241 15.2786 922.146 22.3391 927.016 31.452L928.78 30.5092C923.731 21.0621 916.555 13.7226 907.268 8.50861L906.289 10.2526ZM927.026 31.4701C932.05 40.4179 934.578 50.8839 934.578 62.9006H936.578C936.578 50.5973 933.987 39.7833 928.77 30.4911L927.026 31.4701ZM935.578 61.9006H902.938V63.9006H935.578V61.9006ZM903.938 62.9006C903.938 53.1182 901.326 45.1812 896.006 39.1962L894.511 40.525C899.431 46.06 901.938 53.483 901.938 62.9006H903.938ZM896.015 39.2064C890.691 33.0516 883.688 29.9806 875.098 29.9806V31.9806C883.149 31.9806 889.585 34.8296 894.502 40.5148L896.015 39.2064ZM875.098 29.9806H849.658V31.9806H875.098V29.9806ZM849.658 29.9806C840.409 29.9806 832.919 33.4672 827.281 40.4314L828.836 41.6898C834.078 35.214 840.987 31.9806 849.658 31.9806V29.9806ZM827.289 40.4223C821.665 47.204 818.898 56.0892 818.898 66.9806H820.898C820.898 56.432 823.572 48.0371 828.828 41.6989L827.289 40.4223ZM818.898 66.9806V108.261H820.898V66.9806H818.898ZM818.898 108.261C818.898 119.147 821.581 128.101 827.032 135.038L828.605 133.803C823.495 127.3 820.898 118.815 820.898 108.261H818.898ZM827.039 135.048C832.515 141.85 839.765 145.261 848.698 145.261V143.261C840.352 143.261 833.682 140.111 828.597 133.794L827.039 135.048ZM848.698 145.261H874.618V143.261H848.698V145.261ZM874.618 145.261C883.398 145.261 890.566 141.845 896.037 135.048L894.479 133.794C889.391 140.116 882.798 143.261 874.618 143.261V145.261ZM896.028 135.059C901.652 128.277 904.418 119.392 904.418 108.501H902.418C902.418 119.049 899.745 127.444 894.488 133.782L896.028 135.059ZM903.418 109.501H936.058V107.501H903.418V109.501ZM935.058 108.501C935.058 121.327 932.526 132.605 927.49 142.362L929.267 143.279C934.471 133.196 937.058 121.594 937.058 108.501H935.058ZM927.493 142.356C922.457 151.955 915.387 159.415 906.273 164.758L907.284 166.483C916.729 160.946 924.059 153.206 929.264 143.285L927.493 142.356ZM906.284 164.751C897.174 169.934 886.629 172.541 874.618 172.541V174.541C886.927 174.541 897.822 171.867 907.273 166.49L906.284 164.751ZM874.618 172.541H848.698V174.541H874.618V172.541ZM981.293 165.621L980.798 166.49L980.804 166.493L981.293 165.621ZM959.693 143.301L958.807 143.765L958.81 143.771L959.693 143.301ZM959.693 32.1806L958.813 31.7048L958.81 31.71L959.693 32.1806ZM981.773 9.62061L981.291 8.74436L981.284 8.74784L981.773 9.62061ZM1072.01 9.38059L1072.5 8.50861L1072.01 9.38059ZM1093.13 30.9806L1092.25 31.452L1092.26 31.4611L1092.26 31.4701L1093.13 30.9806ZM1100.81 62.9006V63.9006H1101.81V62.9006H1100.81ZM1068.17 62.9006H1067.17V63.9006H1068.17V62.9006ZM1060.49 39.8606L1059.74 40.5148L1059.75 40.525L1060.49 39.8606ZM993.293 41.0606L994.062 41.699L994.07 41.6898L993.293 41.0606ZM993.053 134.421L992.266 135.038L992.274 135.048L993.053 134.421ZM1060.49 134.421L1059.72 133.782L1059.72 133.788L1059.71 133.794L1060.49 134.421ZM1068.65 108.501V107.501H1067.65V108.501H1068.65ZM1101.29 108.501H1102.29V107.501H1101.29V108.501ZM1093.61 142.821L1094.5 143.285L1094.5 143.279L1093.61 142.821ZM1072.01 165.621L1072.51 166.49L1072.52 166.483L1072.01 165.621ZM1013.93 172.541C1001.76 172.541 991.052 169.933 981.781 164.748L980.804 166.493C990.413 171.868 1001.47 174.541 1013.93 174.541V172.541ZM981.787 164.751C972.675 159.567 965.608 152.267 960.575 142.83L958.81 143.771C964.017 153.535 971.35 161.114 980.798 166.49L981.787 164.751ZM960.578 142.836C955.544 133.239 953.013 122.203 953.013 109.701H951.013C951.013 122.479 953.602 133.842 958.807 143.765L960.578 142.836ZM953.013 109.701V65.5406H951.013V109.701H953.013ZM953.013 65.5406C953.013 53.0381 955.544 42.0845 960.575 32.6512L958.81 31.71C953.601 41.4767 951.013 52.7631 951.013 65.5406H953.013ZM960.572 32.6564C965.764 23.0586 972.991 15.6783 982.261 10.4934L981.284 8.74784C971.675 14.1229 964.181 21.7826 958.813 31.7048L960.572 32.6564ZM982.255 10.4968C991.687 5.30874 1002.56 2.70061 1014.89 2.70061V0.700607C1002.27 0.700607 991.058 3.37247 981.291 8.74438L982.255 10.4968ZM1014.89 2.70061H1040.33V0.700607H1014.89V2.70061ZM1040.33 2.70061C1052.19 2.70061 1062.57 5.2282 1071.52 10.2526L1072.5 8.50861C1063.21 3.29299 1052.48 0.700607 1040.33 0.700607V2.70061ZM1071.52 10.2526C1080.48 15.2786 1087.38 22.3391 1092.25 31.452L1094.01 30.5092C1088.97 21.0621 1081.79 13.7226 1072.5 8.50861L1071.52 10.2526ZM1092.26 31.4701C1097.28 40.4179 1099.81 50.8839 1099.81 62.9006H1101.81C1101.81 50.5973 1099.22 39.7833 1094 30.4911L1092.26 31.4701ZM1100.81 61.9006H1068.17V63.9006H1100.81V61.9006ZM1069.17 62.9006C1069.17 53.1182 1066.56 45.1812 1061.24 39.1962L1059.75 40.525C1064.67 46.06 1067.17 53.483 1067.17 62.9006H1069.17ZM1061.25 39.2064C1055.93 33.0516 1048.92 29.9806 1040.33 29.9806V31.9806C1048.38 31.9806 1054.82 34.8296 1059.74 40.5148L1061.25 39.2064ZM1040.33 29.9806H1014.89V31.9806H1040.33V29.9806ZM1014.89 29.9806C1005.64 29.9806 998.153 33.4672 992.515 40.4314L994.07 41.6898C999.312 35.214 1006.22 31.9806 1014.89 31.9806V29.9806ZM992.523 40.4223C986.899 47.204 984.133 56.0892 984.133 66.9806H986.133C986.133 56.432 988.806 48.0371 994.062 41.6989L992.523 40.4223ZM984.133 66.9806V108.261H986.133V66.9806H984.133ZM984.133 108.261C984.133 119.147 986.816 128.101 992.266 135.038L993.839 133.803C988.729 127.3 986.133 118.815 986.133 108.261H984.133ZM992.274 135.048C997.749 141.85 1005 145.261 1013.93 145.261V143.261C1005.59 143.261 998.916 140.111 993.832 133.794L992.274 135.048ZM1013.93 145.261H1039.85V143.261H1013.93V145.261ZM1039.85 145.261C1048.63 145.261 1055.8 141.845 1061.27 135.048L1059.71 133.794C1054.62 140.116 1048.03 143.261 1039.85 143.261V145.261ZM1061.26 135.059C1066.89 128.277 1069.65 119.392 1069.65 108.501H1067.65C1067.65 119.049 1064.98 127.444 1059.72 133.782L1061.26 135.059ZM1068.65 109.501H1101.29V107.501H1068.65V109.501ZM1100.29 108.501C1100.29 121.327 1097.76 132.605 1092.72 142.362L1094.5 143.279C1099.71 133.196 1102.29 121.594 1102.29 108.501H1100.29ZM1092.73 142.356C1087.69 151.955 1080.62 159.415 1071.51 164.758L1072.52 166.483C1081.96 160.946 1089.29 153.206 1094.5 143.285L1092.73 142.356ZM1071.52 164.751C1062.41 169.934 1051.86 172.541 1039.85 172.541V174.541C1052.16 174.541 1063.06 171.867 1072.51 166.49L1071.52 164.751ZM1039.85 172.541H1013.93V174.541H1039.85V172.541Z" fill="url(#paint0_linear_892_48)" mask="url(#path-1-outside-1_892_48)"/>
<defs>
<linearGradient id="paint0_linear_892_48" x1="-13.8486" y1="81.6206" x2="1108.15" y2="81.6206" gradientUnits="userSpaceOnUse">
<stop stop-color="#F469E2"/>
<stop offset="1" stop-color="#30C2E2" stop-opacity="0.6"/>
</linearGradient>
</defs>
</svg>
