<svg width="132" height="81" viewBox="0 0 132 81" fill="none" xmlns="http://www.w3.org/2000/svg">
<path d="M76.9407 5.96762C77.5488 6.72199 77.8588 7.74012 78.4763 9.77387L92.0113 54.2339C86.9279 51.5946 81.4713 49.7473 75.8301 48.7557L67.0188 18.977C66.9493 18.7389 66.8043 18.5299 66.6058 18.3813C66.4073 18.2326 66.1659 18.1524 65.9179 18.1527C65.6699 18.153 65.4287 18.2337 65.2305 18.3828C65.0323 18.5319 64.8878 18.7413 64.8188 18.9795L56.1132 48.7407C50.4475 49.7289 44.9667 51.5791 39.8613 54.227L53.4601 9.76449C54.0826 7.73324 54.3926 6.71699 55.0001 5.96262C55.5366 5.29813 56.2344 4.78214 57.027 4.46387C57.9226 4.10449 58.987 4.10449 61.1113 4.10449H70.8257C72.9519 4.10449 74.0163 4.10449 74.9151 4.46637C75.7077 4.78544 76.4046 5.3023 76.9407 5.96762Z" fill="white"/>
<path d="M78.5578 56.3483C76.3265 58.2577 71.8728 59.5589 66.7434 59.5589C60.4496 59.5589 55.1715 57.5983 53.7721 54.9614C53.2721 56.4727 53.1596 58.2014 53.1596 59.3077C53.1596 59.3077 52.8302 64.7295 56.6021 68.5014C56.602 68.0359 56.6937 67.5749 56.8718 67.1448C57.0499 66.7147 57.3111 66.3239 57.6403 65.9948C57.9695 65.6656 58.3603 65.4046 58.7905 65.2265C59.2206 65.0484 59.6816 64.9569 60.1471 64.957C63.5034 64.957 63.5015 67.8839 63.499 70.262V70.472C63.499 74.0802 65.7034 77.1714 68.8384 78.4752C68.3548 77.4827 68.1043 76.3929 68.1059 75.2889C68.1059 71.8464 70.1246 70.567 72.4734 69.0777C74.3415 67.8939 76.4165 66.5777 77.8446 63.9389C78.6157 62.5172 79.0186 60.925 79.0165 59.3077C79.0169 58.3035 78.8622 57.3052 78.5578 56.3483Z" fill="#FF5D01"/>
<path d="M78.5578 56.3483C76.3265 58.2577 71.8728 59.5589 66.7434 59.5589C60.4496 59.5589 55.1715 57.5983 53.7721 54.9614C53.2721 56.4727 53.1596 58.2014 53.1596 59.3077C53.1596 59.3077 52.8302 64.7295 56.6021 68.5014C56.602 68.0359 56.6937 67.5749 56.8718 67.1448C57.0499 66.7147 57.3111 66.3239 57.6403 65.9948C57.9695 65.6656 58.3603 65.4046 58.7905 65.2265C59.2206 65.0484 59.6816 64.9569 60.1471 64.957C63.5034 64.957 63.5015 67.8839 63.499 70.262V70.472C63.499 74.0802 65.7034 77.1714 68.8384 78.4752C68.3548 77.4827 68.1043 76.3929 68.1059 75.2889C68.1059 71.8464 70.1246 70.567 72.4734 69.0777C74.3415 67.8939 76.4165 66.5777 77.8446 63.9389C78.6157 62.5172 79.0186 60.925 79.0165 59.3077C79.0169 58.3035 78.8622 57.3052 78.5578 56.3483Z" fill="url(#paint0_linear_816_68)"/>
<defs>
<linearGradient id="paint0_linear_816_68" x1="88.604" y1="40.8302" x2="75.3944" y2="68.4839" gradientUnits="userSpaceOnUse">
<stop stop-color="#FF1639"/>
<stop offset="1" stop-color="#FF1639" stop-opacity="0"/>
</linearGradient>
</defs>
</svg>
