<svg width="132" height="81" viewBox="0 0 132 81" fill="none" xmlns="http://www.w3.org/2000/svg">
<g clip-path="url(#clip0_816_77)">
<path d="M87.7777 0.439453H44.4277C33.8653 0.439453 25.3027 8.83411 25.3027 19.1895V61.6895C25.3027 72.0448 33.8653 80.4395 44.4277 80.4395H87.7777C98.3402 80.4395 106.903 72.0448 106.903 61.6895V19.1895C106.903 8.83411 98.3402 0.439453 87.7777 0.439453Z" fill="#0277BD"/>
<path d="M42.4373 32.5179L43.3495 42.4998H66.1341V32.5179H42.4373ZM66.1338 12.3145H40.6035L41.5292 22.2963H66.1338V12.3145ZM66.1338 68.8273V58.442L66.0892 58.4535L54.75 55.452L54.0251 47.4907H43.8044L45.2308 63.1638L66.0869 68.8401L66.1338 68.8273Z" fill="#EBEBEB"/>
<path d="M78.635 42.4998L77.4531 55.4454L66.0977 58.4504V68.8351L86.9704 63.1638L87.1234 61.4773L89.5159 35.1985L89.7642 32.5179L91.6024 12.3145H66.0977V22.2963H80.4443L79.518 32.5179H66.0977V42.4998H78.635Z" fill="white"/>
</g>
<defs>
<clipPath id="clip0_816_77">
<rect width="81.6" height="80" fill="white" transform="translate(25.3027 0.439453)"/>
</clipPath>
</defs>
</svg>
