<svg width="131" height="81" viewBox="0 0 131 81" fill="none" xmlns="http://www.w3.org/2000/svg">
<path d="M7.03081 50.3717V37.3016H23.494V36.5371H7.03081V24.6134H24.5349V23.8491H6.25977V51.1359H24.689V50.3717H7.03081ZM39.5331 31.4924L32.7089 40.397L26.0386 31.4926H25.0361L32.2461 40.9705L24.3419 51.1357H25.2673L32.7084 41.5432L40.1882 51.1357H41.152L33.2097 40.97L40.458 31.4922H39.5329L39.5331 31.4924ZM43.4656 57.8622V45.633H43.5427C44.0055 47.4164 44.918 48.8495 46.2802 49.9324C47.6425 51.0151 49.3774 51.5566 51.4851 51.5566C52.8474 51.5566 54.0555 51.2827 55.1094 50.735C56.1632 50.1872 57.0435 49.442 57.7504 48.4993C58.4571 47.5565 58.997 46.461 59.3698 45.2125C59.7424 43.9643 59.9289 42.652 59.9289 41.2764C59.9289 39.7986 59.7359 38.4354 59.3504 37.1871C58.9648 35.9386 58.4057 34.8557 57.6733 33.9387C56.9407 33.0214 56.054 32.3078 55.0129 31.7986C53.972 31.2889 52.796 31.0341 51.4851 31.0341C50.4826 31.0341 49.551 31.1807 48.6899 31.4736C47.8288 31.7667 47.0643 32.1805 46.396 32.7157C45.7237 33.2549 45.1386 33.8928 44.6609 34.6073C44.1726 35.3335 43.7998 36.1297 43.5427 36.996H43.4656V31.4924H42.6946V57.8622H43.4656ZM51.4851 50.8302C49.0692 50.8302 47.1284 50.0086 45.6633 48.3653C44.1983 46.7221 43.4656 44.3588 43.4656 41.276C43.4656 40.002 43.6457 38.7918 44.0055 37.6454C44.3654 36.499 44.8858 35.4925 45.5668 34.6264C46.2481 33.76 47.0899 33.0721 48.0922 32.5627C49.0946 32.053 50.2257 31.7982 51.4851 31.7982C52.7703 31.7982 53.8949 32.053 54.8587 32.5627C55.8226 33.0721 56.6195 33.7664 57.2492 34.6454C57.8788 35.5244 58.3544 36.5309 58.6758 37.6645C58.997 38.7983 59.1576 40.002 59.1576 41.276C59.1576 42.4226 59.01 43.5629 58.7142 44.6964C58.4187 45.8302 57.9624 46.8494 57.3454 47.754C56.7287 48.6582 55.9385 49.397 54.9744 49.9705C54.0104 50.5437 52.8474 50.8302 51.4851 50.8302ZM64.1699 51.1359V40.0149C64.1699 38.9448 64.324 37.9 64.6327 36.8811C64.9409 35.862 65.4165 34.9638 66.0591 34.1869C66.7017 33.4098 67.5176 32.7982 68.5074 32.3523C69.4969 31.9064 70.6729 31.7218 72.0352 31.7982V31.0339C70.8527 31.0086 69.8183 31.1357 68.9315 31.416C68.0446 31.6963 67.28 32.0785 66.6374 32.5627C65.9948 33.0466 65.4808 33.6134 65.0953 34.2633C64.71 34.9121 64.4241 35.614 64.2469 36.346H64.1699V31.4924H63.3988V51.1362L64.1699 51.1359ZM72.999 41.4671H89.5777C89.6293 40.1167 89.4944 38.8175 89.173 37.569C88.8518 36.3205 88.3376 35.2122 87.6309 34.2442C86.9239 33.276 86.0115 32.4989 84.8933 31.9128C83.7751 31.3268 82.445 31.0339 80.9029 31.0339C79.7975 31.0339 78.718 31.2632 77.6642 31.722C76.6103 32.1805 75.6849 32.8492 74.8882 33.7281C74.0915 34.6071 73.4488 35.6836 72.9606 36.9577C72.4723 38.2315 72.2279 39.6836 72.2279 41.3143C72.2279 42.7665 72.395 44.1232 72.7292 45.3843C73.0633 46.6454 73.5773 47.7412 74.2713 48.6711C74.9655 49.601 75.8587 50.3207 76.951 50.8302C78.0432 51.3399 79.3606 51.5819 80.9029 51.5564C83.1647 51.5564 85.0669 50.9256 86.609 49.6647C88.1513 48.4034 89.0637 46.6264 89.3465 44.3333H88.5755C88.2413 46.4991 87.3865 48.1233 86.0115 49.206C84.6362 50.2889 82.9078 50.8302 80.8256 50.8302C79.412 50.8302 78.2167 50.5882 77.24 50.1042C76.2634 49.6202 75.4665 48.9576 74.8495 48.1169C74.2328 47.276 73.7765 46.2888 73.481 45.155C73.1853 44.0214 73.0247 42.7919 72.999 41.4671ZM88.8066 40.7028H72.9992C73.076 39.327 73.3331 38.0913 73.77 36.9958C74.2072 35.9001 74.779 34.9638 75.4859 34.1869C76.1926 33.4098 77.0153 32.8175 77.9534 32.4097C78.8915 32.0021 79.9005 31.7982 80.98 31.7982C82.2652 31.7982 83.3959 32.034 84.3729 32.5053C85.3494 32.9767 86.1656 33.6201 86.8212 34.4353C87.4765 35.2505 87.9713 36.1997 88.3054 37.2823C88.6396 38.3652 88.8066 39.5054 88.8066 40.7028ZM105.578 37.3016H106.349C106.349 35.1103 105.707 33.518 104.422 32.5244C103.136 31.5307 101.388 31.0339 99.1781 31.0339C97.9442 31.0339 96.9033 31.1869 96.055 31.4926C95.2069 31.7982 94.5129 32.1931 93.973 32.6771C93.4334 33.1611 93.0479 33.6962 92.8165 34.2823C92.5851 34.8684 92.4694 35.429 92.4694 35.9639C92.4694 37.0339 92.6621 37.8874 93.0479 38.5244C93.4334 39.1614 94.0374 39.6582 94.8598 40.0149C95.4253 40.2695 96.0677 40.4989 96.7876 40.703C97.5073 40.9067 98.3427 41.1232 99.2938 41.3524C100.142 41.5565 100.977 41.7602 101.8 41.9639C102.622 42.1678 103.348 42.4417 103.978 42.7855C104.608 43.1296 105.122 43.5691 105.52 44.1042C105.919 44.6391 106.118 45.3398 106.118 46.206C106.118 47.0469 105.919 47.7602 105.52 48.346C105.125 48.929 104.605 49.4185 103.998 49.7794C103.381 50.1487 102.693 50.4162 101.935 50.5818C101.177 50.7474 100.438 50.8302 99.7179 50.8302C97.3789 50.8302 95.5859 50.3143 94.3394 49.2826C93.0928 48.2506 92.4696 46.6264 92.4696 44.4097H91.6983C91.6983 46.8812 92.3731 48.6901 93.7224 49.8368C95.072 50.9832 97.0704 51.5564 99.7179 51.5564C100.566 51.5564 101.421 51.4607 102.282 51.2697C103.143 51.0786 103.914 50.7667 104.595 50.3334C105.27 49.9062 105.838 49.331 106.253 48.652C106.677 47.9639 106.889 47.1232 106.889 46.1296C106.889 45.1868 106.703 44.4226 106.33 43.8365C105.957 43.2507 105.469 42.7665 104.865 42.3843C104.261 42.0022 103.58 41.7028 102.822 41.4863C102.059 41.2685 101.294 41.0582 100.527 40.8555C99.5837 40.6101 98.6391 40.3681 97.6936 40.1296C96.8841 39.9256 96.1323 39.6836 95.4383 39.4034C94.77 39.1231 94.2366 38.7219 93.8381 38.1996C93.4396 37.6773 93.2406 36.9321 93.2406 35.9639C93.2406 35.7856 93.292 35.467 93.3947 35.0085C93.4975 34.5498 93.7419 34.0848 94.1274 33.6134C94.5129 33.1423 95.1039 32.7219 95.9009 32.3523C96.6976 31.983 97.7901 31.7982 99.1781 31.7982C100.129 31.7982 100.996 31.9002 101.78 32.1039C102.564 32.3078 103.239 32.6326 103.805 33.0785C104.37 33.5244 104.807 34.0912 105.116 34.7791C105.424 35.4673 105.578 36.3079 105.578 37.3016ZM123.429 37.3016H124.2C124.2 35.1103 123.558 33.518 122.273 32.5244C120.988 31.5307 119.24 31.0339 117.029 31.0339C115.795 31.0339 114.754 31.1869 113.906 31.4926C113.058 31.7982 112.364 32.1931 111.824 32.6771C111.284 33.1611 110.899 33.6962 110.667 34.2823C110.436 34.8684 110.321 35.429 110.321 35.9639C110.321 37.0339 110.513 37.8874 110.899 38.5244C111.284 39.1614 111.889 39.6582 112.711 40.0149C113.277 40.2695 113.919 40.4989 114.639 40.703C115.358 40.9067 116.194 41.1232 117.145 41.3524C117.993 41.5565 118.828 41.7602 119.651 41.9639C120.474 42.1678 121.199 42.4417 121.829 42.7855C122.459 43.1296 122.973 43.5691 123.371 44.1042C123.77 44.6391 123.969 45.3398 123.969 46.206C123.969 47.0469 123.77 47.7602 123.371 48.346C122.976 48.929 122.457 49.4184 121.849 49.7794C121.232 50.1487 120.544 50.4162 119.786 50.5818C119.028 50.7474 118.289 50.8302 117.569 50.8302C115.23 50.8302 113.437 50.3143 112.191 49.2826C110.944 48.2506 110.321 46.6264 110.321 44.4097H109.55C109.55 46.8812 110.224 48.6901 111.574 49.8368C112.923 50.9832 114.921 51.5564 117.569 51.5564C118.417 51.5564 119.272 51.4607 120.133 51.2697C120.994 51.0786 121.765 50.7667 122.446 50.3334C123.122 49.9062 123.689 49.331 124.104 48.652C124.528 47.9639 124.74 47.1232 124.74 46.1296C124.74 45.1868 124.554 44.4226 124.181 43.8365C123.809 43.2507 123.32 42.7665 122.716 42.3843C122.112 42.0022 121.431 41.7028 120.673 41.4863C119.91 41.2685 119.145 41.0582 118.379 40.8555C117.435 40.6101 116.49 40.3681 115.545 40.1296C114.735 39.9256 113.983 39.6836 113.289 39.4034C112.621 39.1231 112.088 38.7219 111.689 38.1996C111.291 37.6773 111.092 36.9321 111.092 35.9639C111.092 35.7856 111.143 35.467 111.246 35.0085C111.349 34.5498 111.593 34.0848 111.978 33.6134C112.364 33.1423 112.955 32.7219 113.752 32.3523C114.549 31.983 115.641 31.7982 117.029 31.7982C117.98 31.7982 118.848 31.9002 119.632 32.1039C120.416 32.3078 121.09 32.6326 121.656 33.0785C122.221 33.5244 122.658 34.0912 122.967 34.7791C123.275 35.4673 123.43 36.3079 123.43 37.3016H123.429Z" fill="white"/>
</svg>
