<svg width="131" height="81" viewBox="0 0 131 81" fill="none" xmlns="http://www.w3.org/2000/svg">
<g clip-path="url(#clip0_816_49)">
<mask id="mask0_816_49" style="mask-type:luminance" maskUnits="userSpaceOnUse" x="44" y="9" width="43" height="64">
<path d="M44.5625 9.65967H86.2375V72.1597H44.5625V9.65967Z" fill="white"/>
</mask>
<g mask="url(#mask0_816_49)">
<path d="M54.9833 72.1596C60.7333 72.1596 65.3998 67.4931 65.3998 61.7431V51.3262H54.9833C49.2333 51.3262 44.5664 55.9931 44.5664 61.7431C44.5664 67.4931 49.2333 72.1596 54.9833 72.1596Z" fill="#0ACF83"/>
<path d="M44.5664 40.9097C44.5664 35.1597 49.2333 30.4932 54.9833 30.4932H65.3998V51.3263H54.9833C49.2333 51.3263 44.5664 46.6597 44.5664 40.9097Z" fill="#A259FF"/>
<path d="M44.5664 20.0762C44.5664 14.3262 49.2333 9.65967 54.9833 9.65967H65.3998V30.4931H54.9833C49.2333 30.4931 44.5664 25.8262 44.5664 20.0762Z" fill="#F24E1E"/>
<path d="M65.4004 9.65967H75.817C81.567 9.65967 86.2338 14.3262 86.2338 20.0762C86.2338 25.8262 81.567 30.4931 75.817 30.4931H65.4004V9.65967Z" fill="#FF7262"/>
<path d="M86.2338 40.9097C86.2338 46.6597 81.567 51.3263 75.817 51.3263C70.067 51.3263 65.4004 46.6597 65.4004 40.9097C65.4004 35.1597 70.067 30.4932 75.817 30.4932C81.567 30.4932 86.2338 35.1597 86.2338 40.9097Z" fill="#1ABCFE"/>
</g>
</g>
<defs>
<clipPath id="clip0_816_49">
<rect width="80" height="80" fill="white" transform="translate(25.5 0.909668)"/>
</clipPath>
</defs>
</svg>
