<svg width="131" height="81" viewBox="0 0 131 81" fill="none" xmlns="http://www.w3.org/2000/svg">
<g clip-path="url(#clip0_816_51)">
<path d="M86.75 0.909668H44.25C33.8947 0.909668 25.5 9.30433 25.5 19.6597V62.1597C25.5 72.515 33.8947 80.9097 44.25 80.9097H86.75C97.1053 80.9097 105.5 72.515 105.5 62.1597V19.6597C105.5 9.30433 97.1053 0.909668 86.75 0.909668Z" fill="#F03C2E"/>
<mask id="mask0_816_51" style="mask-type:luminance" maskUnits="userSpaceOnUse" x="34" y="9" width="63" height="64">
<path d="M34.25 9.65967H96.75V72.1597H34.25V9.65967Z" fill="white"/>
</mask>
<g mask="url(#mask0_816_51)">
<path d="M95.5704 38.1264L68.2832 10.8392C67.7206 10.276 67.0035 9.89239 66.2228 9.73702C65.442 9.58164 64.6327 9.66147 63.8973 9.96639C63.4092 10.169 62.9657 10.4655 62.592 10.8392L56.9279 16.5033L64.1154 23.6908C65.7873 23.1048 67.7014 23.5051 69.0332 24.8373C69.6674 25.4725 70.11 26.2732 70.3107 27.148C70.5113 28.0229 70.4619 28.9365 70.1679 29.7845L77.0957 36.7123C78.7717 36.1342 80.7051 36.507 82.0429 37.8489C82.7131 38.5187 83.1695 39.3723 83.3542 40.3017C83.539 41.231 83.4438 42.1943 83.0807 43.0695C82.5941 44.2429 81.6614 45.1751 80.4877 45.6611C79.314 46.147 77.9954 46.147 76.8217 45.6611C76.2404 45.4201 75.7123 45.0673 75.2676 44.6223C73.8614 43.2161 73.5139 41.1458 74.2248 39.4133L67.7639 32.9523V49.9545C68.2329 50.1865 68.6615 50.4925 69.0332 50.8608C69.9314 51.759 70.4361 52.9772 70.4361 54.2475C70.4361 55.5178 69.9314 56.736 69.0332 57.6342C68.135 58.5324 66.9168 59.037 65.6465 59.037C64.3762 59.037 63.158 58.5324 62.2598 57.6342C61.5895 56.9646 61.1329 56.1112 60.9479 55.182C60.7628 54.2527 60.8577 53.2895 61.2204 52.4142C61.4613 51.8331 61.8145 51.3052 62.2598 50.8608C62.7226 50.3998 63.2364 50.0501 63.8282 49.8158V32.6555C63.2409 32.4155 62.7076 32.0603 62.2598 31.6108C61.5873 30.939 61.1301 30.0822 60.9465 29.1496C60.7628 28.217 60.861 27.2508 61.2285 26.3742L54.1389 19.2889L35.4279 37.9801C34.8646 38.543 34.481 39.2604 34.3255 40.0414C34.17 40.8224 34.2497 41.6319 34.5545 42.3676C34.7572 42.856 35.0539 43.2998 35.4279 43.6736L62.717 70.9586C63.0907 71.3323 63.5342 71.6288 64.0223 71.8314C65.0087 72.2392 66.1165 72.2392 67.1029 71.8314C67.591 71.6288 68.0345 71.3323 68.4082 70.9586L95.5704 43.8395C95.9444 43.4658 96.2411 43.022 96.4436 42.5336C96.6461 42.0452 96.7503 41.5217 96.7504 40.993C96.7504 40.4642 96.6461 39.9406 96.4437 39.4521C96.2412 38.9636 95.9445 38.5198 95.5704 38.1461" fill="white"/>
</g>
</g>
<defs>
<clipPath id="clip0_816_51">
<rect width="80" height="80" fill="white" transform="translate(25.5 0.909668)"/>
</clipPath>
</defs>
</svg>
