<svg width="131" height="81" viewBox="0 0 131 81" fill="none" xmlns="http://www.w3.org/2000/svg">
<g clip-path="url(#clip0_816_53)">
<path d="M86.75 0.909668H44.25C33.8947 0.909668 25.5 9.30433 25.5 19.6597V62.1597C25.5 72.515 33.8947 80.9097 44.25 80.9097H86.75C97.1053 80.9097 105.5 72.515 105.5 62.1597V19.6597C105.5 9.30433 97.1053 0.909668 86.75 0.909668Z" fill="#242938"/>
<path d="M65.5003 10.2847C48.2434 10.2847 34.25 24.2753 34.25 41.535C34.25 55.3422 43.2041 67.0559 55.6209 71.1881C57.1825 71.4775 57.7559 70.5103 57.7559 69.685C57.7559 68.9397 57.7269 66.4781 57.7134 63.8669C49.0197 65.7572 47.1853 60.1797 47.1853 60.1797C45.7634 56.5675 43.7153 55.6072 43.7153 55.6072C40.88 53.6675 43.9291 53.7075 43.9291 53.7075C47.0672 53.9278 48.7197 56.9278 48.7197 56.9278C51.5069 61.7053 56.0303 60.324 57.8134 59.5256C58.0941 57.5056 58.9037 56.1272 59.7975 55.3469C52.8562 54.5565 45.56 51.8769 45.56 39.9028C45.56 36.4909 46.7806 33.7031 48.7797 31.5147C48.455 30.7275 47.3853 27.549 49.0822 23.2447C49.0822 23.2447 51.7066 22.4047 57.6784 26.4478C60.1712 25.7556 62.8444 25.4084 65.5003 25.3965C68.1559 25.4084 70.8316 25.7556 73.3287 26.4481C79.2934 22.4047 81.9141 23.245 81.9141 23.245C83.615 27.549 82.545 30.7278 82.2203 31.5147C84.2241 33.7031 85.4366 36.4909 85.4366 39.9028C85.4366 51.9056 78.1259 54.5484 71.1672 55.3219C72.2881 56.2919 73.2869 58.1934 73.2869 61.109C73.2869 65.2903 73.2506 68.6556 73.2506 69.685C73.2506 70.5165 73.8131 71.4909 75.3972 71.184C87.8072 67.0472 96.75 55.3375 96.75 41.535C96.75 24.2756 82.7584 10.2847 65.5003 10.2847ZM45.9544 54.8012C45.8856 54.9565 45.6412 55.0031 45.4187 54.8965C45.1919 54.7947 45.0647 54.5828 45.1381 54.4272C45.2053 54.2672 45.4503 54.2228 45.6762 54.33C45.9034 54.4319 46.0328 54.6456 45.9544 54.8012ZM47.4916 56.1728C47.3425 56.3112 47.0509 56.2469 46.8534 56.0284C46.6491 55.8106 46.6106 55.5194 46.7619 55.379C46.9153 55.2409 47.1981 55.3056 47.4028 55.5234C47.6072 55.744 47.6472 56.0331 47.4916 56.1728ZM48.5459 57.9278C48.3544 58.0609 48.0412 57.9362 47.8478 57.6581C47.6562 57.3803 47.6562 57.0472 47.8519 56.9134C48.0459 56.78 48.3544 56.9 48.5506 57.1759C48.7416 57.4584 48.7416 57.7919 48.5459 57.9278ZM50.3294 59.9603C50.1581 60.149 49.7934 60.0984 49.5262 59.8406C49.2531 59.5887 49.1769 59.2312 49.3487 59.0422C49.5222 58.8528 49.8891 58.9062 50.1581 59.1619C50.4294 59.4131 50.5122 59.7734 50.3294 59.9603ZM52.6344 60.6462C52.5587 60.8912 52.2075 61.0025 51.8534 60.8984C51.5003 60.7912 51.2687 60.5047 51.3403 60.2572C51.4137 60.0109 51.7666 59.895 52.1231 60.0062C52.4762 60.1128 52.7078 60.3975 52.6344 60.6462ZM55.2575 60.9375C55.2662 61.195 54.9662 61.4087 54.5947 61.4134C54.2209 61.4219 53.9187 61.2131 53.9147 60.9597C53.9147 60.6994 54.2081 60.4878 54.5816 60.4815C54.9534 60.4744 55.2575 60.6812 55.2575 60.9375ZM57.8344 60.8387C57.8791 61.09 57.6209 61.3484 57.2519 61.4172C56.8891 61.4834 56.5531 61.3281 56.5072 61.0787C56.4622 60.8209 56.725 60.5628 57.0872 60.4959C57.4569 60.4319 57.7875 60.5831 57.8344 60.8387Z" fill="white"/>
</g>
<defs>
<clipPath id="clip0_816_53">
<rect width="80" height="80" fill="white" transform="translate(25.5 0.909668)"/>
</clipPath>
</defs>
</svg>
