<svg width="132" height="81" viewBox="0 0 132 81" fill="none" xmlns="http://www.w3.org/2000/svg">
<g clip-path="url(#clip0_816_76)">
<path d="M86.8438 0.716309H44.3438C33.9884 0.716309 25.5938 9.11097 25.5938 19.4663V61.9663C25.5938 72.3216 33.9884 80.7163 44.3438 80.7163H86.8438C97.1991 80.7163 105.594 72.3216 105.594 61.9663V19.4663C105.594 9.11097 97.1991 0.716309 86.8438 0.716309Z" fill="#E14E1D"/>
<path d="M40.5938 12.5913L43.2844 42.7766H77.8813L76.7203 55.7235L65.5809 58.7354L54.4625 55.7279L53.7191 47.4147H43.7L45.1328 63.4401L65.5788 69.1188L86.0506 63.4401L88.7953 32.796H52.4137L51.5003 22.5741H89.6997L90.5938 12.5913H40.5938Z" fill="white"/>
<path d="M65.5938 12.5913H40.5938L43.2844 42.7766H65.5938V32.796H52.4137L51.5003 22.5741H65.5938V12.5913ZM65.5938 58.731L65.5809 58.7354L54.4625 55.7279L53.7191 47.4147H43.7L45.1328 63.4401L65.5788 69.1188L65.5941 69.1144L65.5938 58.731Z" fill="#EBEBEB"/>
</g>
<defs>
<clipPath id="clip0_816_76">
<rect width="80" height="80" fill="white" transform="translate(25.5938 0.716309)"/>
</clipPath>
</defs>
</svg>
