<svg width="132" height="81" viewBox="0 0 132 81" fill="none" xmlns="http://www.w3.org/2000/svg">
<g clip-path="url(#clip0_816_65)">
<path d="M87.25 0.174805H44.75C34.3947 0.174805 26 8.56947 26 18.9248V61.4248C26 71.7801 34.3947 80.1748 44.75 80.1748H87.25C97.6053 80.1748 106 71.7801 106 61.4248V18.9248C106 8.56947 97.6053 0.174805 87.25 0.174805Z" fill="#F0DB4F"/>
<path d="M47.0355 67.0286L53.1573 63.3236C54.3386 65.4177 55.413 67.1895 57.9902 67.1895C60.4605 67.1895 62.018 66.2233 62.018 62.4645V36.9027H69.5361V62.5708C69.5361 70.3573 64.9717 73.9017 58.3123 73.9017C52.2983 73.9017 48.8073 70.787 47.0352 67.028M73.6195 66.223L79.7408 62.6789C81.3523 65.3105 83.4467 67.2436 87.1517 67.2436C90.267 67.2436 92.2533 65.6861 92.2533 63.538C92.2533 60.9605 90.2127 60.0473 86.7758 58.5442L84.8967 57.7383C79.4727 55.4295 75.8745 52.5295 75.8745 46.4077C75.8745 40.7689 80.1708 36.4727 86.8836 36.4727C91.663 36.4727 95.0998 38.1377 97.5698 42.4873L91.7164 46.2464C90.4273 43.9373 89.0317 43.0245 86.8836 43.0245C84.6817 43.0245 83.2855 44.4208 83.2855 46.2464C83.2855 48.5017 84.6817 49.4148 87.9036 50.8114L89.783 51.6167C96.1733 54.3558 99.7714 57.1477 99.7714 63.4305C99.7714 70.1973 94.4552 73.9023 87.313 73.9023C80.332 73.9023 75.8211 70.573 73.6195 66.223Z" fill="#323330"/>
</g>
<defs>
<clipPath id="clip0_816_65">
<rect width="80" height="80" fill="white" transform="translate(26 0.174805)"/>
</clipPath>
</defs>
</svg>
