<svg width="132" height="81" viewBox="0 0 132 81" fill="none" xmlns="http://www.w3.org/2000/svg">
<g clip-path="url(#clip0_816_72)">
<path d="M50.168 24.3672L52.328 22.8045C51.9976 22.3481 51.5311 22.0081 50.9955 21.8333C50.4599 21.6585 49.8826 21.6578 49.3466 21.8313C48.8106 22.0049 48.3433 22.3437 48.0118 22.7993C47.6802 23.2549 47.5015 23.8038 47.5013 24.3672H50.168ZM66.168 75.0339C56.9738 75.0339 48.1562 71.3815 41.6549 64.8802C35.1537 58.379 31.5013 49.5614 31.5013 40.3672H26.168C26.168 50.9758 30.3822 61.15 37.8837 68.6515C45.3852 76.1529 55.5593 80.3672 66.168 80.3672V75.0339ZM100.835 40.3672C100.835 44.9197 99.938 49.4276 98.1958 53.6335C96.4536 57.8395 93.9001 61.6611 90.681 64.8802C87.4619 68.0993 83.6403 70.6528 79.4343 72.395C75.2284 74.1372 70.7205 75.0339 66.168 75.0339V80.3672C76.7766 80.3672 86.9508 76.1529 94.4522 68.6515C101.954 61.15 106.168 50.9758 106.168 40.3672H100.835ZM66.168 5.70052C70.7205 5.70052 75.2284 6.5972 79.4343 8.33936C83.6403 10.0815 87.4619 12.6351 90.681 15.8542C93.9001 19.0733 96.4536 22.8949 98.1958 27.1008C99.938 31.3068 100.835 35.8147 100.835 40.3672H106.168C106.168 29.7585 101.954 19.5844 94.4522 12.0829C86.9508 4.58146 76.7766 0.367188 66.168 0.367188V5.70052ZM66.168 0.367188C55.5593 0.367188 45.3852 4.58146 37.8837 12.0829C30.3822 19.5844 26.168 29.7585 26.168 40.3672H31.5013C31.5013 31.173 35.1537 22.3554 41.6549 15.8542C48.1562 9.35289 56.9738 5.70052 66.168 5.70052V0.367188ZM52.8346 64.3672V24.3672H47.5013V64.3672H52.8346ZM48.008 25.9299L82.6746 73.9299L86.9946 70.8045L52.328 22.8045L48.008 25.9299ZM79.5013 21.7005V53.7005H84.8346V21.7005H79.5013Z" fill="white"/>
</g>
<defs>
<clipPath id="clip0_816_72">
<rect width="80" height="80" fill="white" transform="translate(26.168 0.367188)"/>
</clipPath>
</defs>
</svg>
