<svg width="131" height="81" viewBox="0 0 131 81" fill="none" xmlns="http://www.w3.org/2000/svg">
<g clip-path="url(#clip0_816_55)">
<path d="M64.7612 80.6788C64.3197 80.6788 63.9075 80.5611 63.5245 80.355L59.6084 78.0289C59.0193 77.7048 59.3138 77.5871 59.4907 77.5282C60.2856 77.2633 60.4328 77.2042 61.2573 76.7333C61.3457 76.6742 61.4637 76.7038 61.5518 76.7626L64.5554 78.5588C64.6731 78.6177 64.8203 78.6177 64.9085 78.5588L76.6575 71.7568C76.7752 71.6979 76.8344 71.5799 76.8344 71.4329V57.8584C76.8344 57.7109 76.7752 57.5935 76.6575 57.5343L64.9085 50.7619C64.7908 50.7027 64.6435 50.7027 64.5554 50.7619L52.8063 57.5343C52.6886 57.5932 52.6295 57.7405 52.6295 57.8582V71.4327C52.6295 71.5507 52.6886 71.6977 52.8063 71.7568L56.016 73.6118C57.7533 74.4951 58.8428 73.4645 58.8428 72.434V59.036C58.8428 58.8594 58.99 58.6826 59.1961 58.6826H60.6978C60.8746 58.6826 61.0512 58.8299 61.0512 59.036V72.434C61.0512 74.7601 59.7849 76.1147 57.5765 76.1147C56.8993 76.1147 56.3694 76.1147 54.8675 75.3784L51.7758 73.6118C51.0101 73.1703 50.5391 72.3456 50.5391 71.4622V57.8877C50.5391 57.0044 51.0101 56.1797 51.7758 55.7382L63.5245 48.9361C64.2608 48.5239 65.2621 48.5239 65.9982 48.9361L77.747 55.7382C78.5126 56.1797 78.9839 57.0044 78.9839 57.8877V71.4622C78.9839 72.3456 78.5126 73.1703 77.747 73.6118L65.9982 80.4138C65.6152 80.5906 65.1735 80.6788 64.7612 80.6788ZM68.3834 71.3445C63.2305 71.3445 62.1704 68.9889 62.1704 66.9866C62.1704 66.8098 62.3177 66.6332 62.5238 66.6332H64.055C64.2315 66.6332 64.3788 66.7509 64.3788 66.9277C64.6145 68.4882 65.2917 69.2538 68.4129 69.2538C70.8863 69.2538 71.9467 68.6943 71.9467 67.3692C71.9467 66.6036 71.6519 66.0444 67.7946 65.6615C64.5849 65.3374 62.5826 64.6309 62.5826 62.0691C62.5826 59.6839 64.5852 58.2704 67.9419 58.2704C71.7108 58.2704 73.5661 59.5662 73.8017 62.3927C73.8017 62.4812 73.7723 62.5696 73.7133 62.6579C73.6542 62.7168 73.5661 62.7756 73.4777 62.7756H71.9465C71.7992 62.7756 71.6519 62.6579 71.6226 62.5106C71.2693 60.8913 70.3564 60.3611 67.9419 60.3611C65.2328 60.3611 64.9087 61.3035 64.9087 62.01C64.9087 62.864 65.2917 63.129 68.9429 63.6001C72.5648 64.0714 74.2728 64.7486 74.2728 67.2808C74.2433 69.8722 72.1233 71.3445 68.3834 71.3445Z" fill="#539E43"/>
<path d="M28.3077 27.5879C28.3077 27.058 28.0132 26.5571 27.5421 26.2922L15.057 19.1074C14.8507 18.9895 14.6153 18.9306 14.3798 18.9011H14.2619C14.0265 18.9011 13.7908 18.9895 13.5847 19.1074L1.09959 26.2922C0.628252 26.5571 0.333984 27.0578 0.333984 27.5879L0.363539 46.9044C0.363539 47.1694 0.5108 47.4343 0.746214 47.5523C0.981882 47.6995 1.27615 47.6995 1.48252 47.5523L8.9029 43.312C9.37398 43.0471 9.66851 42.5464 9.66851 42.0165V32.9765C9.66851 32.4465 9.96277 31.9459 10.4341 31.6809L13.5847 29.8552C13.8204 29.7079 14.0853 29.6488 14.3503 29.6488C14.6153 29.6488 14.8802 29.7079 15.0866 29.8552L18.2372 31.6809C18.7085 31.9459 19.0028 32.4463 19.0028 32.9765V42.0165C19.0028 42.5464 19.2973 43.0471 19.7684 43.312L27.1888 47.5523C27.3034 47.6245 27.4361 47.6627 27.5716 47.6627C27.707 47.6627 27.8397 47.6245 27.9544 47.5523C28.19 47.4343 28.3373 47.1694 28.3373 46.9044L28.3077 27.5879ZM88.3187 0.998139C88.0833 0.880178 87.7888 0.880178 87.5824 0.998139C87.347 1.1454 87.1997 1.38081 87.1997 1.64578V20.7859C87.1997 20.9625 87.1116 21.139 86.9348 21.257C86.7581 21.3451 86.5815 21.3451 86.4048 21.257L83.2835 19.4608C83.0547 19.3306 82.7959 19.2621 82.5326 19.2621C82.2693 19.2621 82.0105 19.3306 81.7816 19.4608L69.2965 26.6751C68.8255 26.9401 68.5309 27.4407 68.5309 27.9706V42.3696C68.5309 42.8995 68.8255 43.4004 69.2965 43.6654L81.7816 50.8797C82.0105 51.0099 82.2693 51.0784 82.5326 51.0784C82.7959 51.0784 83.0547 51.0099 83.2835 50.8797L95.7686 43.6654C96.2397 43.4004 96.5342 42.8998 96.5342 42.3696V6.47508C96.5342 5.91559 96.2397 5.41521 95.7686 5.14999L88.3187 0.998139ZM87.1704 37.629C87.1704 37.7762 87.1116 37.8939 86.9936 37.9528L82.7241 40.4262C82.6644 40.4553 82.599 40.4705 82.5326 40.4705C82.4662 40.4705 82.4007 40.4553 82.3411 40.4262L78.0716 37.9528C77.9536 37.8939 77.8948 37.7467 77.8948 37.629V32.682C77.8948 32.5347 77.9536 32.417 78.0716 32.3581L82.3411 29.8845C82.4007 29.8553 82.4662 29.8402 82.5326 29.8402C82.599 29.8402 82.6644 29.8553 82.7241 29.8845L86.9936 32.3581C87.1116 32.4167 87.1704 32.5643 87.1704 32.682V37.629ZM129.867 32.5643C130.338 32.2993 130.603 31.7986 130.603 31.2685V27.7645C130.603 27.2346 130.309 26.7339 129.867 26.469L117.47 19.2843C117.241 19.154 116.983 19.0856 116.719 19.0856C116.456 19.0856 116.197 19.154 115.968 19.2843L103.483 26.4983C103.012 26.7632 102.718 27.2639 102.718 27.7938V42.193C102.718 42.723 103.012 43.2236 103.483 43.4886L115.88 50.5556C116.351 50.8206 116.911 50.8206 117.353 50.5556L124.861 46.3747C125.097 46.2567 125.244 45.9918 125.244 45.7268C125.244 45.4618 125.097 45.1969 124.861 45.0789L112.317 37.8646C112.082 37.7174 111.934 37.482 111.934 37.217V32.7118C111.934 32.4468 112.082 32.1818 112.317 32.0639L116.233 29.8259C116.348 29.7537 116.481 29.7154 116.616 29.7154C116.752 29.7154 116.884 29.7537 116.999 29.8259L120.915 32.0639C121.151 32.2111 121.298 32.4465 121.298 32.7118V36.2453C121.298 36.5102 121.445 36.7752 121.681 36.8929C121.796 36.9651 121.928 37.0034 122.064 37.0034C122.199 37.0034 122.332 36.9651 122.447 36.8929L129.867 32.5643Z" fill="white"/>
<path d="M116.528 31.887C116.572 31.8581 116.623 31.8428 116.676 31.8428C116.728 31.8428 116.779 31.8581 116.823 31.887L119.208 33.2709C119.296 33.33 119.355 33.4182 119.355 33.5359V36.304C119.355 36.4217 119.296 36.5101 119.208 36.569L116.823 37.9529C116.779 37.9818 116.728 37.9971 116.676 37.9971C116.623 37.9971 116.572 37.9818 116.528 37.9529L114.143 36.569C114.055 36.5101 113.996 36.4217 113.996 36.304V33.5361C113.996 33.4182 114.055 33.3298 114.143 33.2712L116.528 31.887Z" fill="#539E43"/>
<path d="M49.1854 19.3431C48.9566 19.213 48.6979 19.1445 48.4346 19.1445C48.1713 19.1445 47.9126 19.213 47.6838 19.3431L35.2871 26.4981C34.8157 26.763 34.5508 27.2637 34.5508 27.7936V42.134C34.5508 42.6639 34.8453 43.1646 35.2871 43.4295L47.6838 50.5849C47.9126 50.7151 48.1713 50.7836 48.4346 50.7836C48.6979 50.7836 48.9566 50.7151 49.1854 50.5849L61.5824 43.4295C62.0535 43.1646 62.3187 42.6639 62.3187 42.134V27.7939C62.3187 27.2639 62.0239 26.7633 61.5824 26.4983L49.1854 19.3431Z" fill="url(#paint0_linear_816_55)"/>
<mask id="mask0_816_55" style="mask-type:luminance" maskUnits="userSpaceOnUse" x="34" y="19" width="29" height="32">
<path d="M49.1854 19.3431C48.9566 19.213 48.6979 19.1445 48.4346 19.1445C48.1713 19.1445 47.9126 19.213 47.6838 19.3431L35.2871 26.4981C34.8157 26.763 34.5508 27.2637 34.5508 27.7936V42.134C34.5508 42.6639 34.8453 43.1646 35.2871 43.4295L47.6838 50.5849C47.9126 50.7151 48.1713 50.7836 48.4346 50.7836C48.6979 50.7836 48.9566 50.7151 49.1854 50.5849L61.5824 43.4295C62.0535 43.1646 62.3187 42.6639 62.3187 42.134V27.7939C62.3187 27.2639 62.0239 26.7633 61.5824 26.4983L49.1854 19.3431Z" fill="white"/>
</mask>
<g mask="url(#mask0_816_55)">
<path d="M61.6123 26.4982L49.1568 19.3431C49.0344 19.2812 48.9061 19.2319 48.7739 19.1958L34.8164 43.1061C34.9321 43.2472 35.0717 43.3668 35.2289 43.4595L47.6844 50.6149C48.0378 50.821 48.45 50.8799 48.8327 50.7619L61.9364 26.793C61.848 26.6753 61.73 26.5864 61.6123 26.4982Z" fill="url(#paint1_linear_816_55)"/>
</g>
<mask id="mask1_816_55" style="mask-type:luminance" maskUnits="userSpaceOnUse" x="34" y="19" width="29" height="32">
<path d="M49.1854 19.3431C48.9566 19.213 48.6979 19.1445 48.4346 19.1445C48.1713 19.1445 47.9126 19.213 47.6838 19.3431L35.2871 26.4981C34.8157 26.763 34.5508 27.2637 34.5508 27.7936V42.134C34.5508 42.6639 34.8453 43.1646 35.2871 43.4295L47.6838 50.5849C47.9126 50.7151 48.1713 50.7836 48.4346 50.7836C48.6979 50.7836 48.9566 50.7151 49.1854 50.5849L61.5824 43.4295C62.0535 43.1646 62.3187 42.6639 62.3187 42.134V27.7939C62.3187 27.2639 62.0239 26.7633 61.5824 26.4983L49.1854 19.3431Z" fill="white"/>
</mask>
<g mask="url(#mask1_816_55)">
<path fill-rule="evenodd" clip-rule="evenodd" d="M61.6415 43.4299C61.9949 43.2238 62.2598 42.8704 62.3778 42.4877L48.7144 19.1664C48.361 19.1076 47.9781 19.1369 47.6545 19.343L35.2871 26.4691L48.626 50.7914C48.82 50.7599 49.0084 50.7004 49.1855 50.6149L61.6415 43.4299Z" fill="url(#paint2_linear_816_55)"/>
<path fill-rule="evenodd" clip-rule="evenodd" d="M61.642 43.4297L49.2157 50.5851C49.0403 50.6745 48.8512 50.7341 48.6562 50.7617L48.8919 51.2035L62.6726 43.2239V43.0471L62.3192 42.458C62.2603 42.8702 61.9954 43.2236 61.642 43.4297Z" fill="url(#paint3_linear_816_55)"/>
<path fill-rule="evenodd" clip-rule="evenodd" d="M61.642 43.4297L49.2157 50.5851C49.0403 50.6745 48.8512 50.7341 48.6562 50.7617L48.8919 51.2035L62.6726 43.2239V43.0471L62.3192 42.458C62.2603 42.8702 61.9954 43.2236 61.642 43.4297Z" fill="url(#paint4_linear_816_55)"/>
</g>
</g>
<defs>
<linearGradient id="paint0_linear_816_55" x1="1927.99" y1="572.416" x2="569.205" y2="2707.48" gradientUnits="userSpaceOnUse">
<stop stop-color="#41873F"/>
<stop offset="0.3288" stop-color="#418B3D"/>
<stop offset="0.6352" stop-color="#419637"/>
<stop offset="0.9319" stop-color="#3FA92D"/>
<stop offset="1" stop-color="#3FAE2A"/>
</linearGradient>
<linearGradient id="paint1_linear_816_55" x1="1208.49" y1="1763.99" x2="4611.53" y2="-84.9006" gradientUnits="userSpaceOnUse">
<stop offset="0.1376" stop-color="#41873F"/>
<stop offset="0.4032" stop-color="#54A044"/>
<stop offset="0.7136" stop-color="#66B848"/>
<stop offset="0.9081" stop-color="#6CC04A"/>
</linearGradient>
<linearGradient id="paint2_linear_816_55" x1="-83.614" y1="1601.63" x2="2784.97" y2="1601.63" gradientUnits="userSpaceOnUse">
<stop offset="0.09192" stop-color="#6CC04A"/>
<stop offset="0.2864" stop-color="#66B848"/>
<stop offset="0.5968" stop-color="#54A044"/>
<stop offset="0.8624" stop-color="#41873F"/>
</linearGradient>
<linearGradient id="paint3_linear_816_55" x1="-1407.09" y1="482.137" x2="1461.46" y2="482.137" gradientUnits="userSpaceOnUse">
<stop offset="0.09192" stop-color="#6CC04A"/>
<stop offset="0.2864" stop-color="#66B848"/>
<stop offset="0.5968" stop-color="#54A044"/>
<stop offset="0.8624" stop-color="#41873F"/>
</linearGradient>
<linearGradient id="paint4_linear_816_55" x1="1879.37" y1="-1803.44" x2="1152.65" y2="2004.53" gradientUnits="userSpaceOnUse">
<stop stop-color="#41873F"/>
<stop offset="0.3288" stop-color="#418B3D"/>
<stop offset="0.6352" stop-color="#419637"/>
<stop offset="0.9319" stop-color="#3FA92D"/>
<stop offset="1" stop-color="#3FAE2A"/>
</linearGradient>
<clipPath id="clip0_816_55">
<rect width="130.448" height="80" fill="white" transform="translate(0.273438 0.909668)"/>
</clipPath>
</defs>
</svg>
