<svg width="131" height="81" viewBox="0 0 131 81" fill="none" xmlns="http://www.w3.org/2000/svg">
<path d="M79.2437 48.455C79.6387 45.1662 79.5206 44.6837 81.9699 45.2162L82.5918 45.2713C84.4756 45.3569 86.9399 44.9681 88.3868 44.2956C91.5031 42.85 93.3506 40.435 90.2781 41.0694C83.2687 42.515 82.7868 40.1425 82.7868 40.1425C90.1887 29.1606 93.2831 15.2206 90.6124 11.8081C83.3287 2.50062 70.7199 6.90187 70.5087 7.01625L70.4412 7.02937C69.0562 6.74125 67.5068 6.57 65.7656 6.54187C62.5937 6.49 60.1868 7.37375 58.3612 8.75812C58.3612 8.75812 35.8681 -0.508755 36.9143 20.4119C37.1368 24.8625 43.2937 54.0881 50.6368 45.2606C53.3206 42.0331 55.9143 39.3037 55.9143 39.3037C57.2024 40.1594 58.7443 40.5956 60.3618 40.4387L60.4868 40.3325C60.4481 40.7331 60.4649 41.125 60.5374 41.5887C58.6456 43.7031 59.2018 44.0744 55.4193 44.8525C51.5931 45.6412 53.8412 47.045 55.3081 47.4119C57.0881 47.8575 61.2037 48.4881 63.9856 44.5938L63.8749 45.0381C64.6174 45.6319 64.5668 49.305 64.6718 51.9294C64.7768 54.5538 64.9531 57.0025 65.4881 58.4475C66.0231 59.8913 66.6543 63.6106 71.6249 62.5456C75.7787 61.6544 78.9543 60.3731 79.2437 48.455Z" fill="black"/>
<path d="M70.004 65.1417C67.8052 65.1417 66.374 64.2917 65.504 63.4704C64.1915 62.2323 63.6708 60.6367 63.3602 59.6835L63.2258 59.2854C62.5996 57.5948 62.3877 55.161 62.2621 52.0273C62.2436 51.5374 62.2279 51.0474 62.2152 50.5573C62.2046 50.1817 62.1915 49.7104 62.1727 49.216C61.3806 49.5938 60.5399 49.8597 59.6746 50.006C58.1246 50.271 56.4583 50.1848 54.7208 49.7504C53.4952 49.4442 52.2215 48.8092 51.4958 47.8279C49.3802 49.681 47.3621 49.4292 46.2627 49.0629C44.3233 48.416 42.5877 46.5992 40.9558 43.5067C39.794 41.3048 38.6696 38.4348 37.614 34.9779C35.7765 28.9573 34.6089 22.616 34.5052 20.5348C34.1789 14.0179 35.9327 9.35791 39.7177 6.68478C45.6896 2.46666 54.7365 4.94666 58.0346 6.07291C60.2502 4.73728 62.8571 4.08666 65.8033 4.13416C67.3858 4.15978 68.8921 4.29916 70.2915 4.54791C71.7508 4.08916 74.6346 3.43041 77.9352 3.47103C84.0165 3.54353 89.0558 5.91353 92.5077 10.3248C94.9708 13.4723 93.7533 20.081 92.8077 23.741C91.4783 28.8879 89.1477 34.3635 86.2852 39.1298C87.0627 39.1354 88.1883 39.0417 89.7896 38.7117C92.9483 38.0592 93.8715 39.7529 94.1221 40.511C95.1265 43.5529 90.7608 45.851 89.399 46.4829C87.654 47.2935 84.8096 47.7867 82.4796 47.6798L82.3777 47.6729L81.7658 47.6192L81.7052 48.1292L81.6471 48.6285C81.4908 54.6685 80.6277 58.4935 78.8521 61.0217C76.9915 63.671 74.4046 64.4142 72.1265 64.9023C71.4294 65.0569 70.7179 65.1372 70.004 65.1417ZM65.3777 43.1579C66.7971 44.2935 66.9215 46.4304 67.0321 50.4242C67.0458 50.9223 67.059 51.3942 67.0765 51.8348C67.1302 53.1685 67.2558 56.2923 67.7446 57.6123C67.814 57.7985 67.8758 57.9885 67.9408 58.1885C68.4858 59.8585 68.7596 60.6954 71.1165 60.1904C73.0958 59.7667 74.1127 59.386 74.909 58.2523C76.0665 56.6035 76.714 53.2892 76.8327 48.3979L79.2402 48.4567L76.849 48.1698L76.919 47.5729C77.1483 45.6054 77.3133 44.1829 78.629 43.2429C79.684 42.4885 80.8871 42.5617 81.8452 42.7342C80.7927 41.9398 80.5015 41.006 80.424 40.6235L80.2233 39.6348L80.7871 38.7973C84.0371 33.9748 86.7177 28.0479 88.1415 22.536C89.604 16.8723 89.1577 13.8642 88.7121 13.2954C82.8083 5.75103 72.569 8.86541 71.5002 9.21978L71.319 9.31728L70.4127 9.48666L69.9483 9.39041C68.669 9.12478 67.2477 8.97791 65.7233 8.95291C63.329 8.91291 61.3977 9.47853 59.814 10.6804L58.7152 11.5135L57.4396 10.9879C54.7158 9.87416 46.7133 7.63478 42.4908 10.6254C40.1471 12.2854 39.0796 15.5385 39.3171 20.2942C39.3952 21.8642 40.4627 27.8073 42.2215 33.5723C44.6533 41.5385 46.8633 44.1842 47.7858 44.4923C47.9465 44.5467 48.3646 44.2217 48.7802 43.7229C51.484 40.471 54.0552 37.7604 54.1633 37.646L55.5577 36.1792L57.2433 37.2992C57.9227 37.751 58.6721 38.0067 59.4421 38.0548L63.4627 34.626L62.8802 40.5698C62.8671 40.7035 62.8608 40.8848 62.9133 41.2223L63.0883 42.3492L62.3302 43.1979L62.2427 43.296L64.4515 44.316L65.3777 43.1579Z" fill="black"/>
<path d="M90.2806 41.0697C83.2706 42.5153 82.7887 40.1422 82.7887 40.1422C90.1899 29.1603 93.2837 15.2197 90.6137 11.8078C83.3293 2.5003 70.7206 6.90217 70.5099 7.01655L70.4418 7.02842C69.0568 6.74155 67.5074 6.5703 65.7656 6.54217C62.5937 6.4903 60.1874 7.37342 58.3618 8.7578C58.3618 8.7578 35.8681 -0.508451 36.9143 20.4122C37.1368 24.8628 43.2937 54.0884 50.6368 45.2609C53.3206 42.0334 55.9137 39.304 55.9137 39.304C57.2018 40.1597 58.7437 40.5959 60.3606 40.439L60.4862 40.3328C60.4474 40.7334 60.4649 41.1253 60.5362 41.589C58.6449 43.7034 59.1999 44.0747 55.4187 44.8528C51.5918 45.6415 53.8399 47.0453 55.3081 47.4122C57.0874 47.8578 61.2037 48.4884 63.9849 44.5941L63.8737 45.0384C64.6149 45.6322 65.1356 48.9003 65.0481 51.8628C64.9606 54.8253 64.9024 56.8591 65.4868 58.4478C66.0712 60.0359 66.6531 63.6109 71.6243 62.5459C75.7781 61.6553 77.9305 59.3484 78.2305 55.5009C78.443 52.7653 78.9237 53.1697 78.9543 50.7234L79.3406 49.5653C79.7849 45.8565 79.4112 44.6603 81.9706 45.2172L82.5924 45.2716C84.4762 45.3578 86.9412 44.9684 88.388 44.2959C91.5043 42.8497 93.3524 40.4353 90.2806 41.0697Z" fill="#336791"/>
<path d="M70.2534 63.6569C66.109 63.6575 64.7965 60.3756 64.259 59.0337C63.4734 57.0675 63.3034 49.435 63.4784 43.1756C63.49 42.9666 63.5828 42.7705 63.7368 42.6288C63.8909 42.4871 64.0941 42.4111 64.3034 42.417C64.5126 42.4228 64.7113 42.5101 64.8572 42.6602C65.0031 42.8102 65.0847 43.0113 65.0846 43.2206C64.8827 50.44 65.1696 56.9819 65.7509 58.4369C66.659 60.7069 68.0359 62.6925 71.9302 61.8587C75.6271 61.0656 77.0115 59.6637 77.6277 56.09C78.1015 53.3469 79.0365 45.5437 79.1515 44.0037C79.1673 43.7913 79.2669 43.5939 79.4283 43.4549C79.5897 43.3159 79.7997 43.2467 80.0121 43.2625C80.2245 43.2783 80.422 43.3779 80.561 43.5393C80.7 43.7007 80.7692 43.9107 80.7534 44.1231C80.6334 45.7256 79.7021 53.5144 79.2102 56.3631C78.4821 60.585 76.6002 62.5 72.2665 63.4294C71.6053 63.5755 70.9305 63.6518 70.2534 63.6569ZM47.784 47.6287C47.4218 47.6283 47.0621 47.569 46.719 47.4531C44.0271 46.555 41.4634 42.1712 39.0984 34.4225C37.2984 28.5237 36.1577 22.3675 36.0577 20.3669C35.7609 14.4356 37.289 10.2387 40.5984 7.89373C47.1459 3.25436 58.1609 7.67248 58.6265 7.86248C58.8219 7.94426 58.9771 8.09992 59.0582 8.29557C59.1394 8.49122 59.14 8.71102 59.0599 8.90711C58.9798 9.10319 58.8254 9.25969 58.6305 9.34252C58.4355 9.42535 58.2157 9.42781 58.019 9.34936V9.34998C57.9127 9.30623 47.3502 5.07498 41.524 9.20686C38.694 11.2137 37.3946 14.9412 37.6615 20.2875C37.7459 21.9725 38.8115 27.9819 40.6346 33.9544C42.7459 40.8712 45.149 45.2369 47.2271 45.9294C47.5527 46.0387 48.5452 46.3694 49.9652 44.6631C52.6352 41.4506 55.0884 38.8869 55.1127 38.8612C55.2621 38.7165 55.4618 38.6353 55.6697 38.6347C55.8777 38.6341 56.0779 38.7142 56.228 38.8581C56.3782 39.0019 56.4668 39.1984 56.4751 39.4063C56.4835 39.6141 56.4109 39.817 56.2727 39.9725C56.2484 39.9975 53.8327 42.5231 51.2002 45.69C49.9534 47.1887 48.7577 47.6287 47.784 47.6287ZM82.734 40.8606C82.5881 40.8608 82.445 40.8213 82.3199 40.7462C82.1949 40.6712 82.0926 40.5635 82.0242 40.4347C81.9557 40.3059 81.9237 40.1609 81.9315 40.0153C81.9392 39.8696 81.9866 39.7289 82.0684 39.6081C89.5502 28.5056 92.1765 15.0912 89.9271 12.2175C87.0959 8.59998 83.0977 6.70998 78.0446 6.60186C74.3027 6.52061 71.3284 7.47623 70.8427 7.64311L70.7209 7.69248C70.2321 7.84623 69.8571 7.57811 69.7159 7.26498C69.6354 7.08558 69.6232 6.88295 69.6817 6.69521C69.7402 6.50748 69.8652 6.34758 70.0334 6.24561L70.2496 6.15686L70.239 6.15998L70.2502 6.15623C71.0759 5.85436 74.0952 4.94811 77.8358 4.99123C83.4277 5.04998 88.0465 7.20686 91.1927 11.2269C92.6815 13.1294 92.6846 17.5125 91.2021 23.2519C89.6909 29.1031 86.8471 35.3925 83.4009 40.5062C83.3274 40.6156 83.2281 40.7051 83.1118 40.7669C82.9955 40.8287 82.8657 40.8609 82.734 40.8606ZM83.1159 46C81.8384 46 80.6934 45.8206 80.0077 45.4094C79.3027 44.9875 79.1684 44.4131 79.1509 44.1087C78.9584 40.7312 80.8221 40.1431 81.7727 39.875C81.6402 39.675 81.4515 39.4394 81.2571 39.1962C80.7027 38.5037 79.944 37.555 79.359 36.1362C79.2677 35.915 78.9802 35.3994 78.6477 34.8031C76.8459 31.5725 73.0971 24.8494 75.5052 21.4062C76.6202 19.8131 78.839 19.1862 82.109 19.5362C81.1471 16.6056 76.5659 7.43748 65.6971 7.25936C62.4277 7.20436 59.7465 8.20998 57.7321 10.2437C53.2215 14.7994 53.3852 23.0419 53.3871 23.1237C53.3899 23.2292 53.3718 23.3341 53.334 23.4326C53.2962 23.531 53.2394 23.6211 53.1668 23.6975C53.0942 23.774 53.0072 23.8355 52.9109 23.8784C52.8145 23.9212 52.7107 23.9447 52.6052 23.9475C52.4998 23.9502 52.3949 23.9322 52.2964 23.8944C52.198 23.8566 52.1079 23.7998 52.0314 23.7272C51.9549 23.6545 51.8935 23.5676 51.8506 23.4712C51.8077 23.3749 51.7842 23.271 51.7815 23.1656C51.7715 22.8 51.6027 14.1506 56.5909 9.11311C58.9252 6.75561 61.9977 5.59186 65.7234 5.65248C72.6784 5.76686 77.154 9.30186 79.6846 12.2481C82.4421 15.4581 83.7946 18.9994 83.9059 20.1806C83.989 21.0594 83.3584 21.2356 83.2309 21.2612L82.9415 21.2681C79.7321 20.7544 77.6734 21.1106 76.8221 22.3275C74.9902 24.945 78.5365 31.3044 80.0509 34.0206C80.4377 34.7131 80.7165 35.2137 80.844 35.5231C81.3415 36.7294 81.9902 37.54 82.5115 38.1912C82.9696 38.7644 83.3671 39.2606 83.5096 39.8444C83.5752 39.96 84.5115 41.3437 90.0646 40.1975C91.4565 39.9106 92.2909 40.1562 92.5459 40.9275C93.0477 42.4456 90.2321 44.2156 88.6734 44.94C87.2746 45.5894 85.0452 46 83.1159 46ZM80.7527 43.9762C80.9283 44.1544 81.8096 44.4606 83.6352 44.3825C85.2577 44.3125 86.9696 43.9594 87.9971 43.4831C89.3109 42.8731 90.1871 42.1912 90.6415 41.7256L90.389 41.7719C86.8384 42.505 84.3271 42.4075 82.9252 41.4812C82.8309 41.4191 82.7401 41.3517 82.6533 41.2794C82.5015 41.3394 82.3609 41.3787 82.2609 41.4069C81.4652 41.63 80.6427 41.8606 80.7527 43.9762ZM57.8171 48.4631C56.9352 48.4631 56.0071 48.3437 55.059 48.1056C54.0771 47.86 52.4209 47.1206 52.4465 45.9062C52.4746 44.5431 54.4565 44.1344 55.2034 43.9806C57.8984 43.4256 58.074 43.2031 58.9165 42.1337C59.1621 41.8219 59.4677 41.4337 59.884 40.9681C60.5027 40.2762 61.179 39.925 61.894 39.925C62.3915 39.925 62.8002 40.0944 63.0696 40.2056C63.9296 40.5619 64.6471 41.4231 64.9421 42.4544C65.2084 43.3844 65.0815 44.2794 64.5846 44.9744C62.9546 47.2575 60.6146 48.4631 57.8171 48.4631ZM54.1815 45.9756C54.424 46.1625 54.909 46.4125 55.4484 46.5481C56.2696 46.7531 57.0659 46.8575 57.8171 46.8575C60.1059 46.8575 61.9427 45.9094 63.2777 44.0412C63.5559 43.6512 63.4727 43.1569 63.3984 42.8962C63.2421 42.3512 62.8546 41.8556 62.4552 41.6894C62.2384 41.5994 62.059 41.5306 61.894 41.5306C61.8052 41.5306 61.5359 41.5306 61.0815 42.0387C60.6977 42.4675 60.4221 42.8175 60.1777 43.1269C59.129 44.4587 58.6484 44.9106 55.5271 45.5537C54.7659 45.7112 54.3752 45.87 54.1815 45.9756ZM60.3577 42.2706C60.166 42.2703 59.9807 42.2015 59.8353 42.0766C59.6898 41.9517 59.5938 41.7788 59.5646 41.5894C59.5441 41.456 59.5307 41.3216 59.5246 41.1869C57.4784 41.1481 55.5046 40.2706 54.0065 38.7069C52.1121 36.73 51.2496 33.9912 51.6409 31.1931C52.0659 28.1544 51.9071 25.4719 51.8215 24.0306C51.8001 23.7342 51.7869 23.4372 51.7821 23.14C51.7834 22.8862 51.7884 22.2119 54.0415 21.07C54.8427 20.6637 56.4496 19.955 58.2046 19.7731C61.1134 19.4731 63.0302 20.7681 63.604 23.4206C65.1527 30.5831 63.7265 33.7512 62.6852 36.0644C62.4909 36.4944 62.3077 36.9019 62.1615 37.2956L62.0321 37.6437C61.4821 39.1187 61.0065 40.3931 61.1527 41.3456C61.1849 41.5562 61.1322 41.7709 61.0062 41.9427C60.8803 42.1144 60.6913 42.2292 60.4809 42.2619L60.3577 42.2706ZM53.3934 23.3619L53.4252 23.9356C53.514 25.4325 53.679 28.2187 53.2315 31.4162C52.909 33.7237 53.614 35.9769 55.1659 37.5962C56.3921 38.8762 58.0071 39.5825 59.6665 39.5825H59.7009C59.8871 38.7994 60.1952 37.9731 60.5271 37.0825L60.6559 36.7369C60.8215 36.2919 61.0152 35.8612 61.2202 35.4056C62.2227 33.1781 63.4702 30.4056 62.0334 23.76C61.7484 22.4444 61.0584 21.6825 59.924 21.4312C57.594 20.9162 54.1221 22.6687 53.3934 23.3619ZM58.2409 23.0212C58.2009 23.305 58.7615 24.0631 59.4915 24.1644C60.2209 24.2662 60.8452 23.6737 60.8846 23.39C60.924 23.1056 60.364 22.7931 59.6334 22.6912C58.904 22.5894 58.2796 22.7369 58.2409 23.0212ZM59.6596 24.4444L59.4546 24.43C59.0015 24.3669 58.5434 24.0812 58.2302 23.6656C58.1202 23.52 57.9402 23.2362 57.9759 22.9837C58.0271 22.6131 58.4784 22.3919 59.184 22.3919C59.3421 22.3919 59.5059 22.4037 59.6715 22.4262C60.0565 22.48 60.4146 22.5912 60.679 22.7387C61.1371 22.995 61.1709 23.28 61.1502 23.4281C61.0934 23.8362 60.4421 24.4444 59.6596 24.4444ZM58.5071 23.0687C58.5302 23.2437 58.9634 23.8219 59.5284 23.9L59.659 23.9094C60.1802 23.9094 60.5702 23.4987 60.6159 23.3644C60.5677 23.2731 60.2327 23.045 59.5965 22.9575C59.4596 22.9378 59.3216 22.9278 59.1834 22.9275C58.7759 22.9269 58.5577 23.0187 58.5071 23.0687ZM80.4577 22.4419C80.4971 22.7262 79.9377 23.4844 79.2071 23.5856C78.4771 23.6869 77.8527 23.095 77.8127 22.8106C77.774 22.5269 78.334 22.2137 79.064 22.1125C79.794 22.01 80.4177 22.1587 80.4577 22.4419ZM79.039 23.7306C78.3359 23.7306 77.7302 23.1837 77.6802 22.8294C77.6227 22.4037 78.3234 22.08 79.0459 21.98C79.2046 21.9575 79.3621 21.9462 79.514 21.9462C80.1371 21.9462 80.5496 22.1294 80.5909 22.4237C80.6177 22.615 80.4715 22.9094 80.219 23.1744C80.0527 23.3494 79.7027 23.6525 79.2265 23.7181L79.039 23.7306ZM79.5134 22.2137C79.374 22.2137 79.229 22.2244 79.0821 22.2444C78.3559 22.345 77.924 22.6369 77.9446 22.7931C77.969 22.9644 78.4321 23.4631 79.0384 23.4631L79.1877 23.4525C79.584 23.3969 79.8815 23.1387 80.0233 22.9894C80.2458 22.755 80.3346 22.535 80.324 22.4594C80.3109 22.3612 80.0434 22.2137 79.5134 22.2137ZM81.5096 38.7469C81.3641 38.7468 81.2214 38.7072 81.0967 38.6323C80.972 38.5575 80.8699 38.4501 80.8015 38.3218C80.733 38.1934 80.7007 38.0489 80.7079 37.9036C80.7152 37.7583 80.7618 37.6177 80.8427 37.4969C82.5527 34.9425 82.2396 32.3369 81.9371 29.8181C81.8077 28.7444 81.6746 27.635 81.7096 26.5694C81.7446 25.4737 81.8834 24.57 82.0184 23.695C82.1777 22.6594 82.3284 21.68 82.2659 20.5187C82.2613 20.31 82.3381 20.1077 82.48 19.9546C82.6219 19.8015 82.8178 19.7097 83.0263 19.6985C83.2347 19.6873 83.4394 19.7576 83.5969 19.8946C83.7544 20.0316 83.8524 20.2245 83.8702 20.4325C83.9415 21.76 83.7709 22.8675 83.6059 23.9394C83.4784 24.7662 83.3465 25.6212 83.3146 26.6206C83.284 27.5637 83.4046 28.5656 83.5321 29.6256C83.8546 32.305 84.219 35.3419 82.1777 38.39C82.0227 38.6212 81.7684 38.7469 81.5096 38.7469Z" fill="white"/>
<path d="M27.2754 65.399C28.1728 65.2534 29.0807 65.1828 29.9898 65.1877C31.3866 65.1877 32.411 65.5127 33.061 66.0977C33.6623 66.6177 34.0198 67.414 34.0198 68.3896C34.0198 69.3809 33.7266 70.1609 33.1741 70.7296C32.4266 71.5259 31.2079 71.9321 29.8266 71.9321C29.4041 71.9321 29.0141 71.9159 28.6898 71.8346V76.2227H27.2754V65.399ZM28.6898 70.6802C28.9985 70.7615 29.3885 70.794 29.8598 70.794C31.5654 70.794 32.606 69.9652 32.606 68.454C32.606 67.0077 31.5823 66.309 30.0223 66.309C29.4048 66.309 28.9335 66.3577 28.6898 66.4227V70.6802ZM42.5835 72.224C42.5835 75.1327 40.5679 76.4009 38.6666 76.4009C36.5379 76.4009 34.8966 74.8409 34.8966 72.354C34.8966 69.7215 36.6191 68.1777 38.7966 68.1777C41.056 68.1771 42.5835 69.819 42.5835 72.224ZM36.3435 72.3052C36.3435 74.0277 37.3348 75.3277 38.7323 75.3277C40.0973 75.3277 41.1204 74.044 41.1204 72.2727C41.1204 70.9402 40.4548 69.2502 38.7641 69.2502C37.0735 69.2502 36.3435 70.8102 36.3435 72.3052ZM44.1916 74.759C44.6141 75.0352 45.3616 75.3277 46.0766 75.3277C47.1166 75.3277 47.6041 74.8077 47.6041 74.1577C47.6041 73.4752 47.1985 73.1015 46.1416 72.7115C44.7279 72.2077 44.0616 71.4277 44.0616 70.4852C44.0616 69.2177 45.0854 68.1777 46.7754 68.1777C47.5716 68.1777 48.271 68.4052 48.7098 68.6652L48.3523 69.7052C47.8686 69.4072 47.3116 69.2497 46.7435 69.2502C45.8985 69.2502 45.4273 69.7377 45.4273 70.3227C45.4273 70.9727 45.8991 71.2652 46.9229 71.6552C48.2879 72.1752 48.9866 72.8577 48.9866 74.0277C48.9866 75.409 47.9141 76.384 46.0454 76.384C45.1841 76.384 44.3879 76.1727 43.8354 75.8477L44.1916 74.759ZM52.5448 66.0971V68.3559H54.5916V69.4446H52.5448V73.6859C52.5448 74.6609 52.8204 75.2134 53.6173 75.2134C53.8966 75.2174 54.1752 75.1846 54.446 75.1159L54.511 76.1884C54.2354 76.3021 53.796 76.3834 53.2441 76.3834C52.5779 76.3834 52.041 76.1721 51.6998 75.7821C51.2941 75.3596 51.1473 74.6609 51.1473 73.7346V69.4446H49.9285V68.3559H51.1473V66.4709L52.5448 66.0971ZM62.8798 68.3565C62.8466 68.9252 62.8148 69.559 62.8148 70.5177V75.084C62.8148 76.8877 62.4573 77.9927 61.6935 78.6759C60.9298 79.3909 59.8248 79.6184 58.8335 79.6184C57.891 79.6184 56.851 79.3909 56.2166 78.9684L56.5741 77.8796C57.0941 78.2046 57.9066 78.4971 58.8816 78.4971C60.3441 78.4971 61.4166 77.7334 61.4166 75.7509V74.8734H61.3841C60.9454 75.6046 60.1004 76.1896 58.8816 76.1896C56.9316 76.1896 55.5341 74.5321 55.5341 72.354C55.5341 69.689 57.2729 68.1777 59.0766 68.1777C60.4423 68.1777 61.1898 68.8927 61.531 69.5427H61.5635L61.6285 68.3565H62.8798ZM61.401 71.4602C61.401 71.2165 61.3848 71.0052 61.3198 70.8102C61.0598 69.9815 60.361 69.299 59.321 69.299C57.9554 69.299 56.981 70.4527 56.981 72.2727C56.981 73.8165 57.761 75.1002 59.3048 75.1002C60.1823 75.1002 60.9785 74.5477 61.2873 73.6377C61.3685 73.394 61.4016 73.1177 61.4016 72.874L61.401 71.4602ZM65.0891 70.8102C65.0891 69.884 65.0729 69.0877 65.0241 68.3565H66.276L66.3241 69.9002H66.3891C66.7466 68.844 67.6079 68.1777 68.5666 68.1777C68.7291 68.1777 68.8423 68.194 68.9723 68.2265V69.5752C68.8124 69.5405 68.649 69.5241 68.4854 69.5265C67.4779 69.5265 66.7623 70.2902 66.5679 71.3627C66.5278 71.5826 66.506 71.8055 66.5029 72.029V76.2215H65.0891V70.8102ZM71.0373 72.549C71.0698 74.4827 72.3041 75.279 73.7341 75.279C74.7585 75.279 75.3754 75.1002 75.9116 74.8727L76.1554 75.8965C75.6516 76.124 74.7904 76.384 73.5391 76.384C71.1179 76.384 69.6716 74.7915 69.6716 72.419C69.6716 70.0465 71.0691 68.1771 73.3604 68.1771C75.9279 68.1771 76.6104 70.4359 76.6104 71.8821C76.6104 72.1746 76.5779 72.4021 76.5616 72.5484L71.0373 72.549ZM75.2298 71.5252C75.2454 70.6152 74.8554 69.2015 73.2473 69.2015C71.801 69.2015 71.1673 70.534 71.0529 71.5252H75.2298Z" fill="white"/>
<path d="M78.2312 74.5005C78.9973 74.9607 79.8725 75.2076 80.7662 75.2155C82.2124 75.2155 83.0574 74.4518 83.0574 73.3468C83.0574 72.323 82.4724 71.738 80.9937 71.1693C79.2062 70.5355 78.1012 69.6093 78.1012 68.0655C78.1012 66.3593 79.5149 65.0918 81.6437 65.0918C82.7649 65.0918 83.5774 65.3518 84.0649 65.628L83.6749 66.7818C83.0356 66.4381 82.3207 66.2594 81.5949 66.2618C80.0999 66.2618 79.5312 67.1555 79.5312 67.903C79.5312 68.9268 80.1968 69.4305 81.7087 70.0155C83.5612 70.7312 84.5037 71.6243 84.5037 73.233C84.5037 74.923 83.2524 76.3855 80.6687 76.3855C79.6124 76.3855 78.4587 76.0768 77.873 75.6868L78.2312 74.5005ZM95.4724 77.8318C94.0598 77.4611 92.6613 77.0383 91.2799 76.5643C91.0524 76.483 90.8249 76.4018 90.6137 76.4018C88.0137 76.3043 85.7874 74.3868 85.7874 70.8605C85.7874 67.3505 87.9324 65.0918 90.8899 65.0918C93.8637 65.0918 95.798 67.3993 95.798 70.633C95.798 73.4443 94.498 75.248 92.678 75.8818V75.9468C93.7668 76.223 94.953 76.483 95.8793 76.6455L95.4724 77.8318ZM94.3024 70.698C94.3024 68.5043 93.1655 66.2449 90.8412 66.2449C88.4524 66.2449 87.2824 68.4549 87.2987 70.828C87.2824 73.1518 88.5662 75.248 90.7762 75.248C93.0355 75.248 94.3024 73.2005 94.3024 70.698ZM97.633 65.2705H99.0474V75.0368H103.727V76.223H97.633V65.2705Z" fill="#336791"/>
</svg>
