<svg width="132" height="81" viewBox="0 0 132 81" fill="none" xmlns="http://www.w3.org/2000/svg">
<g clip-path="url(#clip0_816_70)">
<path d="M94.6916 26.2444C93.7356 25.9165 92.7716 25.6127 91.8003 25.3332C91.9635 24.6665 92.1137 24.0079 92.247 23.3609C94.4358 12.736 93.0049 4.17633 88.1175 1.35809C83.4316 -1.34366 75.7681 1.47353 68.0284 8.20932C67.2656 8.87432 66.5198 9.55852 65.7916 10.2612C65.3041 9.79398 64.808 9.33577 64.3035 8.88686C56.1919 1.68476 48.0614 -1.35068 43.1793 1.47563C38.4975 4.18581 37.1112 12.2325 39.0818 22.3019C39.2778 23.2992 39.4992 24.2914 39.7456 25.2774C38.5947 25.6044 37.4842 25.9525 36.4214 26.323C26.9112 29.6388 20.8379 34.8349 20.8379 40.2248C20.8379 45.7914 27.3579 51.3749 37.2632 54.7605C38.0662 55.0338 38.8759 55.2871 39.6916 55.5202C39.4268 56.5822 39.1916 57.6514 38.9863 58.7265C37.1077 68.6212 38.5747 76.4777 43.2439 79.1707C48.0663 81.9518 56.1603 79.0935 64.0414 72.2041C64.6804 71.6439 65.3054 71.0679 65.9158 70.4767C66.7044 71.2376 67.5141 71.9764 68.3439 72.6921C75.9782 79.2612 83.5179 81.9139 88.1825 79.2135C93.0003 76.4244 94.5663 67.9844 92.5333 57.716C92.3732 56.9115 92.1936 56.1111 91.9947 55.3153C92.5632 55.1469 93.1211 54.9735 93.6649 54.7932C103.962 51.3816 110.662 45.8658 110.662 40.2248C110.662 34.8153 104.393 29.5841 94.6916 26.2444ZM92.4582 51.1511C91.9665 51.3134 91.4636 51.4707 90.9495 51.623C89.8126 48.0241 88.2786 44.1974 86.401 40.2433C88.1926 36.3837 89.6677 32.6058 90.7726 29.0304C91.6916 29.2963 92.5832 29.5767 93.4428 29.8725C101.755 32.7342 106.825 36.9648 106.825 40.2248C106.825 43.697 101.349 48.2048 92.4582 51.1511ZM88.7691 58.4612C89.6681 63.0016 89.7961 67.1069 89.2007 70.3163C88.666 73.2002 87.5902 75.1226 86.2596 75.8928C83.4291 77.5314 77.3754 75.4016 70.8467 69.7834C70.0749 69.1178 69.3217 68.431 68.5881 67.7237C71.1193 64.9556 73.6488 61.7377 76.1175 58.1637C80.46 57.7784 84.5625 57.1483 88.2828 56.2883C88.4664 57.0279 88.6285 57.7522 88.7691 58.4612ZM51.461 75.6097C48.6954 76.5862 46.4926 76.6142 45.161 75.8465C42.3277 74.2125 41.1498 67.9041 42.7565 59.4423C42.9475 58.4424 43.1662 57.448 43.4123 56.4602C47.0916 57.2742 51.1642 57.8595 55.5168 58.2125C58.0025 61.7097 60.6049 64.924 63.2277 67.7388C62.6703 68.2781 62.0997 68.8036 61.5165 69.3149C58.0312 72.3612 54.5389 74.5226 51.461 75.6097ZM38.5046 51.1297C34.1246 49.6325 30.5074 47.6869 28.0281 45.5637C25.8 43.656 24.6754 41.7616 24.6754 40.2248C24.6754 36.9539 29.5516 32.7819 37.6846 29.9465C38.6716 29.6026 39.7046 29.2781 40.7765 28.9735C41.9007 32.6297 43.3751 36.4525 45.1544 40.3181C43.3519 44.2409 41.8565 48.1248 40.7214 51.8241C39.9769 51.6107 39.2377 51.3792 38.5046 51.1297ZM42.8477 21.5648C41.1596 12.9377 42.2807 6.43002 45.1021 4.79669C48.107 3.05704 54.7519 5.53739 61.7558 11.7563C62.2125 12.1628 62.6618 12.5775 63.1035 13.0002C60.4937 15.8026 57.9151 18.9932 55.4516 22.4697C51.227 22.8612 47.1832 23.49 43.4653 24.3325C43.2361 23.4154 43.0302 22.4923 42.8477 21.5648ZM81.594 31.1328C80.7159 29.616 79.8051 28.1182 78.8625 26.6405C81.7284 27.003 84.4744 27.4841 87.053 28.0721C86.2789 30.5535 85.314 33.1476 84.1782 35.8072C83.3481 34.232 82.4865 32.6736 81.594 31.1328ZM65.7933 15.743C67.5632 17.6605 69.3358 19.8012 71.0793 22.1241C67.5425 21.957 63.9997 21.9563 60.4628 22.1219C62.2081 19.8205 63.9958 17.6826 65.7933 15.743ZM49.8912 31.1588C49.0099 32.6871 48.1644 34.2359 47.3554 35.8037C46.2382 33.1535 45.2821 30.5476 44.5014 28.0311C47.0642 27.4577 49.7972 26.989 52.6449 26.6332C51.6918 28.1199 50.7736 29.6291 49.8912 31.1588ZM52.7267 54.089C49.7846 53.7605 47.0105 53.316 44.4484 52.7581C45.2414 50.1967 46.2186 47.5353 47.36 44.8283C48.1722 46.3973 49.0212 47.9469 49.9063 49.476C50.8165 51.0479 51.7589 52.5876 52.7267 54.089ZM65.8993 64.9767C64.0803 63.0146 62.2663 60.8437 60.4947 58.509C62.2147 58.5763 63.9681 58.6107 65.7502 58.6107C67.581 58.6107 69.3909 58.5697 71.1723 58.4904C69.4232 60.8672 67.6572 63.0412 65.8993 64.9767ZM84.2144 44.69C85.4151 47.4269 86.427 50.0742 87.2305 52.5918C84.6263 53.1862 81.8144 53.6648 78.8516 54.0202C79.801 52.5151 80.7204 50.9913 81.6091 49.4497C82.5128 47.8827 83.3814 46.2957 84.2144 44.69ZM78.2853 47.5325C76.9245 49.8961 75.4874 52.2148 73.9761 54.4851C71.2385 54.6791 68.4947 54.7754 65.7502 54.7739C62.9547 54.7739 60.2358 54.6869 57.6175 54.517C56.0667 52.2521 54.6021 49.9293 53.227 47.5535C51.8582 45.1905 50.5801 42.7762 49.3947 40.316C50.5771 37.8552 51.8517 35.4398 53.2158 33.0749L53.2154 33.0753C54.5788 30.7097 56.0317 28.3968 57.5709 26.1416C60.2421 25.9395 62.9814 25.8342 65.7498 25.8342C68.5309 25.8342 71.274 25.9405 73.9446 26.1441C75.4682 28.3959 76.9118 30.7008 78.2726 33.0546C79.6411 35.4144 80.9325 37.818 82.1449 40.2616C80.9449 42.7302 79.6576 45.1554 78.2853 47.5325ZM86.2011 4.68195C89.2088 6.41669 90.3786 13.4121 88.4888 22.5858C88.3676 23.1715 88.2331 23.7669 88.0853 24.3718C84.3582 23.5114 80.3116 22.8718 76.0747 22.4742C73.6067 18.9595 71.0491 15.7641 68.4818 12.9977C69.1546 12.3492 69.8435 11.7174 70.5477 11.103C77.1793 5.33212 83.3772 3.05353 86.2011 4.68195ZM65.7502 32.2037C70.18 32.2037 73.7712 35.7949 73.7712 40.2248C73.7712 44.6546 70.18 48.2458 65.7502 48.2458C61.3203 48.2458 57.7291 44.6546 57.7291 40.2248C57.7291 35.7949 61.3203 32.2037 65.7502 32.2037Z" fill="#00D8FF"/>
</g>
<defs>
<clipPath id="clip0_816_70">
<rect width="89.832" height="80" fill="white" transform="translate(20.834 0.341309)"/>
</clipPath>
</defs>
</svg>
