<svg width="132" height="81" viewBox="0 0 132 81" fill="none" xmlns="http://www.w3.org/2000/svg">
<g clip-path="url(#clip0_816_74)">
<path d="M87.25 0.630371H44.75C34.3947 0.630371 26 9.02503 26 19.3804V61.8804C26 72.2357 34.3947 80.6304 44.75 80.6304H87.25C97.6053 80.6304 106 72.2357 106 61.8804V19.3804C106 9.02503 97.6053 0.630371 87.25 0.630371Z" fill="#764ABC"/>
<path d="M78.056 52.3801C80.3625 52.1413 82.1122 50.1529 82.0325 47.767C81.9532 45.381 79.9647 43.4723 77.5788 43.4723H77.4197C74.9541 43.5516 73.0453 45.6195 73.1247 48.0851C73.2044 49.2782 73.6816 50.312 74.3972 51.0279C71.6932 56.3566 67.5575 60.2538 61.3538 63.5148C57.1385 65.7416 52.7641 66.537 48.3897 65.9804C44.8107 65.5032 42.0272 63.9123 40.2772 61.2879C37.7322 57.3907 37.4938 53.1754 39.641 48.9601C41.1522 45.9376 43.5382 43.7107 45.0494 42.5973C44.7313 41.5635 44.2541 39.8135 44.0153 38.541C32.4832 46.8923 33.676 58.186 37.1753 63.5148C39.8003 67.4913 45.1288 69.957 51.0144 69.957C52.605 69.957 54.1957 69.7979 55.7863 69.4001C65.9669 67.412 73.6816 61.3673 78.056 52.3801Z" fill="white"/>
<path d="M92.0536 42.5186C86.0092 35.4399 77.1014 31.543 66.9211 31.543H65.6486C64.9326 30.1111 63.4214 29.1567 61.7514 29.1567H61.5923C59.1267 29.2364 57.2179 31.3042 57.2973 33.7699C57.377 36.1558 59.3651 38.0646 61.7514 38.0646H61.9104C63.6601 37.9852 65.1714 36.8717 65.8076 35.3605H67.2392C73.2836 35.3605 79.0101 37.1102 84.1798 40.5302C88.1564 43.1549 91.0198 46.5749 92.6104 50.7105C93.9626 54.0508 93.8829 57.3117 92.4514 60.0955C90.2245 64.3108 86.4864 66.6174 81.5551 66.6174C78.3739 66.6174 75.3517 65.663 73.7607 64.9471C72.8861 65.7424 71.2954 67.0149 70.182 67.8102C73.6017 69.4008 77.1014 70.2758 80.4417 70.2758C88.077 70.2758 93.7239 66.0605 95.8714 61.8452C98.1779 57.2324 98.0189 49.2789 92.0536 42.5186Z" fill="white"/>
<path d="M51.6508 53.7313C51.7305 56.1172 53.7186 58.026 56.1048 58.026H56.2639C58.7292 57.9463 60.6383 55.8785 60.5586 53.4128C60.4792 51.0269 58.4908 49.1181 56.1048 49.1181H55.9455C55.7867 49.1181 55.548 49.1182 55.3892 49.1978C52.128 43.7894 50.7761 37.9038 51.2533 31.5413C51.5714 26.7694 53.162 22.6335 55.9458 19.2131C58.252 16.2706 62.7061 14.8391 65.7283 14.7594C74.1589 14.6003 77.738 25.0988 77.9764 29.3141C79.0105 29.5528 80.7602 30.1097 81.9533 30.5072C80.9989 17.6231 73.0455 10.9419 65.4102 10.9419C58.252 10.9419 51.6508 16.1116 49.0261 23.7469C45.3677 33.9272 47.7536 43.7097 52.2073 51.4247C51.8098 51.9813 51.5711 52.8563 51.6508 53.7313Z" fill="white"/>
</g>
<defs>
<clipPath id="clip0_816_74">
<rect width="80" height="80" fill="white" transform="translate(26 0.630371)"/>
</clipPath>
</defs>
</svg>
