<svg width="131" height="81" viewBox="0 0 131 81" fill="none" xmlns="http://www.w3.org/2000/svg">
<g clip-path="url(#clip0_816_59)">
<path d="M90.0978 26.412V55.2212L65.6178 69.7045L65.3965 69.9058V80.6731L65.6178 80.8818L100.094 60.9672V20.8234L99.7686 20.7437L90.0489 26.1777L90.0978 26.412Z" fill="#2F406A"/>
<path d="M41.0583 55.4585L65.617 69.7058V80.8831L30.9043 60.8899V20.9034L31.2605 20.8496L40.9521 26.4842L41.0583 26.8069V55.4585Z" fill="#2379BD"/>
<path d="M41.0583 26.8064L30.9043 20.9029L65.5383 0.909668L100.093 20.8243L90.097 26.4129L65.5383 12.4018L41.0583 26.8064Z" fill="#03AFEF"/>
<path d="M65.1937 52.162L64.9277 51.8907V41.0728L65.1937 40.9355L65.2583 40.6688L74.5326 35.2588L74.8164 35.3223V46.4688L65.1937 52.162Z" fill="#2F406A"/>
<path d="M55.4102 46.8185V35.2447L55.6791 35.2314L65.1131 40.7217L65.1934 40.9379V52.1644L55.4102 46.8185Z" fill="#2379BD"/>
<path d="M65.0329 29.5498L55.4102 35.2433L65.1934 40.9366L74.8161 35.3233L65.0329 29.5498Z" fill="#03AFEF"/>
<path d="M53.2208 59.2206L52.9551 58.9493V48.1312L53.2208 47.9941L53.2856 47.7274L62.5597 42.3174L62.8435 42.3809V53.5271L53.2208 59.2206Z" fill="#2F406A"/>
<path d="M43.4375 53.8744V42.3004L43.7061 42.2871L53.1402 47.7777L53.2205 47.9939V59.2204L43.4375 53.8744Z" fill="#2379BD"/>
<path d="M53.0602 36.6055L43.4375 42.2987L53.2205 47.9922L62.8432 42.379L53.0602 36.6055Z" fill="#03AFEF"/>
<path d="M78.0257 59.4882L77.7598 59.2169V48.3987L78.0257 48.2617L78.0903 47.995L87.3646 42.585L87.6484 42.6485V53.7947L78.0257 59.4882Z" fill="#2F406A"/>
<path d="M68.2422 54.142V42.5679L68.5111 42.5547L77.9452 48.0452L78.0254 48.2614V59.4879L68.2422 54.142Z" fill="#2379BD"/>
<path d="M77.8649 36.8755L68.2422 42.5687L78.0254 48.2622L87.6481 42.649L77.8649 36.8755Z" fill="#03AFEF"/>
<path d="M66.0508 66.5439L65.7852 66.2725V55.4544L66.0508 55.3174L66.1157 55.0504L75.39 49.6406L75.6735 49.7041V60.8504L66.0508 66.5439Z" fill="#2F406A"/>
<path d="M56.2637 61.1976V49.6236L56.5323 49.6104L65.9666 55.1006L66.0466 55.3171V66.5436L56.2637 61.1976Z" fill="#2379BD"/>
<path d="M65.8864 43.9316L56.2637 49.6252L66.0466 55.3187L75.6693 49.7054L65.8864 43.9316Z" fill="#03AFEF"/>
<path d="M65.1937 36.8197L64.9277 36.5481V25.7303L65.1937 25.5933L65.2583 25.3262L74.5326 19.9165L74.8164 19.98V31.1262L65.1937 36.8197Z" fill="#2F406A"/>
<path d="M55.4102 31.476V19.9019L55.6791 19.8887L65.1131 25.3789L65.1934 25.5954V36.8219L55.4102 31.476Z" fill="#2379BD"/>
<path d="M65.0329 14.207L55.4102 19.9005L65.1934 25.5941L74.8161 19.9808L65.0329 14.207Z" fill="#03AFEF"/>
<path d="M53.2208 43.8754L52.9551 43.6041V32.7862L53.2208 32.6489L53.2856 32.3822L62.5597 26.9722L62.8435 27.0357V38.1822L53.2208 43.8754Z" fill="#2F406A"/>
<path d="M43.4375 38.5319V26.9581L43.7061 26.9448L53.1402 32.4351L53.2205 32.6513V43.8778L43.4375 38.5319Z" fill="#2379BD"/>
<path d="M53.0602 21.2632L43.4375 26.9567L53.2205 32.6499L62.8432 27.0367L53.0602 21.2632Z" fill="#03AFEF"/>
<path d="M78.0257 44.143L77.7598 43.8716V33.0538L78.0257 32.9165L78.0903 32.6497L87.3646 27.2397L87.6484 27.3033V38.4497L78.0257 44.143Z" fill="#2F406A"/>
<path d="M68.2422 38.7989V27.2252L68.5111 27.2119L77.9452 32.7022L78.0254 32.9184V44.1449L68.2422 38.7989Z" fill="#2379BD"/>
<path d="M77.8649 21.5303L68.2422 27.2238L78.0254 32.917L87.6481 27.3038L77.8649 21.5303Z" fill="#03AFEF"/>
<path d="M66.0508 51.2011L65.7852 50.9297V40.1116L66.0508 39.9746L66.1157 39.7078L75.39 34.2979L75.6735 34.3614V45.5076L66.0508 51.2011Z" fill="#2F406A"/>
<path d="M56.2637 45.8554V34.2813L56.5323 34.2681L65.9666 39.7586L66.0466 39.9748V51.2013L56.2637 45.8554Z" fill="#2379BD"/>
<path d="M65.8864 28.5889L56.2637 34.2824L66.0466 39.9759L75.6693 34.3627L65.8864 28.5889Z" fill="#03AFEF"/>
</g>
<defs>
<clipPath id="clip0_816_59">
<rect width="69.1892" height="80" fill="white" transform="translate(30.9043 0.909668)"/>
</clipPath>
</defs>
</svg>
