<svg width="131" height="81" viewBox="0 0 131 81" fill="none" xmlns="http://www.w3.org/2000/svg">
<g clip-path="url(#clip0_816_47)">
<path d="M65.502 16.9111C54.8351 16.9111 48.1707 22.2424 45.502 32.9093C49.5007 27.5774 54.1688 25.578 59.5007 26.9111C62.5451 27.6699 64.7207 29.8774 67.1301 32.3236C71.0513 36.303 75.5901 40.9099 85.502 40.9099C96.1682 40.9099 102.833 35.578 105.502 24.9086C101.502 30.2432 96.8355 32.2436 91.5026 30.9099C88.4588 30.1505 86.2857 27.9436 83.8732 25.4974C79.9545 21.518 75.417 16.9111 65.502 16.9111ZM45.502 40.9099C34.8357 40.9099 28.1707 46.2418 25.502 56.9111C29.5015 51.5765 34.1678 49.5761 39.5007 50.9099C42.5451 51.6693 44.7207 53.8761 47.1301 56.3224C51.0513 60.3018 55.5901 64.9086 65.502 64.9086C76.1682 64.9086 82.8332 59.5774 85.502 48.9105C81.502 54.2426 76.8355 56.242 71.5026 54.9086C68.4588 54.1499 66.2857 51.9424 63.8732 49.4961C59.9545 45.5168 55.417 40.9099 45.502 40.9099Z" fill="#38BDF8"/>
</g>
<defs>
<clipPath id="clip0_816_47">
<rect width="80" height="80" fill="white" transform="translate(25.5 0.909668)"/>
</clipPath>
</defs>
</svg>
