<svg width="131" height="81" viewBox="0 0 131 81" fill="none" xmlns="http://www.w3.org/2000/svg">
<g clip-path="url(#clip0_816_78)">
<path d="M86.75 0.630371H44.25C33.8947 0.630371 25.5 9.02503 25.5 19.3804V61.8804C25.5 72.2357 33.8947 80.6304 44.25 80.6304H86.75C97.1053 80.6304 105.5 72.2357 105.5 61.8804V19.3804C105.5 9.02503 97.1053 0.630371 86.75 0.630371Z" fill="#007ACC"/>
<path d="M43.1913 40.8967L43.166 44.173H53.5785V73.7602H60.9438V44.173H71.3563V40.9602C71.3563 39.1824 71.3185 37.6967 71.2676 37.6586C71.2295 37.608 64.8929 37.5824 57.2104 37.5952L43.2295 37.6333L43.1913 40.8967ZM90.0526 37.5402C92.0841 38.0483 93.6335 38.9499 95.0557 40.4227C95.7923 41.2102 96.8841 42.6452 96.9732 42.988C96.9985 43.0896 93.5191 45.4261 91.4113 46.7339C91.3351 46.7849 91.0301 46.4546 90.6873 45.9467C89.6588 44.4483 88.5795 43.8005 86.9285 43.6864C84.5032 43.5211 82.9413 44.7911 82.9541 46.9117C82.9541 47.5339 83.0429 47.9021 83.297 48.4102C83.8301 49.5149 84.8207 50.1752 87.932 51.5211C93.6588 53.9849 96.1095 55.6102 97.6335 57.9211C99.3351 60.4989 99.716 64.6133 98.5604 67.6736C97.2907 71.0005 94.1413 73.2608 89.7095 74.0102C88.3382 74.2514 85.0873 74.2133 83.6145 73.9467C80.4016 73.3752 77.3541 71.788 75.4748 69.7055C74.7382 68.8927 73.3032 66.7721 73.3923 66.6196C73.4301 66.5689 73.7604 66.3658 74.1285 66.1499C74.4841 65.9467 75.8304 65.1721 77.1001 64.4355L79.3985 63.1021L79.881 63.8133C80.5541 64.8417 82.027 66.2514 82.916 66.7211C85.4682 68.0674 88.9732 67.8767 90.7001 66.3277C91.4366 65.6546 91.7413 64.9561 91.7413 63.9277C91.7413 63.0005 91.627 62.5942 91.1445 61.8958C90.5223 61.0071 89.2526 60.2577 85.646 58.6958C81.5191 56.918 79.7413 55.8133 78.116 54.0608C77.1763 53.0452 76.2873 51.4196 75.9191 50.0608C75.6145 48.9308 75.5382 46.0989 75.7795 44.9561C76.6301 40.9689 79.6398 38.188 83.9826 37.3624C85.3923 37.0958 88.6682 37.1974 90.0526 37.5402Z" fill="white"/>
</g>
<defs>
<clipPath id="clip0_816_78">
<rect width="80" height="80" fill="white" transform="translate(25.5 0.630371)"/>
</clipPath>
</defs>
</svg>
